<svg width="88" height="100" viewBox="0 0 88 100" fill="none" xmlns="http://www.w3.org/2000/svg">
<g clip-path="url(#clip0_1473_3975)">
<path d="M44.0003 100L0.837891 74.9973V25.0027L44.0003 0L87.1627 25.0027V74.9973L44.0003 100ZM4.04143 73.1441L44.0003 96.2828L83.9591 73.1441V26.8559L44.0003 3.70648L4.04143 26.8559V73.1441Z" fill="#272629"/>
<path d="M44.0026 83.2568L15.2988 66.6312V33.3693L44.0026 16.7437L72.7063 33.3693V66.6205L44.0026 83.2461V83.2568ZM18.5024 64.7779L44.0026 79.5503L69.5028 64.7779V35.2332L44.0026 20.4608L18.5024 35.2332V64.7779Z" fill="white"/>
<path d="M45.6879 81.3923H42.4844V47.4877L70.3659 32.876L71.8502 35.7255L45.6879 49.4373V81.3923Z" fill="white"/>
<path d="M17.6447 32.8683L16.168 35.7202L43.3552 49.8877L44.832 47.0358L17.6447 32.8683Z" fill="white"/>
</g>
<defs>
<clipPath id="clip0_1473_3975">
<rect width="86.3248" height="100" fill="white" transform="translate(0.837891)"/>
</clipPath>
</defs>
</svg>
