<svg width="88" height="100" viewBox="0 0 88 100" fill="none" xmlns="http://www.w3.org/2000/svg">
<g clip-path="url(#clip0_2010_10433)">
<path d="M43.9983 100L0.835938 74.9973V25.0027L43.9983 0L87.1607 25.0027V74.9973L43.9983 100ZM4.03948 73.1441L43.9983 96.2828L83.9572 73.1441V26.8559L43.9983 3.70648L4.03948 26.8559V73.1441Z" fill="#272629"/>
<path d="M44.0006 83.2573L15.2969 66.6317V33.3697L44.0006 16.7441L72.7044 33.3697V66.621L44.0006 83.2466V83.2573ZM18.5004 64.7784L44.0006 79.5508L69.5008 64.7784V35.2337L44.0006 20.4613L18.5004 35.2337V64.7784Z" fill="white"/>
<path d="M45.6879 81.3913H42.4844V47.4867L70.3659 32.875L71.8502 35.7245L45.6879 49.4363V81.3913Z" fill="white"/>
<path d="M17.6408 32.8688L16.1641 35.7207L43.3513 49.8882L44.8281 47.0363L17.6408 32.8688Z" fill="white"/>
</g>
<defs>
<clipPath id="clip0_2010_10433">
<rect width="86.3248" height="100" fill="white" transform="translate(0.835938)"/>
</clipPath>
</defs>
</svg>
