<svg width="85" height="90" viewBox="0 0 85 90" fill="none" xmlns="http://www.w3.org/2000/svg">
<g clip-path="url(#clip0_2010_10473)">
<circle cx="42.9859" cy="45.1461" r="40.4" stroke="#272629" stroke-width="2"/>
<mask id="path-2-inside-1_2010_10473" fill="white">
<path d="M54.6344 84.4449C44.5941 84.4449 34.8959 80.8359 27.3455 74.2897C19.7951 67.7436 14.907 58.7065 13.5914 48.861C12.2757 39.0155 14.6221 29.0325 20.1937 20.7708C25.7653 12.509 34.1824 6.53155 43.8779 3.95125L44.4065 5.89445C35.1874 8.34795 27.1839 14.0317 21.8861 21.8874C16.5883 29.7432 14.3572 39.2356 15.6082 48.5973C16.8593 57.959 21.5071 66.552 28.6865 72.7765C35.8659 79.0009 45.0875 82.4326 54.6344 82.4326V84.4449Z"/>
</mask>
<path d="M54.6344 84.4449C44.5941 84.4449 34.8959 80.8359 27.3455 74.2897C19.7951 67.7436 14.907 58.7065 13.5914 48.861C12.2757 39.0155 14.6221 29.0325 20.1937 20.7708C25.7653 12.509 34.1824 6.53155 43.8779 3.95125L44.4065 5.89445C35.1874 8.34795 27.1839 14.0317 21.8861 21.8874C16.5883 29.7432 14.3572 39.2356 15.6082 48.5973C16.8593 57.959 21.5071 66.552 28.6865 72.7765C35.8659 79.0009 45.0875 82.4326 54.6344 82.4326V84.4449Z" stroke="#272629" stroke-width="4" mask="url(#path-2-inside-1_2010_10473)"/>
<mask id="path-3-inside-2_2010_10473" fill="white">
<path d="M21.044 9.75107C29.7593 7.41581 39.1038 8.58647 47.3784 13.0502C55.653 17.5139 62.3081 24.9742 66.1335 34.0745C69.959 43.1749 70.7008 53.3109 68.224 62.6395C65.7473 71.9681 60.2164 79.8697 52.6372 84.9076L51.61 83.1745C58.8167 78.3842 64.0758 70.8709 66.4308 62.0007C68.7859 53.1305 68.0805 43.4926 64.443 34.8395C60.8056 26.1863 54.4775 19.0926 46.6095 14.8483C38.7416 10.6039 29.8563 9.49077 21.5692 11.7113L21.044 9.75107Z"/>
</mask>
<path d="M21.044 9.75107C29.7593 7.41581 39.1038 8.58647 47.3784 13.0502C55.653 17.5139 62.3081 24.9742 66.1335 34.0745C69.959 43.1749 70.7008 53.3109 68.224 62.6395C65.7473 71.9681 60.2164 79.8697 52.6372 84.9076L51.61 83.1745C58.8167 78.3842 64.0758 70.8709 66.4308 62.0007C68.7859 53.1305 68.0805 43.4926 64.443 34.8395C60.8056 26.1863 54.4775 19.0926 46.6095 14.8483C38.7416 10.6039 29.8563 9.49077 21.5692 11.7113L21.044 9.75107Z" stroke="#272629" stroke-width="4" mask="url(#path-3-inside-2_2010_10473)"/>
<mask id="path-4-inside-3_2010_10473" fill="white">
<path d="M61.8123 7.98988C65.8624 13.6697 67.0635 21.0965 65.1973 28.9198C63.3311 36.743 58.5215 44.4433 51.643 50.6203C44.7646 56.7973 36.2741 61.0409 27.7155 62.5793C19.1568 64.1178 9.98834 62.4183 3.89551 58.573L5.13501 57.1728C10.9284 60.8292 19.7009 62.4663 27.839 61.0034C35.977 59.5406 44.0503 55.5056 50.5907 49.6321C57.1312 43.7586 61.7045 36.4368 63.479 28.9979C65.2535 21.5591 64.1113 14.4973 60.2603 9.09657L61.8123 7.98988Z"/>
</mask>
<path d="M61.8123 7.98988L63.4407 6.82872L62.2795 5.20032L60.6511 6.36148L61.8123 7.98988ZM3.89551 58.573L2.39799 57.2473L0.838664 59.0087L2.82807 60.2643L3.89551 58.573ZM5.13501 57.1728L6.20245 55.4815L4.76455 54.574L3.63749 55.8471L5.13501 57.1728ZM60.2603 9.09657L59.0991 7.46816L57.4707 8.62932L58.6319 10.2577L60.2603 9.09657ZM60.1839 9.15104C63.8455 14.2861 65.0067 21.0992 63.2519 28.4557L67.1427 29.3838C69.1203 21.0937 67.8792 13.0533 63.4407 6.82872L60.1839 9.15104ZM63.2519 28.4557C61.4935 35.8268 56.9295 43.1849 50.3067 49.1323L52.9793 52.1084C60.1135 45.7017 65.1686 37.6593 67.1427 29.3838L63.2519 28.4557ZM50.3067 49.1323C43.6865 55.0773 35.5311 59.1424 27.3616 60.6109L28.0693 64.5478C37.0171 62.9394 45.8426 58.5173 52.9793 52.1084L50.3067 49.1323ZM27.3616 60.6109C19.2331 62.072 10.5832 60.4287 4.96295 56.8816L2.82807 60.2643C9.39352 64.4079 19.0805 66.1635 28.0693 64.5478L27.3616 60.6109ZM5.39302 59.8986L6.63252 58.4985L3.63749 55.8471L2.39799 57.2473L5.39302 59.8986ZM4.06757 58.8641C10.332 62.8178 19.6225 64.5125 28.1928 62.9719L27.4851 59.035C19.7794 60.4201 11.5249 58.8406 6.20245 55.4815L4.06757 58.8641ZM28.1928 62.9719C36.72 61.4391 45.1283 57.2256 51.927 51.1202L49.2544 48.1441C42.9723 53.7856 35.2341 57.6421 27.4851 59.035L28.1928 62.9719ZM51.927 51.1202C58.7232 45.0171 63.542 37.353 65.4244 29.462L61.5335 28.5339C59.8669 35.5205 55.5392 42.5002 49.2544 48.1441L51.927 51.1202ZM65.4244 29.462C67.3102 21.5563 66.1282 13.8809 61.8887 7.93541L58.6319 10.2577C62.0945 15.1136 63.1967 21.5618 61.5335 28.5339L65.4244 29.462ZM61.4214 10.725L62.9735 9.61829L60.6511 6.36148L59.0991 7.46816L61.4214 10.725Z" fill="#272629" mask="url(#path-4-inside-3_2010_10473)"/>
<circle cx="63.6359" cy="31.0715" r="1.8" fill="white"/>
<circle cx="18.6359" cy="61.6711" r="1.8" fill="white"/>
<circle cx="33.0344" cy="10.3723" r="1.8" fill="white"/>
</g>
<defs>
<clipPath id="clip0_2010_10473">
<rect width="84.8276" height="90" fill="white"/>
</clipPath>
</defs>
</svg>
