<svg width="475" height="467" viewBox="0 0 475 467" fill="none" xmlns="http://www.w3.org/2000/svg">
<g filter="url(#filter0_b_2007_14083)">
<path d="M209.747 342.803L134.758 299.509V212.875L209.747 256.192V342.803Z" fill="#121314" stroke="white" stroke-opacity="0.3"/>
<path d="M284.757 299.509L209.746 342.803V256.192L284.757 212.875V299.509Z" fill="#121314" stroke="white" stroke-opacity="0.3"/>
<g filter="url(#filter1_b_2007_14083)">
<path d="M209.747 256.192L134.758 212.875L209.747 169.559L284.758 212.875L209.747 256.192Z" fill="#121314"/>
<path d="M209.747 256.192L134.758 212.875L209.747 169.559L284.758 212.875L209.747 256.192Z" stroke="white" stroke-opacity="0.3"/>
</g>
<path d="M295.847 393.673L220.836 350.356V263.723L295.847 307.039V393.673Z" fill="#121314" stroke="white" stroke-opacity="0.3"/>
<path d="M370.859 350.356L295.848 393.673V307.039L370.859 263.723V350.356Z" fill="#121314" stroke="white" stroke-opacity="0.3"/>
<g filter="url(#filter2_b_2007_14083)">
<path d="M295.849 307.041L220.859 263.724L295.849 220.43L370.838 263.724L295.849 307.041Z" fill="#121314"/>
<path d="M295.849 307.041L220.859 263.724L295.849 220.43L370.838 263.724L295.849 307.041Z" stroke="white" stroke-opacity="0.3"/>
</g>
<path d="M124.177 392.628L49.1875 349.311V262.678L124.177 305.995V392.628Z" fill="#121314" stroke="white" stroke-opacity="0.3"/>
<path d="M199.189 349.311L124.178 392.628V305.995L199.189 262.678V349.311Z" fill="#121314" stroke="white" stroke-opacity="0.3"/>
<g filter="url(#filter3_b_2007_14083)">
<path d="M124.177 305.995L49.1875 262.678L124.177 219.361L199.188 262.678L124.177 305.995Z" fill="#121314"/>
<path d="M124.177 305.995L49.1875 262.678L124.177 219.361L199.188 262.678L124.177 305.995Z" stroke="white" stroke-opacity="0.3"/>
</g>
<g filter="url(#filter4_b_2007_14083)">
<path d="M210.279 443.471L135.268 400.154V313.543L210.279 356.837V443.471Z" fill="#121314"/>
<path d="M210.279 443.471L135.268 400.154V313.543L210.279 356.837V443.471Z" stroke="white" stroke-opacity="0.3"/>
</g>
<g filter="url(#filter5_b_2007_14083)">
<path d="M285.27 400.154L210.281 443.471V356.837L285.27 313.543V400.154Z" fill="#121314"/>
<path d="M285.27 400.154L210.281 443.471V356.837L285.27 313.543V400.154Z" stroke="white" stroke-opacity="0.3"/>
</g>
<g filter="url(#filter6_b_2007_14083)">
<path d="M210.279 356.838L135.268 313.521L210.279 270.227L285.268 313.543L210.279 356.838Z" fill="#121314"/>
<path d="M210.279 356.838L135.268 313.521L210.279 270.227L285.268 313.543L210.279 356.838Z" stroke="white" stroke-opacity="0.3"/>
</g>
</g>
<g filter="url(#filter7_b_2007_14083)">
<path d="M209.747 241.763L134.758 198.446V111.812L209.747 155.129V241.763Z" fill="#121314" stroke="white" stroke-opacity="0.3"/>
<path d="M284.759 198.446L209.748 241.763V155.129L284.759 111.812V198.446Z" fill="#121314" stroke="white" stroke-opacity="0.3"/>
<g filter="url(#filter8_b_2007_14083)">
<path d="M209.747 155.129L134.758 111.812L209.747 68.5176L284.758 111.812L209.747 155.129Z" fill="#121314"/>
<path d="M209.747 155.129L134.758 111.812L209.747 68.5176L284.758 111.812L209.747 155.129Z" stroke="white" stroke-opacity="0.3"/>
</g>
<path d="M295.843 292.608L220.832 249.291V162.68L295.843 205.996V292.608Z" fill="#121314" stroke="white" stroke-opacity="0.3"/>
<path d="M370.857 249.291L295.846 292.608V205.996L370.857 162.68V249.291Z" fill="#121314" stroke="white" stroke-opacity="0.3"/>
<g filter="url(#filter9_b_2007_14083)">
<path d="M295.845 205.975L220.855 162.68L295.845 119.363L370.834 162.68L295.845 205.975Z" fill="#121314"/>
<path d="M295.845 205.975L220.855 162.68L295.845 119.363L370.834 162.68L295.845 205.975Z" stroke="white" stroke-opacity="0.3"/>
</g>
<path d="M124.183 291.564L49.1934 248.247V161.613L124.183 204.93V291.564Z" fill="#121314" stroke="white" stroke-opacity="0.3"/>
<path d="M199.195 248.247L124.184 291.564V204.93L199.195 161.613V248.247Z" fill="#121314" stroke="white" stroke-opacity="0.3"/>
<g filter="url(#filter10_b_2007_14083)">
<path d="M124.183 204.93L49.1934 161.613L124.183 118.318L199.194 161.613L124.183 204.93Z" fill="#121314"/>
<path d="M124.183 204.93L49.1934 161.613L124.183 118.318L199.194 161.613L124.183 204.93Z" stroke="white" stroke-opacity="0.3"/>
</g>
<path d="M208.997 340.21L134.008 296.893V210.26L208.997 253.577V340.21Z" fill="#121314" stroke="white" stroke-opacity="0.3"/>
<path d="M284.008 296.893L208.996 340.21V253.577L284.008 210.26V296.893Z" fill="#121314" stroke="white" stroke-opacity="0.3"/>
<g filter="url(#filter11_b_2007_14083)">
<path d="M208.997 253.576L134.008 210.259L208.997 166.965L284.008 210.259L208.997 253.576Z" fill="#121314"/>
<path d="M208.997 253.576L134.008 210.259L208.997 166.965L284.008 210.259L208.997 253.576Z" stroke="white" stroke-opacity="0.3"/>
</g>
</g>
<g filter="url(#filter12_b_2007_14083)">
<path d="M135.32 399.611L210.332 442.928V356.295L135.32 313V399.611Z" fill="#121314"/>
<path d="M135.32 399.611L210.332 442.928V356.295L135.32 313V399.611Z" stroke="white" stroke-opacity="0.3"/>
</g>
<g filter="url(#filter13_b_2007_14083)">
<path d="M370.725 249.193L295.713 292.51V205.877L370.725 162.582V249.193Z" fill="#121314"/>
<path d="M370.725 249.193L295.713 292.51V205.877L370.725 162.582V249.193Z" stroke="white" stroke-opacity="0.3"/>
</g>
<g filter="url(#filter14_b_2007_14083)">
<g filter="url(#filter15_b_2007_14083)">
<path d="M1 422.684L76.0114 466V379.367L1 336.072V422.684Z" fill="url(#paint0_linear_2007_14083)"/>
<path d="M1 422.684L76.0114 466V379.367L1 336.072V422.684Z" stroke="white" stroke-opacity="0.3"/>
</g>
</g>
<g filter="url(#filter16_b_2007_14083)">
<g filter="url(#filter17_b_2007_14083)">
<path d="M387.133 220.998L312.121 264.315V177.681L387.133 134.387V220.998Z" fill="url(#paint1_linear_2007_14083)"/>
<path d="M387.133 220.998L312.121 264.315V177.681L387.133 134.387V220.998Z" stroke="white" stroke-opacity="0.3"/>
</g>
</g>
<g filter="url(#filter18_b_2007_14083)">
<path d="M474.287 379.928L399.276 423.245V336.611L474.287 293.316V379.928Z" fill="url(#paint2_linear_2007_14083)"/>
<path d="M474.287 379.928L399.276 423.245V336.611L474.287 293.316V379.928Z" stroke="white" stroke-opacity="0.3"/>
</g>
<g filter="url(#filter19_b_2007_14083)">
<path d="M210.33 21.6592L285.349 64.9626L210.322 108.279L135.322 64.9648L210.33 21.6592Z" fill="url(#paint3_linear_2007_14083)"/>
<path d="M210.33 21.6592L285.349 64.9626L210.322 108.279L135.322 64.9648L210.33 21.6592Z" stroke="white" stroke-opacity="0.3"/>
</g>
<defs>
<filter id="filter0_b_2007_14083" x="22.0263" y="142.82" width="375.973" height="327.679" filterUnits="userSpaceOnUse" color-interpolation-filters="sRGB">
<feFlood flood-opacity="0" result="BackgroundImageFix"/>
<feGaussianBlur in="BackgroundImageFix" stdDeviation="13.0806"/>
<feComposite in2="SourceAlpha" operator="in" result="effect1_backgroundBlur_2007_14083"/>
<feBlend mode="normal" in="SourceGraphic" in2="effect1_backgroundBlur_2007_14083" result="shape"/>
</filter>
<filter id="filter1_b_2007_14083" x="69.2268" y="104.45" width="281.062" height="216.851" filterUnits="userSpaceOnUse" color-interpolation-filters="sRGB">
<feFlood flood-opacity="0" result="BackgroundImageFix"/>
<feGaussianBlur in="BackgroundImageFix" stdDeviation="32.2655"/>
<feComposite in2="SourceAlpha" operator="in" result="effect1_backgroundBlur_2007_14083"/>
<feBlend mode="normal" in="SourceGraphic" in2="effect1_backgroundBlur_2007_14083" result="shape"/>
</filter>
<filter id="filter2_b_2007_14083" x="155.328" y="155.322" width="281.041" height="216.828" filterUnits="userSpaceOnUse" color-interpolation-filters="sRGB">
<feFlood flood-opacity="0" result="BackgroundImageFix"/>
<feGaussianBlur in="BackgroundImageFix" stdDeviation="32.2655"/>
<feComposite in2="SourceAlpha" operator="in" result="effect1_backgroundBlur_2007_14083"/>
<feBlend mode="normal" in="SourceGraphic" in2="effect1_backgroundBlur_2007_14083" result="shape"/>
</filter>
<filter id="filter3_b_2007_14083" x="-16.3435" y="154.253" width="281.062" height="216.851" filterUnits="userSpaceOnUse" color-interpolation-filters="sRGB">
<feFlood flood-opacity="0" result="BackgroundImageFix"/>
<feGaussianBlur in="BackgroundImageFix" stdDeviation="32.2655"/>
<feComposite in2="SourceAlpha" operator="in" result="effect1_backgroundBlur_2007_14083"/>
<feBlend mode="normal" in="SourceGraphic" in2="effect1_backgroundBlur_2007_14083" result="shape"/>
</filter>
<filter id="filter4_b_2007_14083" x="122.559" y="300.469" width="100.429" height="156.077" filterUnits="userSpaceOnUse" color-interpolation-filters="sRGB">
<feFlood flood-opacity="0" result="BackgroundImageFix"/>
<feGaussianBlur in="BackgroundImageFix" stdDeviation="6.10429"/>
<feComposite in2="SourceAlpha" operator="in" result="effect1_backgroundBlur_2007_14083"/>
<feBlend mode="normal" in="SourceGraphic" in2="effect1_backgroundBlur_2007_14083" result="shape"/>
</filter>
<filter id="filter5_b_2007_14083" x="197.573" y="300.468" width="100.405" height="156.078" filterUnits="userSpaceOnUse" color-interpolation-filters="sRGB">
<feFlood flood-opacity="0" result="BackgroundImageFix"/>
<feGaussianBlur in="BackgroundImageFix" stdDeviation="6.10429"/>
<feComposite in2="SourceAlpha" operator="in" result="effect1_backgroundBlur_2007_14083"/>
<feBlend mode="normal" in="SourceGraphic" in2="effect1_backgroundBlur_2007_14083" result="shape"/>
</filter>
<filter id="filter6_b_2007_14083" x="69.7366" y="205.118" width="281.062" height="216.828" filterUnits="userSpaceOnUse" color-interpolation-filters="sRGB">
<feFlood flood-opacity="0" result="BackgroundImageFix"/>
<feGaussianBlur in="BackgroundImageFix" stdDeviation="32.2655"/>
<feComposite in2="SourceAlpha" operator="in" result="effect1_backgroundBlur_2007_14083"/>
<feBlend mode="normal" in="SourceGraphic" in2="effect1_backgroundBlur_2007_14083" result="shape"/>
</filter>
<filter id="filter7_b_2007_14083" x="22.0321" y="41.7792" width="375.963" height="325.458" filterUnits="userSpaceOnUse" color-interpolation-filters="sRGB">
<feFlood flood-opacity="0" result="BackgroundImageFix"/>
<feGaussianBlur in="BackgroundImageFix" stdDeviation="13.0806"/>
<feComposite in2="SourceAlpha" operator="in" result="effect1_backgroundBlur_2007_14083"/>
<feBlend mode="normal" in="SourceGraphic" in2="effect1_backgroundBlur_2007_14083" result="shape"/>
</filter>
<filter id="filter8_b_2007_14083" x="69.2268" y="3.40942" width="281.062" height="216.828" filterUnits="userSpaceOnUse" color-interpolation-filters="sRGB">
<feFlood flood-opacity="0" result="BackgroundImageFix"/>
<feGaussianBlur in="BackgroundImageFix" stdDeviation="32.2655"/>
<feComposite in2="SourceAlpha" operator="in" result="effect1_backgroundBlur_2007_14083"/>
<feBlend mode="normal" in="SourceGraphic" in2="effect1_backgroundBlur_2007_14083" result="shape"/>
</filter>
<filter id="filter9_b_2007_14083" x="155.324" y="54.2546" width="281.041" height="216.828" filterUnits="userSpaceOnUse" color-interpolation-filters="sRGB">
<feFlood flood-opacity="0" result="BackgroundImageFix"/>
<feGaussianBlur in="BackgroundImageFix" stdDeviation="32.2655"/>
<feComposite in2="SourceAlpha" operator="in" result="effect1_backgroundBlur_2007_14083"/>
<feBlend mode="normal" in="SourceGraphic" in2="effect1_backgroundBlur_2007_14083" result="shape"/>
</filter>
<filter id="filter10_b_2007_14083" x="-16.3377" y="53.2102" width="281.062" height="216.828" filterUnits="userSpaceOnUse" color-interpolation-filters="sRGB">
<feFlood flood-opacity="0" result="BackgroundImageFix"/>
<feGaussianBlur in="BackgroundImageFix" stdDeviation="32.2655"/>
<feComposite in2="SourceAlpha" operator="in" result="effect1_backgroundBlur_2007_14083"/>
<feBlend mode="normal" in="SourceGraphic" in2="effect1_backgroundBlur_2007_14083" result="shape"/>
</filter>
<filter id="filter11_b_2007_14083" x="68.4768" y="101.857" width="281.062" height="216.828" filterUnits="userSpaceOnUse" color-interpolation-filters="sRGB">
<feFlood flood-opacity="0" result="BackgroundImageFix"/>
<feGaussianBlur in="BackgroundImageFix" stdDeviation="32.2655"/>
<feComposite in2="SourceAlpha" operator="in" result="effect1_backgroundBlur_2007_14083"/>
<feBlend mode="normal" in="SourceGraphic" in2="effect1_backgroundBlur_2007_14083" result="shape"/>
</filter>
<filter id="filter12_b_2007_14083" x="122.612" y="299.926" width="100.429" height="156.077" filterUnits="userSpaceOnUse" color-interpolation-filters="sRGB">
<feFlood flood-opacity="0" result="BackgroundImageFix"/>
<feGaussianBlur in="BackgroundImageFix" stdDeviation="6.10429"/>
<feComposite in2="SourceAlpha" operator="in" result="effect1_backgroundBlur_2007_14083"/>
<feBlend mode="normal" in="SourceGraphic" in2="effect1_backgroundBlur_2007_14083" result="shape"/>
</filter>
<filter id="filter13_b_2007_14083" x="283.004" y="149.508" width="100.429" height="156.077" filterUnits="userSpaceOnUse" color-interpolation-filters="sRGB">
<feFlood flood-opacity="0" result="BackgroundImageFix"/>
<feGaussianBlur in="BackgroundImageFix" stdDeviation="6.10429"/>
<feComposite in2="SourceAlpha" operator="in" result="effect1_backgroundBlur_2007_14083"/>
<feBlend mode="normal" in="SourceGraphic" in2="effect1_backgroundBlur_2007_14083" result="shape"/>
</filter>
<filter id="filter14_b_2007_14083" x="-11.7086" y="322.998" width="100.429" height="156.077" filterUnits="userSpaceOnUse" color-interpolation-filters="sRGB">
<feFlood flood-opacity="0" result="BackgroundImageFix"/>
<feGaussianBlur in="BackgroundImageFix" stdDeviation="6.10429"/>
<feComposite in2="SourceAlpha" operator="in" result="effect1_backgroundBlur_2007_14083"/>
<feBlend mode="normal" in="SourceGraphic" in2="effect1_backgroundBlur_2007_14083" result="shape"/>
</filter>
<filter id="filter15_b_2007_14083" x="-11.7086" y="322.998" width="100.429" height="156.077" filterUnits="userSpaceOnUse" color-interpolation-filters="sRGB">
<feFlood flood-opacity="0" result="BackgroundImageFix"/>
<feGaussianBlur in="BackgroundImageFix" stdDeviation="6.10429"/>
<feComposite in2="SourceAlpha" operator="in" result="effect1_backgroundBlur_2007_14083"/>
<feBlend mode="normal" in="SourceGraphic" in2="effect1_backgroundBlur_2007_14083" result="shape"/>
</filter>
<filter id="filter16_b_2007_14083" x="299.413" y="121.312" width="100.429" height="156.077" filterUnits="userSpaceOnUse" color-interpolation-filters="sRGB">
<feFlood flood-opacity="0" result="BackgroundImageFix"/>
<feGaussianBlur in="BackgroundImageFix" stdDeviation="6.10429"/>
<feComposite in2="SourceAlpha" operator="in" result="effect1_backgroundBlur_2007_14083"/>
<feBlend mode="normal" in="SourceGraphic" in2="effect1_backgroundBlur_2007_14083" result="shape"/>
</filter>
<filter id="filter17_b_2007_14083" x="299.413" y="121.312" width="100.429" height="156.077" filterUnits="userSpaceOnUse" color-interpolation-filters="sRGB">
<feFlood flood-opacity="0" result="BackgroundImageFix"/>
<feGaussianBlur in="BackgroundImageFix" stdDeviation="6.10429"/>
<feComposite in2="SourceAlpha" operator="in" result="effect1_backgroundBlur_2007_14083"/>
<feBlend mode="normal" in="SourceGraphic" in2="effect1_backgroundBlur_2007_14083" result="shape"/>
</filter>
<filter id="filter18_b_2007_14083" x="386.567" y="280.242" width="100.429" height="156.077" filterUnits="userSpaceOnUse" color-interpolation-filters="sRGB">
<feFlood flood-opacity="0" result="BackgroundImageFix"/>
<feGaussianBlur in="BackgroundImageFix" stdDeviation="6.10429"/>
<feComposite in2="SourceAlpha" operator="in" result="effect1_backgroundBlur_2007_14083"/>
<feBlend mode="normal" in="SourceGraphic" in2="effect1_backgroundBlur_2007_14083" result="shape"/>
</filter>
<filter id="filter19_b_2007_14083" x="122.114" y="8.87346" width="176.444" height="112.192" filterUnits="userSpaceOnUse" color-interpolation-filters="sRGB">
<feFlood flood-opacity="0" result="BackgroundImageFix"/>
<feGaussianBlur in="BackgroundImageFix" stdDeviation="6.10429"/>
<feComposite in2="SourceAlpha" operator="in" result="effect1_backgroundBlur_2007_14083"/>
<feBlend mode="normal" in="SourceGraphic" in2="effect1_backgroundBlur_2007_14083" result="shape"/>
</filter>
<linearGradient id="paint0_linear_2007_14083" x1="33.5592" y1="336.072" x2="40.0165" y2="465.765" gradientUnits="userSpaceOnUse">
<stop stop-color="#1A1C1E" stop-opacity="0"/>
<stop offset="1" stop-color="#9EE50D"/>
</linearGradient>
<linearGradient id="paint1_linear_2007_14083" x1="354.574" y1="134.387" x2="348.116" y2="264.08" gradientUnits="userSpaceOnUse">
<stop stop-color="#1A1C1E" stop-opacity="0"/>
<stop offset="1" stop-color="#9EE50D"/>
</linearGradient>
<linearGradient id="paint2_linear_2007_14083" x1="441.728" y1="293.316" x2="435.271" y2="423.009" gradientUnits="userSpaceOnUse">
<stop stop-color="#1A1C1E" stop-opacity="0"/>
<stop offset="1" stop-color="#9EE50D"/>
</linearGradient>
<linearGradient id="paint3_linear_2007_14083" x1="151.602" y1="93.1619" x2="267.148" y2="33.9077" gradientUnits="userSpaceOnUse">
<stop stop-color="#1A1C1E" stop-opacity="0"/>
<stop offset="1" stop-color="#9EE50D"/>
</linearGradient>
</defs>
</svg>
