<svg width="509" height="501" viewBox="0 0 509 501" fill="none" xmlns="http://www.w3.org/2000/svg">
<g filter="url(#filter0_b_1918_9400)">
<path d="M255.382 312.09L179.23 268.139V180.191L255.382 224.165V312.09Z" fill="#121314" stroke="white" stroke-opacity="0.3"/>
<path d="M331.555 268.138L255.381 312.089V224.165L331.555 180.191V268.138Z" fill="#121314" stroke="white" stroke-opacity="0.3"/>
<g filter="url(#filter1_b_1918_9400)">
<path d="M255.382 224.165L179.23 180.191L255.382 136.217L331.555 180.191L255.382 224.165Z" fill="#121314"/>
<path d="M255.382 224.165L179.23 180.191L255.382 136.217L331.555 180.191L255.382 224.165Z" stroke="white" stroke-opacity="0.3"/>
</g>
<path d="M342.818 363.726L266.645 319.753V231.805L342.818 275.779V363.726Z" fill="#121314" stroke="white" stroke-opacity="0.3"/>
<path d="M418.992 319.753L342.818 363.726V275.779L418.992 231.805V319.753Z" fill="#121314" stroke="white" stroke-opacity="0.3"/>
<g filter="url(#filter2_b_1918_9400)">
<path d="M342.819 275.78L266.668 231.806L342.819 187.855L418.97 231.806L342.819 275.78Z" fill="#121314"/>
<path d="M342.819 275.78L266.668 231.806L342.819 187.855L418.97 231.806L342.819 275.78Z" stroke="white" stroke-opacity="0.3"/>
</g>
<path d="M168.495 362.668L92.3439 318.694V230.747L168.495 274.721V362.668Z" fill="#121314" stroke="white" stroke-opacity="0.3"/>
<path d="M244.668 318.694L168.494 362.668V274.721L244.668 230.747V318.694Z" fill="#121314" stroke="white" stroke-opacity="0.3"/>
<g filter="url(#filter3_b_1918_9400)">
<path d="M168.495 274.721L92.3438 230.747L168.495 186.773L244.669 230.747L168.495 274.721Z" fill="#121314"/>
<path d="M168.495 274.721L92.3438 230.747L168.495 186.773L244.669 230.747L168.495 274.721Z" stroke="white" stroke-opacity="0.3"/>
</g>
<g filter="url(#filter4_b_1918_9400)">
<path d="M255.928 414.283L179.754 370.31V282.385L255.928 326.336V414.283Z" fill="#121314"/>
<path d="M255.928 414.283L179.754 370.31V282.385L255.928 326.336V414.283Z" stroke="white" stroke-opacity="0.3"/>
</g>
<g filter="url(#filter5_b_1918_9400)">
<path d="M332.081 370.31L255.93 414.283V326.336L332.081 282.385V370.31Z" fill="#121314"/>
<path d="M332.081 370.31L255.93 414.283V326.336L332.081 282.385V370.31Z" stroke="white" stroke-opacity="0.3"/>
</g>
<g filter="url(#filter6_b_1918_9400)">
<path d="M255.928 326.336L179.754 282.362L255.928 238.411L332.079 282.385L255.928 326.336Z" fill="#121314"/>
<path d="M255.928 326.336L179.754 282.362L255.928 238.411L332.079 282.385L255.928 326.336Z" stroke="white" stroke-opacity="0.3"/>
</g>
</g>
<g filter="url(#filter7_b_1918_9400)">
<path d="M255.383 209.516L179.232 165.543V77.5952L255.383 121.569V209.516Z" fill="#121314" stroke="white" stroke-opacity="0.3"/>
<path d="M331.556 165.543L255.383 209.516V121.569L331.556 77.5952V165.543Z" fill="#121314" stroke="white" stroke-opacity="0.3"/>
<g filter="url(#filter8_b_1918_9400)">
<path d="M255.383 121.568L179.232 77.5942L255.383 33.6431L331.557 77.5942L255.383 121.568Z" fill="#121314"/>
<path d="M255.383 121.568L179.232 77.5942L255.383 33.6431L331.557 77.5942L255.383 121.568Z" stroke="white" stroke-opacity="0.3"/>
</g>
<path d="M342.816 261.131L266.642 217.157V129.232L342.816 173.206V261.131Z" fill="#121314" stroke="white" stroke-opacity="0.3"/>
<path d="M418.988 217.157L342.814 261.131V173.206L418.988 129.232V217.157Z" fill="#121314" stroke="white" stroke-opacity="0.3"/>
<g filter="url(#filter9_b_1918_9400)">
<path d="M342.817 173.183L266.666 129.232L342.817 85.2583L418.968 129.232L342.817 173.183Z" fill="#121314"/>
<path d="M342.817 173.183L266.666 129.232L342.817 85.2583L418.968 129.232L342.817 173.183Z" stroke="white" stroke-opacity="0.3"/>
</g>
<path d="M168.497 260.073L92.3457 216.099V128.152L168.497 172.126V260.073Z" fill="#121314" stroke="white" stroke-opacity="0.3"/>
<path d="M244.67 216.099L168.496 260.073V172.126L244.67 128.152V216.099Z" fill="#121314" stroke="white" stroke-opacity="0.3"/>
<g filter="url(#filter10_b_1918_9400)">
<path d="M168.497 172.124L92.3457 128.151L168.497 84.1997L244.671 128.151L168.497 172.124Z" fill="#121314"/>
<path d="M168.497 172.124L92.3457 128.151L168.497 84.1997L244.671 128.151L168.497 172.124Z" stroke="white" stroke-opacity="0.3"/>
</g>
<path d="M254.632 309.456L178.48 265.483V177.535L254.632 221.509V309.456Z" fill="#121314" stroke="white" stroke-opacity="0.3"/>
<path d="M330.805 265.483L254.631 309.456V221.509L330.805 177.535V265.483Z" fill="#121314" stroke="white" stroke-opacity="0.3"/>
<g filter="url(#filter11_b_1918_9400)">
<path d="M254.632 221.509L178.48 177.535L254.632 133.584L330.805 177.535L254.632 221.509Z" fill="#121314"/>
<path d="M254.632 221.509L178.48 177.535L254.632 133.584L330.805 177.535L254.632 221.509Z" stroke="white" stroke-opacity="0.3"/>
</g>
</g>
<g filter="url(#filter12_b_1918_9400)">
<path d="M179.811 369.759L255.984 413.732V325.785L179.811 281.834V369.759Z" fill="#121314"/>
<path d="M179.811 369.759L255.984 413.732V325.785L179.811 281.834V369.759Z" stroke="white" stroke-opacity="0.3"/>
</g>
<g filter="url(#filter13_b_1918_9400)">
<path d="M418.861 217.06L342.688 261.034V173.086L418.861 129.135V217.06Z" fill="#121314"/>
<path d="M418.861 217.06L342.688 261.034V173.086L418.861 129.135V217.06Z" stroke="white" stroke-opacity="0.3"/>
</g>
<g filter="url(#filter14_b_1918_9400)">
<path d="M252.668 133.473L176.483 177.441L252.669 221.411L328.834 177.431L252.668 133.473Z" fill="#121314"/>
<path d="M252.668 133.473L176.483 177.441L252.669 221.411L328.834 177.431L252.668 133.473Z" stroke="white" stroke-opacity="0.3"/>
</g>
<path fill-rule="evenodd" clip-rule="evenodd" d="M226.824 161.3C240.876 154.458 263.693 154.457 277.744 161.296C291.796 168.136 291.795 179.243 277.743 186.084C263.69 192.927 240.873 192.928 226.822 186.088C212.77 179.249 212.771 168.142 226.824 161.3Z" stroke="white" stroke-opacity="0.3"/>
<path fill-rule="evenodd" clip-rule="evenodd" d="M219.306 180.743C221.053 178.803 223.558 176.984 226.821 175.395C240.874 168.554 263.691 168.553 277.743 175.391C281.005 176.979 283.51 178.798 285.257 180.738C283.51 182.678 281.005 184.497 277.742 186.085C263.689 192.927 240.872 192.929 226.82 186.089C223.558 184.502 221.053 182.683 219.306 180.743Z" fill="#121314" stroke="white" stroke-opacity="0.3"/>
<path fill-rule="evenodd" clip-rule="evenodd" d="M219.673 180.873C221.42 178.933 223.925 177.114 227.188 175.525C241.241 168.684 264.058 168.683 278.11 175.521C281.372 177.109 283.877 178.928 285.624 180.868C283.877 182.808 281.372 184.627 278.109 186.215C264.056 193.057 241.239 193.058 227.187 186.219C223.925 184.632 221.42 182.813 219.673 180.873Z" stroke="white" stroke-opacity="0.3"/>
<path fill-rule="evenodd" clip-rule="evenodd" d="M219.284 181.459C221.052 179.6 175.859 65.9362 175.859 65.9362L328.144 65.9239C328.144 65.9239 284.257 179.595 286.024 181.454C284.256 183.313 281.721 185.055 278.419 186.577C264.199 193.132 241.108 193.134 226.888 186.581C223.587 185.06 221.052 183.318 219.284 181.459Z" fill="url(#paint0_linear_1918_9400)"/>
<g filter="url(#filter15_b_1918_9400)">
<path d="M332.448 370.486L332.449 282.548L256.263 326.518L256.281 414.444L332.448 370.486Z" fill="#121314"/>
<path d="M332.448 370.486L332.449 282.548L256.263 326.518L256.281 414.444L332.448 370.486Z" stroke="white" stroke-opacity="0.3"/>
</g>
<path fill-rule="evenodd" clip-rule="evenodd" d="M321.264 334.203C320.166 349.789 308.759 369.543 295.806 378.286C282.852 387.029 273.227 381.473 274.324 365.887C275.421 350.3 286.829 330.547 299.782 321.804C312.735 313.06 322.361 318.616 321.264 334.203Z" stroke="white" stroke-opacity="0.3"/>
<path fill-rule="evenodd" clip-rule="evenodd" d="M308.173 317.973C308.982 320.456 309.306 323.534 309.051 327.154C307.953 342.74 296.546 362.494 283.592 371.238C280.584 373.268 277.755 374.527 275.201 375.068C274.393 372.586 274.069 369.507 274.324 365.888C275.421 350.301 286.829 330.547 299.783 321.804C302.79 319.774 305.619 318.515 308.173 317.973Z" fill="#121314" stroke="white" stroke-opacity="0.3"/>
<path fill-rule="evenodd" clip-rule="evenodd" d="M307.88 318.223C308.689 320.706 309.013 323.784 308.758 327.404C307.66 342.99 296.253 362.744 283.299 371.488C280.291 373.518 277.463 374.777 274.908 375.318C274.1 372.836 273.776 369.757 274.031 366.138C275.128 350.551 286.536 330.797 299.49 322.054C302.497 320.024 305.326 318.765 307.88 318.223Z" stroke="white" stroke-opacity="0.3"/>
<path fill-rule="evenodd" clip-rule="evenodd" d="M307.553 317.591C308.28 320.051 429.371 337.77 429.371 337.77L353.238 469.605C353.238 469.605 276.681 374.769 274.187 375.369C273.46 372.909 273.217 369.843 273.55 366.224C274.98 350.635 286.524 330.645 299.312 321.613C302.281 319.515 305.059 318.192 307.553 317.591Z" fill="url(#paint1_linear_1918_9400)"/>
<g filter="url(#filter16_b_1918_9400)">
<path d="M179.97 370.486L179.969 282.548L256.155 326.518L256.137 414.444L179.97 370.486Z" fill="#121314"/>
<path d="M179.97 370.486L179.969 282.548L256.155 326.518L256.137 414.444L179.97 370.486Z" stroke="white" stroke-opacity="0.3"/>
</g>
<path fill-rule="evenodd" clip-rule="evenodd" d="M191.152 334.202C192.25 349.789 203.657 369.542 216.61 378.286C229.564 387.029 239.189 381.473 238.092 365.886C236.995 350.3 225.587 330.546 212.634 321.803C199.681 313.06 190.055 318.616 191.152 334.202Z" stroke="white" stroke-opacity="0.3"/>
<path fill-rule="evenodd" clip-rule="evenodd" d="M204.243 317.973C203.434 320.455 203.11 323.534 203.365 327.153C204.463 342.74 215.87 362.494 228.824 371.237C231.832 373.267 234.661 374.526 237.215 375.068C238.023 372.585 238.347 369.506 238.092 365.888C236.995 350.301 225.587 330.547 212.633 321.804C209.626 319.773 206.797 318.514 204.243 317.973Z" fill="#121314" stroke="white" stroke-opacity="0.3"/>
<path fill-rule="evenodd" clip-rule="evenodd" d="M204.536 318.223C203.727 320.705 203.403 323.784 203.658 327.403C204.756 342.99 216.163 362.744 229.117 371.487C232.125 373.517 234.954 374.776 237.508 375.318C238.316 372.835 238.64 369.756 238.385 366.138C237.288 350.551 225.88 330.797 212.926 322.054C209.919 320.023 207.09 318.764 204.536 318.223Z" stroke="white" stroke-opacity="0.3"/>
<path fill-rule="evenodd" clip-rule="evenodd" d="M204.863 317.591C204.136 320.051 83.0451 337.77 83.0451 337.77L159.178 469.605C159.178 469.605 235.735 374.768 238.229 375.369C238.956 372.909 239.199 369.842 238.866 366.223C237.436 350.635 225.892 330.645 213.104 321.612C210.135 319.514 207.357 318.191 204.863 317.591Z" fill="url(#paint2_linear_1918_9400)"/>
<g filter="url(#filter17_b_1918_9400)">
<path d="M91.9781 216.112L91.9772 128.174L168.163 172.144L168.145 260.07L91.9781 216.112Z" fill="#121314"/>
<path d="M91.9781 216.112L91.9772 128.174L168.163 172.144L168.145 260.07L91.9781 216.112Z" stroke="white" stroke-opacity="0.3"/>
</g>
<path fill-rule="evenodd" clip-rule="evenodd" d="M103.16 179.828C104.257 195.414 115.665 215.168 128.618 223.911C141.571 232.654 151.197 227.098 150.1 211.512C149.003 195.925 137.595 176.172 124.642 167.429C111.689 158.685 102.063 164.241 103.16 179.828Z" stroke="white" stroke-opacity="0.3"/>
<path fill-rule="evenodd" clip-rule="evenodd" d="M116.25 163.598C115.442 166.08 115.118 169.159 115.373 172.778C116.47 188.365 127.878 208.119 140.832 216.862C143.839 218.892 146.668 220.151 149.223 220.693C150.031 218.21 150.355 215.132 150.1 211.513C149.003 195.926 137.595 176.172 124.641 167.429C121.634 165.398 118.805 164.139 116.25 163.598Z" fill="#121314" stroke="white" stroke-opacity="0.3"/>
<path fill-rule="evenodd" clip-rule="evenodd" d="M116.547 163.848C115.739 166.33 115.415 169.409 115.67 173.028C116.767 188.615 128.175 208.369 141.128 217.112C144.136 219.142 146.965 220.401 149.52 220.943C150.328 218.46 150.652 215.382 150.397 211.763C149.3 196.176 137.892 176.422 124.938 167.679C121.931 165.648 119.102 164.389 116.547 163.848Z" stroke="white" stroke-opacity="0.3"/>
<path fill-rule="evenodd" clip-rule="evenodd" d="M116.873 163.216C116.146 165.676 -4.94517 183.395 -4.94517 183.395L71.1882 315.23C71.1882 315.23 147.745 220.394 150.239 220.994C150.966 218.534 151.209 215.468 150.876 211.849C149.446 196.26 137.902 176.27 125.113 167.238C122.145 165.14 119.367 163.817 116.873 163.216Z" fill="url(#paint3_linear_1918_9400)"/>
<g filter="url(#filter18_b_1918_9400)">
<path d="M418.553 217.154L418.554 129.216L342.368 173.186L342.387 261.112L418.553 217.154Z" fill="#121314"/>
<path d="M418.553 217.154L418.554 129.216L342.368 173.186L342.387 261.112L418.553 217.154Z" stroke="white" stroke-opacity="0.3"/>
</g>
<path fill-rule="evenodd" clip-rule="evenodd" d="M407.367 180.87C406.27 196.456 394.862 216.21 381.909 224.953C368.956 233.696 359.33 228.14 360.428 212.554C361.525 196.967 372.932 177.214 385.886 168.471C398.839 159.727 408.464 165.283 407.367 180.87Z" stroke="white" stroke-opacity="0.3"/>
<path fill-rule="evenodd" clip-rule="evenodd" d="M394.277 164.64C395.085 167.123 395.409 170.202 395.154 173.821C394.057 189.408 382.649 209.161 369.696 217.905C366.688 219.935 363.859 221.194 361.304 221.736C360.496 219.253 360.172 216.174 360.427 212.555C361.524 196.968 372.932 177.214 385.886 168.471C388.893 166.441 391.722 165.182 394.277 164.64Z" fill="#121314" stroke="white" stroke-opacity="0.3"/>
<path fill-rule="evenodd" clip-rule="evenodd" d="M393.984 164.89C394.792 167.373 395.116 170.452 394.861 174.071C393.764 189.658 382.356 209.411 369.403 218.155C366.395 220.185 363.566 221.444 361.011 221.986C360.203 219.503 359.879 216.424 360.134 212.805C361.231 197.218 372.639 177.464 385.593 168.721C388.6 166.691 391.429 165.432 393.984 164.89Z" stroke="white" stroke-opacity="0.3"/>
<path fill-rule="evenodd" clip-rule="evenodd" d="M393.657 164.258C394.384 166.718 515.474 184.437 515.474 184.437L439.341 316.272C439.341 316.272 362.785 221.436 360.29 222.036C359.563 219.576 359.321 216.51 359.653 212.891C361.084 197.302 372.628 177.312 385.416 168.28C388.385 166.182 391.162 164.859 393.657 164.258Z" fill="url(#paint4_linear_1918_9400)"/>
<defs>
<filter id="filter0_b_1918_9400" x="65.1826" y="109.479" width="380.949" height="331.832" filterUnits="userSpaceOnUse" color-interpolation-filters="sRGB">
<feFlood flood-opacity="0" result="BackgroundImageFix"/>
<feGaussianBlur in="BackgroundImageFix" stdDeviation="13.0806"/>
<feComposite in2="SourceAlpha" operator="in" result="effect1_backgroundBlur_1918_9400"/>
<feBlend mode="normal" in="SourceGraphic" in2="effect1_backgroundBlur_1918_9400" result="shape"/>
</filter>
<filter id="filter1_b_1918_9400" x="113.7" y="71.1089" width="283.387" height="218.164" filterUnits="userSpaceOnUse" color-interpolation-filters="sRGB">
<feFlood flood-opacity="0" result="BackgroundImageFix"/>
<feGaussianBlur in="BackgroundImageFix" stdDeviation="32.2655"/>
<feComposite in2="SourceAlpha" operator="in" result="effect1_backgroundBlur_1918_9400"/>
<feBlend mode="normal" in="SourceGraphic" in2="effect1_backgroundBlur_1918_9400" result="shape"/>
</filter>
<filter id="filter2_b_1918_9400" x="201.137" y="122.747" width="283.365" height="218.142" filterUnits="userSpaceOnUse" color-interpolation-filters="sRGB">
<feFlood flood-opacity="0" result="BackgroundImageFix"/>
<feGaussianBlur in="BackgroundImageFix" stdDeviation="32.2655"/>
<feComposite in2="SourceAlpha" operator="in" result="effect1_backgroundBlur_1918_9400"/>
<feBlend mode="normal" in="SourceGraphic" in2="effect1_backgroundBlur_1918_9400" result="shape"/>
</filter>
<filter id="filter3_b_1918_9400" x="26.8129" y="121.665" width="283.387" height="218.164" filterUnits="userSpaceOnUse" color-interpolation-filters="sRGB">
<feFlood flood-opacity="0" result="BackgroundImageFix"/>
<feGaussianBlur in="BackgroundImageFix" stdDeviation="32.2655"/>
<feComposite in2="SourceAlpha" operator="in" result="effect1_backgroundBlur_1918_9400"/>
<feBlend mode="normal" in="SourceGraphic" in2="effect1_backgroundBlur_1918_9400" result="shape"/>
</filter>
<filter id="filter4_b_1918_9400" x="167.045" y="269.311" width="101.591" height="158.047" filterUnits="userSpaceOnUse" color-interpolation-filters="sRGB">
<feFlood flood-opacity="0" result="BackgroundImageFix"/>
<feGaussianBlur in="BackgroundImageFix" stdDeviation="6.10429"/>
<feComposite in2="SourceAlpha" operator="in" result="effect1_backgroundBlur_1918_9400"/>
<feBlend mode="normal" in="SourceGraphic" in2="effect1_backgroundBlur_1918_9400" result="shape"/>
</filter>
<filter id="filter5_b_1918_9400" x="243.221" y="269.31" width="101.568" height="158.048" filterUnits="userSpaceOnUse" color-interpolation-filters="sRGB">
<feFlood flood-opacity="0" result="BackgroundImageFix"/>
<feGaussianBlur in="BackgroundImageFix" stdDeviation="6.10429"/>
<feComposite in2="SourceAlpha" operator="in" result="effect1_backgroundBlur_1918_9400"/>
<feBlend mode="normal" in="SourceGraphic" in2="effect1_backgroundBlur_1918_9400" result="shape"/>
</filter>
<filter id="filter6_b_1918_9400" x="114.223" y="173.303" width="283.387" height="218.141" filterUnits="userSpaceOnUse" color-interpolation-filters="sRGB">
<feFlood flood-opacity="0" result="BackgroundImageFix"/>
<feGaussianBlur in="BackgroundImageFix" stdDeviation="32.2655"/>
<feComposite in2="SourceAlpha" operator="in" result="effect1_backgroundBlur_1918_9400"/>
<feBlend mode="normal" in="SourceGraphic" in2="effect1_backgroundBlur_1918_9400" result="shape"/>
</filter>
<filter id="filter7_b_1918_9400" x="65.1845" y="6.90445" width="380.945" height="329.579" filterUnits="userSpaceOnUse" color-interpolation-filters="sRGB">
<feFlood flood-opacity="0" result="BackgroundImageFix"/>
<feGaussianBlur in="BackgroundImageFix" stdDeviation="13.0806"/>
<feComposite in2="SourceAlpha" operator="in" result="effect1_backgroundBlur_1918_9400"/>
<feBlend mode="normal" in="SourceGraphic" in2="effect1_backgroundBlur_1918_9400" result="shape"/>
</filter>
<filter id="filter8_b_1918_9400" x="113.701" y="-31.4653" width="283.387" height="218.142" filterUnits="userSpaceOnUse" color-interpolation-filters="sRGB">
<feFlood flood-opacity="0" result="BackgroundImageFix"/>
<feGaussianBlur in="BackgroundImageFix" stdDeviation="32.2655"/>
<feComposite in2="SourceAlpha" operator="in" result="effect1_backgroundBlur_1918_9400"/>
<feBlend mode="normal" in="SourceGraphic" in2="effect1_backgroundBlur_1918_9400" result="shape"/>
</filter>
<filter id="filter9_b_1918_9400" x="201.135" y="20.1499" width="283.364" height="218.142" filterUnits="userSpaceOnUse" color-interpolation-filters="sRGB">
<feFlood flood-opacity="0" result="BackgroundImageFix"/>
<feGaussianBlur in="BackgroundImageFix" stdDeviation="32.2655"/>
<feComposite in2="SourceAlpha" operator="in" result="effect1_backgroundBlur_1918_9400"/>
<feBlend mode="normal" in="SourceGraphic" in2="effect1_backgroundBlur_1918_9400" result="shape"/>
</filter>
<filter id="filter10_b_1918_9400" x="26.8147" y="19.0913" width="283.387" height="218.142" filterUnits="userSpaceOnUse" color-interpolation-filters="sRGB">
<feFlood flood-opacity="0" result="BackgroundImageFix"/>
<feGaussianBlur in="BackgroundImageFix" stdDeviation="32.2655"/>
<feComposite in2="SourceAlpha" operator="in" result="effect1_backgroundBlur_1918_9400"/>
<feBlend mode="normal" in="SourceGraphic" in2="effect1_backgroundBlur_1918_9400" result="shape"/>
</filter>
<filter id="filter11_b_1918_9400" x="112.949" y="68.4756" width="283.387" height="218.142" filterUnits="userSpaceOnUse" color-interpolation-filters="sRGB">
<feFlood flood-opacity="0" result="BackgroundImageFix"/>
<feGaussianBlur in="BackgroundImageFix" stdDeviation="32.2655"/>
<feComposite in2="SourceAlpha" operator="in" result="effect1_backgroundBlur_1918_9400"/>
<feBlend mode="normal" in="SourceGraphic" in2="effect1_backgroundBlur_1918_9400" result="shape"/>
</filter>
<filter id="filter12_b_1918_9400" x="167.102" y="268.76" width="101.591" height="158.047" filterUnits="userSpaceOnUse" color-interpolation-filters="sRGB">
<feFlood flood-opacity="0" result="BackgroundImageFix"/>
<feGaussianBlur in="BackgroundImageFix" stdDeviation="6.10429"/>
<feComposite in2="SourceAlpha" operator="in" result="effect1_backgroundBlur_1918_9400"/>
<feBlend mode="normal" in="SourceGraphic" in2="effect1_backgroundBlur_1918_9400" result="shape"/>
</filter>
<filter id="filter13_b_1918_9400" x="329.979" y="116.061" width="101.591" height="158.047" filterUnits="userSpaceOnUse" color-interpolation-filters="sRGB">
<feFlood flood-opacity="0" result="BackgroundImageFix"/>
<feGaussianBlur in="BackgroundImageFix" stdDeviation="6.10429"/>
<feComposite in2="SourceAlpha" operator="in" result="effect1_backgroundBlur_1918_9400"/>
<feBlend mode="normal" in="SourceGraphic" in2="effect1_backgroundBlur_1918_9400" result="shape"/>
</filter>
<filter id="filter14_b_1918_9400" x="163.274" y="120.687" width="178.769" height="113.51" filterUnits="userSpaceOnUse" color-interpolation-filters="sRGB">
<feFlood flood-opacity="0" result="BackgroundImageFix"/>
<feGaussianBlur in="BackgroundImageFix" stdDeviation="6.10429"/>
<feComposite in2="SourceAlpha" operator="in" result="effect1_backgroundBlur_1918_9400"/>
<feBlend mode="normal" in="SourceGraphic" in2="effect1_backgroundBlur_1918_9400" result="shape"/>
</filter>
<filter id="filter15_b_1918_9400" x="243.554" y="269.473" width="101.603" height="158.045" filterUnits="userSpaceOnUse" color-interpolation-filters="sRGB">
<feFlood flood-opacity="0" result="BackgroundImageFix"/>
<feGaussianBlur in="BackgroundImageFix" stdDeviation="6.10429"/>
<feComposite in2="SourceAlpha" operator="in" result="effect1_backgroundBlur_1918_9400"/>
<feBlend mode="normal" in="SourceGraphic" in2="effect1_backgroundBlur_1918_9400" result="shape"/>
</filter>
<filter id="filter16_b_1918_9400" x="167.261" y="269.473" width="101.603" height="158.045" filterUnits="userSpaceOnUse" color-interpolation-filters="sRGB">
<feFlood flood-opacity="0" result="BackgroundImageFix"/>
<feGaussianBlur in="BackgroundImageFix" stdDeviation="6.10429"/>
<feComposite in2="SourceAlpha" operator="in" result="effect1_backgroundBlur_1918_9400"/>
<feBlend mode="normal" in="SourceGraphic" in2="effect1_backgroundBlur_1918_9400" result="shape"/>
</filter>
<filter id="filter17_b_1918_9400" x="79.2686" y="115.1" width="101.603" height="158.045" filterUnits="userSpaceOnUse" color-interpolation-filters="sRGB">
<feFlood flood-opacity="0" result="BackgroundImageFix"/>
<feGaussianBlur in="BackgroundImageFix" stdDeviation="6.10429"/>
<feComposite in2="SourceAlpha" operator="in" result="effect1_backgroundBlur_1918_9400"/>
<feBlend mode="normal" in="SourceGraphic" in2="effect1_backgroundBlur_1918_9400" result="shape"/>
</filter>
<filter id="filter18_b_1918_9400" x="329.659" y="116.142" width="101.603" height="158.045" filterUnits="userSpaceOnUse" color-interpolation-filters="sRGB">
<feFlood flood-opacity="0" result="BackgroundImageFix"/>
<feGaussianBlur in="BackgroundImageFix" stdDeviation="6.10429"/>
<feComposite in2="SourceAlpha" operator="in" result="effect1_backgroundBlur_1918_9400"/>
<feBlend mode="normal" in="SourceGraphic" in2="effect1_backgroundBlur_1918_9400" result="shape"/>
</filter>
<linearGradient id="paint0_linear_1918_9400" x1="241.959" y1="65.9308" x2="244.946" y2="191.507" gradientUnits="userSpaceOnUse">
<stop stop-color="#1A1C1E" stop-opacity="0"/>
<stop offset="1" stop-color="#4500DF"/>
</linearGradient>
<linearGradient id="paint1_linear_1918_9400" x1="396.325" y1="394.994" x2="286.035" y2="334.744" gradientUnits="userSpaceOnUse">
<stop stop-color="#1A1C1E" stop-opacity="0"/>
<stop offset="1" stop-color="#4500DF"/>
</linearGradient>
<linearGradient id="paint2_linear_1918_9400" x1="116.091" y1="394.994" x2="226.381" y2="334.743" gradientUnits="userSpaceOnUse">
<stop stop-color="#1A1C1E" stop-opacity="0"/>
<stop offset="1" stop-color="#4500DF"/>
</linearGradient>
<linearGradient id="paint3_linear_1918_9400" x1="28.1009" y1="240.619" x2="138.391" y2="180.369" gradientUnits="userSpaceOnUse">
<stop stop-color="#1A1C1E" stop-opacity="0"/>
<stop offset="1" stop-color="#4500DF"/>
</linearGradient>
<linearGradient id="paint4_linear_1918_9400" x1="482.428" y1="241.661" x2="372.138" y2="181.411" gradientUnits="userSpaceOnUse">
<stop stop-color="#1A1C1E" stop-opacity="0"/>
<stop offset="1" stop-color="#4500DF"/>
</linearGradient>
</defs>
</svg>
