<svg width="432" height="466" viewBox="0 0 432 466" fill="none" xmlns="http://www.w3.org/2000/svg">
<g clip-path="url(#clip0_1918_9538)">
<g filter="url(#filter0_b_1918_9538)">
<path d="M221.177 303.45L137.184 256.781V163.396L221.177 210.089V303.45Z" fill="#121314" stroke="white" stroke-opacity="0.3"/>
<path d="M305.198 256.782L221.18 303.45V210.089L305.198 163.396V256.782Z" fill="#121314" stroke="white" stroke-opacity="0.3"/>
<g filter="url(#filter1_b_1918_9538)">
<path d="M221.177 210.089L137.184 163.396L221.177 116.704L305.195 163.396L221.177 210.089Z" fill="#121314"/>
<path d="M221.177 210.089L137.184 163.396L221.177 116.704L305.195 163.396L221.177 210.089Z" stroke="white" stroke-opacity="0.3"/>
</g>
<path d="M317.616 358.283L233.598 311.59V218.205L317.616 264.898V358.283Z" fill="#121314" stroke="white" stroke-opacity="0.3"/>
<path d="M401.636 311.591L317.617 358.283V264.898L401.636 218.206V311.591Z" fill="#121314" stroke="white" stroke-opacity="0.3"/>
<g filter="url(#filter2_b_1918_9538)">
<path d="M317.616 264.899L233.623 218.206L317.616 171.538L401.61 218.206L317.616 264.899Z" fill="#121314"/>
<path d="M317.616 264.899L233.623 218.206L317.616 171.538L401.61 218.206L317.616 264.899Z" stroke="white" stroke-opacity="0.3"/>
</g>
<path d="M125.341 357.159L41.3479 310.466V217.081L125.341 263.773V357.159Z" fill="#121314" stroke="white" stroke-opacity="0.3"/>
<path d="M209.362 310.466L125.344 357.159V263.773L209.362 217.081V310.466Z" fill="#121314" stroke="white" stroke-opacity="0.3"/>
<g filter="url(#filter3_b_1918_9538)">
<path d="M125.341 263.773L41.3477 217.08L125.341 170.388L209.359 217.08L125.341 263.773Z" fill="#121314"/>
<path d="M125.341 263.773L41.3477 217.08L125.341 170.388L209.359 217.08L125.341 263.773Z" stroke="white" stroke-opacity="0.3"/>
</g>
<g filter="url(#filter4_b_1918_9538)">
<path d="M221.772 411.962L137.754 365.27V271.908L221.772 318.577V411.962Z" fill="#121314"/>
<path d="M221.772 411.962L137.754 365.27V271.908L221.772 318.577V411.962Z" stroke="white" stroke-opacity="0.3"/>
</g>
<g filter="url(#filter5_b_1918_9538)">
<path d="M305.767 365.27L221.773 411.962V318.577L305.767 271.908V365.27Z" fill="#121314"/>
<path d="M305.767 365.27L221.773 411.962V318.577L305.767 271.908V365.27Z" stroke="white" stroke-opacity="0.3"/>
</g>
<g filter="url(#filter6_b_1918_9538)">
<path d="M221.772 318.577L137.754 271.885L221.772 225.216L305.766 271.909L221.772 318.577Z" fill="#121314"/>
<path d="M221.772 318.577L137.754 271.885L221.772 225.216L305.766 271.909L221.772 318.577Z" stroke="white" stroke-opacity="0.3"/>
</g>
</g>
<g filter="url(#filter7_b_1918_9538)">
<path d="M221.177 194.535L137.184 147.843V54.4574L221.177 101.15V194.535Z" fill="#121314" stroke="white" stroke-opacity="0.3"/>
<path d="M305.198 147.842L221.18 194.534V101.149L305.198 54.4565V147.842Z" fill="#121314" stroke="white" stroke-opacity="0.3"/>
<g filter="url(#filter8_b_1918_9538)">
<path d="M221.177 101.149L137.184 54.4566L221.177 7.78809L305.195 54.4566L221.177 101.149Z" fill="#121314"/>
<path d="M221.177 101.149L137.184 54.4566L221.177 7.78809L305.195 54.4566L221.177 101.149Z" stroke="white" stroke-opacity="0.3"/>
</g>
<path d="M317.612 249.34L233.594 202.647V109.286L317.612 155.979V249.34Z" fill="#121314" stroke="white" stroke-opacity="0.3"/>
<path d="M401.632 202.648L317.614 249.34V155.979L401.632 109.286V202.648Z" fill="#121314" stroke="white" stroke-opacity="0.3"/>
<g filter="url(#filter9_b_1918_9538)">
<path d="M317.613 155.955L233.619 109.287L317.613 62.5942L401.606 109.287L317.613 155.955Z" fill="#121314"/>
<path d="M317.613 155.955L233.619 109.287L317.613 62.5942L401.606 109.287L317.613 155.955Z" stroke="white" stroke-opacity="0.3"/>
</g>
<path d="M125.341 248.215L41.3479 201.523V108.138L125.341 154.83V248.215Z" fill="#121314" stroke="white" stroke-opacity="0.3"/>
<path d="M209.358 201.522L125.34 248.215V154.829L209.358 108.137V201.522Z" fill="#121314" stroke="white" stroke-opacity="0.3"/>
<g filter="url(#filter10_b_1918_9538)">
<path d="M125.341 154.83L41.3477 108.137L125.341 61.4684L209.359 108.137L125.341 154.83Z" fill="#121314"/>
<path d="M125.341 154.83L41.3477 108.137L125.341 61.4684L209.359 108.137L125.341 154.83Z" stroke="white" stroke-opacity="0.3"/>
</g>
<path d="M220.349 300.653L136.356 253.961V160.576L220.349 207.268V300.653Z" fill="#121314" stroke="white" stroke-opacity="0.3"/>
<path d="M304.37 253.96L220.352 300.653V207.268L304.37 160.575V253.96Z" fill="#121314" stroke="white" stroke-opacity="0.3"/>
<g filter="url(#filter11_b_1918_9538)">
<path d="M220.349 207.268L136.355 160.575L220.349 113.907L304.367 160.575L220.349 207.268Z" fill="#121314"/>
<path d="M220.349 207.268L136.355 160.575L220.349 113.907L304.367 160.575L220.349 207.268Z" stroke="white" stroke-opacity="0.3"/>
</g>
</g>
<g filter="url(#filter12_b_1918_9538)">
<path d="M0 342.579L84.0183 389.272V295.887L0 249.218V342.579Z" fill="url(#paint0_linear_1918_9538)"/>
<path d="M0 342.579L84.0183 389.272V295.887L0 249.218V342.579Z" stroke="white" stroke-opacity="0.3"/>
</g>
<g filter="url(#filter13_b_1918_9538)">
<path d="M432.498 136.229L348.48 182.921V89.5361L432.498 42.8676V136.229Z" fill="url(#paint1_linear_1918_9538)"/>
<path d="M432.498 136.229L348.48 182.921V89.5361L432.498 42.8676V136.229Z" stroke="white" stroke-opacity="0.3"/>
</g>
<g filter="url(#filter14_b_1918_9538)">
<path d="M218.64 91.4297L134.154 139.122L217.731 185.308L302.195 137.603L218.64 91.4297Z" fill="#121314"/>
<path d="M218.64 91.4297L134.154 139.122L217.731 185.308L302.195 137.603L218.64 91.4297Z" stroke="white" stroke-opacity="0.3"/>
</g>
<path fill-rule="evenodd" clip-rule="evenodd" d="M189.925 121.737C205.425 114.473 230.481 114.244 245.842 121.227C261.203 128.21 261.091 139.777 245.592 147.041C230.092 154.307 205.036 154.536 189.675 147.552C174.314 140.57 174.426 129.003 189.925 121.737Z" stroke="white" stroke-opacity="0.3"/>
<path fill-rule="evenodd" clip-rule="evenodd" d="M181.494 142.201C183.434 140.184 186.208 138.284 189.812 136.614C205.336 129.424 230.431 129.198 245.816 136.109C249.388 137.714 252.125 139.564 254.026 141.546C252.086 143.564 249.312 145.464 245.708 147.133C230.184 154.323 205.089 154.55 189.704 147.638C186.132 146.034 183.395 144.184 181.494 142.201Z" fill="#121314" stroke="white" stroke-opacity="0.3"/>
<path fill-rule="evenodd" clip-rule="evenodd" d="M181.896 142.339C183.837 140.322 186.61 138.422 190.215 136.752C205.738 129.562 230.833 129.335 246.218 136.246C249.79 137.851 252.527 139.701 254.429 141.684C252.488 143.701 249.714 145.601 246.11 147.27C230.586 154.461 205.492 154.688 190.107 147.776C186.534 146.172 183.797 144.321 181.896 142.339Z" stroke="white" stroke-opacity="0.3"/>
<path fill-rule="evenodd" clip-rule="evenodd" d="M181.105 142.323C183.059 140.354 134.719 21.4977 134.719 21.4977L301.433 19.9577C301.433 19.9577 252.253 139.715 254.17 141.648C252.216 143.617 249.423 145.472 245.793 147.102C230.159 154.125 204.881 154.359 189.379 147.623C185.78 146.06 183.022 144.256 181.105 142.323Z" fill="url(#paint2_linear_1918_9538)"/>
<g filter="url(#filter15_b_1918_9538)">
<path d="M325.209 379.524L241.191 426.216L241.191 332.831L325.209 286.163L325.209 379.524Z" fill="#121314"/>
<path d="M325.209 379.524L241.191 426.216L241.191 332.831L325.209 286.163L325.209 379.524Z" stroke="white" stroke-opacity="0.3"/>
</g>
<path fill-rule="evenodd" clip-rule="evenodd" d="M284.368 388.508C298.655 379.223 311.239 358.247 312.452 341.696C313.664 325.146 303.049 319.248 288.762 328.534C274.474 337.819 261.89 358.795 260.678 375.345C259.466 391.896 270.081 397.794 284.368 388.508Z" stroke="white" stroke-opacity="0.3"/>
<path fill-rule="evenodd" clip-rule="evenodd" d="M261.643 385.093C264.46 384.517 267.58 383.18 270.898 381.024C285.185 371.739 297.769 350.763 298.981 334.212C299.263 330.37 298.906 327.101 298.015 324.465C295.197 325.04 292.077 326.377 288.76 328.533C274.473 337.819 261.889 358.795 260.677 375.345C260.395 379.188 260.752 382.457 261.643 385.093Z" fill="#121314" stroke="white" stroke-opacity="0.3"/>
<path fill-rule="evenodd" clip-rule="evenodd" d="M261.721 384.69C264.538 384.114 267.658 382.777 270.976 380.621C285.263 371.335 297.847 350.359 299.059 333.809C299.341 329.966 298.984 326.697 298.093 324.061C295.275 324.637 292.155 325.974 288.839 328.13C274.551 337.415 261.967 358.392 260.755 374.942C260.473 378.785 260.83 382.053 261.721 384.69Z" stroke="white" stroke-opacity="0.3"/>
<path fill-rule="evenodd" clip-rule="evenodd" d="M260.943 384.729C263.694 384.091 347.387 486 347.387 486L431.376 346C431.376 346 298.553 325.985 297.752 323.373C295.001 324.011 291.937 325.416 288.663 327.644C274.557 337.237 261.822 358.465 260.242 375.018C259.875 378.861 260.142 382.117 260.943 384.729Z" fill="url(#paint3_linear_1918_9538)"/>
</g>
<defs>
<filter id="filter0_b_1918_9538" x="14.1574" y="89.9704" width="414.643" height="349.003" filterUnits="userSpaceOnUse" color-interpolation-filters="sRGB">
<feFlood flood-opacity="0" result="BackgroundImageFix"/>
<feGaussianBlur in="BackgroundImageFix" stdDeviation="13.0806"/>
<feComposite in2="SourceAlpha" operator="in" result="effect1_backgroundBlur_1918_9538"/>
<feBlend mode="normal" in="SourceGraphic" in2="effect1_backgroundBlur_1918_9538" result="shape"/>
</filter>
<filter id="filter1_b_1918_9538" x="71.6235" y="51.6006" width="299.132" height="223.591" filterUnits="userSpaceOnUse" color-interpolation-filters="sRGB">
<feFlood flood-opacity="0" result="BackgroundImageFix"/>
<feGaussianBlur in="BackgroundImageFix" stdDeviation="32.2655"/>
<feComposite in2="SourceAlpha" operator="in" result="effect1_backgroundBlur_1918_9538"/>
<feBlend mode="normal" in="SourceGraphic" in2="effect1_backgroundBlur_1918_9538" result="shape"/>
</filter>
<filter id="filter2_b_1918_9538" x="168.063" y="106.435" width="299.107" height="223.567" filterUnits="userSpaceOnUse" color-interpolation-filters="sRGB">
<feFlood flood-opacity="0" result="BackgroundImageFix"/>
<feGaussianBlur in="BackgroundImageFix" stdDeviation="32.2655"/>
<feComposite in2="SourceAlpha" operator="in" result="effect1_backgroundBlur_1918_9538"/>
<feBlend mode="normal" in="SourceGraphic" in2="effect1_backgroundBlur_1918_9538" result="shape"/>
</filter>
<filter id="filter3_b_1918_9538" x="-24.2124" y="105.285" width="299.132" height="223.591" filterUnits="userSpaceOnUse" color-interpolation-filters="sRGB">
<feFlood flood-opacity="0" result="BackgroundImageFix"/>
<feGaussianBlur in="BackgroundImageFix" stdDeviation="32.2655"/>
<feComposite in2="SourceAlpha" operator="in" result="effect1_backgroundBlur_1918_9538"/>
<feBlend mode="normal" in="SourceGraphic" in2="effect1_backgroundBlur_1918_9538" result="shape"/>
</filter>
<filter id="filter4_b_1918_9538" x="125.045" y="258.85" width="109.435" height="166.17" filterUnits="userSpaceOnUse" color-interpolation-filters="sRGB">
<feFlood flood-opacity="0" result="BackgroundImageFix"/>
<feGaussianBlur in="BackgroundImageFix" stdDeviation="6.10429"/>
<feComposite in2="SourceAlpha" operator="in" result="effect1_backgroundBlur_1918_9538"/>
<feBlend mode="normal" in="SourceGraphic" in2="effect1_backgroundBlur_1918_9538" result="shape"/>
</filter>
<filter id="filter5_b_1918_9538" x="209.065" y="258.85" width="109.411" height="166.171" filterUnits="userSpaceOnUse" color-interpolation-filters="sRGB">
<feFlood flood-opacity="0" result="BackgroundImageFix"/>
<feGaussianBlur in="BackgroundImageFix" stdDeviation="6.10429"/>
<feComposite in2="SourceAlpha" operator="in" result="effect1_backgroundBlur_1918_9538"/>
<feBlend mode="normal" in="SourceGraphic" in2="effect1_backgroundBlur_1918_9538" result="shape"/>
</filter>
<filter id="filter6_b_1918_9538" x="72.1934" y="160.113" width="299.133" height="223.567" filterUnits="userSpaceOnUse" color-interpolation-filters="sRGB">
<feFlood flood-opacity="0" result="BackgroundImageFix"/>
<feGaussianBlur in="BackgroundImageFix" stdDeviation="32.2655"/>
<feComposite in2="SourceAlpha" operator="in" result="effect1_backgroundBlur_1918_9538"/>
<feBlend mode="normal" in="SourceGraphic" in2="effect1_backgroundBlur_1918_9538" result="shape"/>
</filter>
<filter id="filter7_b_1918_9538" x="14.1571" y="-18.9452" width="414.639" height="346.61" filterUnits="userSpaceOnUse" color-interpolation-filters="sRGB">
<feFlood flood-opacity="0" result="BackgroundImageFix"/>
<feGaussianBlur in="BackgroundImageFix" stdDeviation="13.0806"/>
<feComposite in2="SourceAlpha" operator="in" result="effect1_backgroundBlur_1918_9538"/>
<feBlend mode="normal" in="SourceGraphic" in2="effect1_backgroundBlur_1918_9538" result="shape"/>
</filter>
<filter id="filter8_b_1918_9538" x="71.6233" y="-57.3149" width="299.133" height="223.567" filterUnits="userSpaceOnUse" color-interpolation-filters="sRGB">
<feFlood flood-opacity="0" result="BackgroundImageFix"/>
<feGaussianBlur in="BackgroundImageFix" stdDeviation="32.2655"/>
<feComposite in2="SourceAlpha" operator="in" result="effect1_backgroundBlur_1918_9538"/>
<feBlend mode="normal" in="SourceGraphic" in2="effect1_backgroundBlur_1918_9538" result="shape"/>
</filter>
<filter id="filter9_b_1918_9538" x="168.059" y="-2.5088" width="299.107" height="223.567" filterUnits="userSpaceOnUse" color-interpolation-filters="sRGB">
<feFlood flood-opacity="0" result="BackgroundImageFix"/>
<feGaussianBlur in="BackgroundImageFix" stdDeviation="32.2655"/>
<feComposite in2="SourceAlpha" operator="in" result="effect1_backgroundBlur_1918_9538"/>
<feBlend mode="normal" in="SourceGraphic" in2="effect1_backgroundBlur_1918_9538" result="shape"/>
</filter>
<filter id="filter10_b_1918_9538" x="-24.2127" y="-3.63465" width="299.133" height="223.567" filterUnits="userSpaceOnUse" color-interpolation-filters="sRGB">
<feFlood flood-opacity="0" result="BackgroundImageFix"/>
<feGaussianBlur in="BackgroundImageFix" stdDeviation="32.2655"/>
<feComposite in2="SourceAlpha" operator="in" result="effect1_backgroundBlur_1918_9538"/>
<feBlend mode="normal" in="SourceGraphic" in2="effect1_backgroundBlur_1918_9538" result="shape"/>
</filter>
<filter id="filter11_b_1918_9538" x="70.7952" y="48.8037" width="299.133" height="223.567" filterUnits="userSpaceOnUse" color-interpolation-filters="sRGB">
<feFlood flood-opacity="0" result="BackgroundImageFix"/>
<feGaussianBlur in="BackgroundImageFix" stdDeviation="32.2655"/>
<feComposite in2="SourceAlpha" operator="in" result="effect1_backgroundBlur_1918_9538"/>
<feBlend mode="normal" in="SourceGraphic" in2="effect1_backgroundBlur_1918_9538" result="shape"/>
</filter>
<filter id="filter12_b_1918_9538" x="-12.7086" y="236.16" width="109.435" height="166.171" filterUnits="userSpaceOnUse" color-interpolation-filters="sRGB">
<feFlood flood-opacity="0" result="BackgroundImageFix"/>
<feGaussianBlur in="BackgroundImageFix" stdDeviation="6.10429"/>
<feComposite in2="SourceAlpha" operator="in" result="effect1_backgroundBlur_1918_9538"/>
<feBlend mode="normal" in="SourceGraphic" in2="effect1_backgroundBlur_1918_9538" result="shape"/>
</filter>
<filter id="filter13_b_1918_9538" x="335.771" y="29.8093" width="109.435" height="166.171" filterUnits="userSpaceOnUse" color-interpolation-filters="sRGB">
<feFlood flood-opacity="0" result="BackgroundImageFix"/>
<feGaussianBlur in="BackgroundImageFix" stdDeviation="6.10429"/>
<feComposite in2="SourceAlpha" operator="in" result="effect1_backgroundBlur_1918_9538"/>
<feBlend mode="normal" in="SourceGraphic" in2="effect1_backgroundBlur_1918_9538" result="shape"/>
</filter>
<filter id="filter14_b_1918_9538" x="120.929" y="78.6534" width="194.491" height="119.431" filterUnits="userSpaceOnUse" color-interpolation-filters="sRGB">
<feFlood flood-opacity="0" result="BackgroundImageFix"/>
<feGaussianBlur in="BackgroundImageFix" stdDeviation="6.10429"/>
<feComposite in2="SourceAlpha" operator="in" result="effect1_backgroundBlur_1918_9538"/>
<feBlend mode="normal" in="SourceGraphic" in2="effect1_backgroundBlur_1918_9538" result="shape"/>
</filter>
<filter id="filter15_b_1918_9538" x="228.482" y="273.104" width="109.435" height="166.171" filterUnits="userSpaceOnUse" color-interpolation-filters="sRGB">
<feFlood flood-opacity="0" result="BackgroundImageFix"/>
<feGaussianBlur in="BackgroundImageFix" stdDeviation="6.10429"/>
<feComposite in2="SourceAlpha" operator="in" result="effect1_backgroundBlur_1918_9538"/>
<feBlend mode="normal" in="SourceGraphic" in2="effect1_backgroundBlur_1918_9538" result="shape"/>
</filter>
<linearGradient id="paint0_linear_1918_9538" x1="36.4687" y1="249.218" x2="43.1686" y2="389.044" gradientUnits="userSpaceOnUse">
<stop stop-color="#1A1C1E" stop-opacity="0"/>
<stop offset="1" stop-color="#9EE50D"/>
</linearGradient>
<linearGradient id="paint1_linear_1918_9538" x1="396.029" y1="42.8676" x2="389.329" y2="182.693" gradientUnits="userSpaceOnUse">
<stop stop-color="#1A1C1E" stop-opacity="0"/>
<stop offset="1" stop-color="#9EE50D"/>
</linearGradient>
<linearGradient id="paint2_linear_1918_9538" x1="207.082" y1="20.8292" x2="211.291" y2="152.543" gradientUnits="userSpaceOnUse">
<stop stop-color="#1A1C1E" stop-opacity="0"/>
<stop offset="1" stop-color="#4500DF"/>
</linearGradient>
<linearGradient id="paint3_linear_1918_9538" x1="383.843" y1="425.232" x2="267.983" y2="351.867" gradientUnits="userSpaceOnUse">
<stop stop-color="#1A1C1E" stop-opacity="0"/>
<stop offset="1" stop-color="#4500DF"/>
</linearGradient>
<clipPath id="clip0_1918_9538">
<rect width="432" height="486" fill="white"/>
</clipPath>
</defs>
</svg>
