<svg width="352" height="441" viewBox="0 0 352 441" fill="none" xmlns="http://www.w3.org/2000/svg">
<g filter="url(#filter0_b_1918_9652)">
<path d="M175.247 330.749L93.8634 283.763V189.741L175.247 236.752V330.749Z" fill="#121314" stroke="white" stroke-opacity="0.3"/>
<path d="M256.656 283.763L175.248 330.749V236.752L256.656 189.741V283.763Z" fill="#121314" stroke="white" stroke-opacity="0.3"/>
<g filter="url(#filter1_b_1918_9652)">
<path d="M175.247 236.752L93.8634 189.741L175.247 142.73L256.655 189.741L175.247 236.752Z" fill="#121314"/>
<path d="M175.247 236.752L93.8634 189.741L175.247 142.73L256.655 189.741L175.247 236.752Z" stroke="white" stroke-opacity="0.3"/>
</g>
<path d="M268.693 385.956L187.285 338.945V244.924L268.693 291.935V385.956Z" fill="#121314" stroke="white" stroke-opacity="0.3"/>
<path d="M350.102 338.945L268.694 385.956V291.935L350.102 244.924V338.945Z" fill="#121314" stroke="white" stroke-opacity="0.3"/>
<g filter="url(#filter2_b_1918_9652)">
<path d="M268.695 291.935L187.311 244.924L268.695 197.938L350.079 244.924L268.695 291.935Z" fill="#121314"/>
<path d="M268.695 291.935L187.311 244.924L268.695 197.938L350.079 244.924L268.695 291.935Z" stroke="white" stroke-opacity="0.3"/>
</g>
<path d="M82.388 384.825L1.00403 337.814V243.793L82.388 290.803V384.825Z" fill="#121314" stroke="white" stroke-opacity="0.3"/>
<path d="M163.799 337.814L82.3906 384.825V290.803L163.799 243.793V337.814Z" fill="#121314" stroke="white" stroke-opacity="0.3"/>
<g filter="url(#filter3_b_1918_9652)">
<path d="M82.3879 290.803L1.00403 243.792L82.3879 196.782L163.796 243.792L82.3879 290.803Z" fill="#121314"/>
<path d="M82.3879 290.803L1.00403 243.792L82.3879 196.782L163.796 243.792L82.3879 290.803Z" stroke="white" stroke-opacity="0.3"/>
</g>
<g filter="url(#filter4_b_1918_9652)">
<path d="M175.826 440.002L94.4181 392.991V298.994L175.826 345.981V440.002Z" fill="#121314"/>
<path d="M175.826 440.002L94.4181 392.991V298.994L175.826 345.981V440.002Z" stroke="white" stroke-opacity="0.3"/>
</g>
<g filter="url(#filter5_b_1918_9652)">
<path d="M257.212 392.991L175.828 440.002V345.981L257.212 298.994V392.991Z" fill="#121314"/>
<path d="M257.212 392.991L175.828 440.002V345.981L257.212 298.994V392.991Z" stroke="white" stroke-opacity="0.3"/>
</g>
<g filter="url(#filter6_b_1918_9652)">
<path d="M175.826 345.981L94.4181 298.97L175.826 251.983L257.21 298.994L175.826 345.981Z" fill="#121314"/>
<path d="M175.826 345.981L94.4181 298.97L175.826 251.983L257.21 298.994L175.826 345.981Z" stroke="white" stroke-opacity="0.3"/>
</g>
</g>
<g filter="url(#filter7_b_1918_9652)">
<path d="M180.234 33.9961L218.842 57.4093V139.855L134.54 189.063L95.6329 165.637V80.2859L180.234 33.9961Z" fill="url(#paint0_linear_1918_9652)" stroke="white" stroke-opacity="0.3"/>
<path d="M180.234 33.9961L218.842 57.4093L134.261 104.211L95.6329 80.2566L180.234 33.9961Z" fill="url(#paint1_linear_1918_9652)" stroke="white" stroke-opacity="0.3"/>
<path d="M134.154 103.935L95.5919 80.5659L95.5919 165.139L134.154 188.786V103.935Z" fill="url(#paint2_linear_1918_9652)" stroke="white" stroke-opacity="0.3"/>
<path d="M131.966 81.7635C127.59 81.7635 124.043 78.1688 124.043 73.7356V55.0806C124.043 34.3401 135.054 15.0159 152.779 4.64568C161.09 -0.215228 171.014 -0.215228 179.325 4.64568C187.635 9.50773 192.597 18.216 192.597 27.9401V48.463C192.597 52.8973 189.05 56.491 184.675 56.491C180.299 56.491 176.752 52.8973 176.752 48.463V27.9401C176.752 24.0211 174.752 20.5105 171.402 18.5504C168.052 16.5904 164.052 16.5915 160.702 18.5504C147.863 26.0608 139.887 40.0588 139.887 55.0806V73.7356C139.887 78.1688 136.341 81.7635 131.966 81.7635Z" fill="url(#paint3_linear_1918_9652)" stroke="white" stroke-opacity="0.3"/>
</g>
<g filter="url(#filter8_b_1918_9652)">
<path d="M268.682 276.271L187.273 229.26V135.263L268.682 182.274V276.271Z" fill="#121314" stroke="white" stroke-opacity="0.3"/>
<path d="M350.09 229.26L268.682 276.271V182.274L350.09 135.263V229.26Z" fill="#121314" stroke="white" stroke-opacity="0.3"/>
<g filter="url(#filter9_b_1918_9652)">
<path d="M268.683 182.249L187.299 135.263L268.683 88.2523L350.067 135.263L268.683 182.249Z" fill="#121314"/>
<path d="M268.683 182.249L187.299 135.263L268.683 88.2523L350.067 135.263L268.683 182.249Z" stroke="white" stroke-opacity="0.3"/>
</g>
<path d="M82.3843 275.138L1.00037 228.127V134.106L82.3843 181.116V275.138Z" fill="#121314" stroke="white" stroke-opacity="0.3"/>
<path d="M163.791 228.126L82.3831 275.137V181.115L163.791 134.105V228.126Z" fill="#121314" stroke="white" stroke-opacity="0.3"/>
<g filter="url(#filter10_b_1918_9652)">
<path d="M82.3842 181.115L1.00024 134.104L82.3842 87.1179L163.792 134.104L82.3842 181.115Z" fill="#121314"/>
<path d="M82.3842 181.115L1.00024 134.104L82.3842 87.1179L163.792 134.104L82.3842 181.115Z" stroke="white" stroke-opacity="0.3"/>
</g>
</g>
<g filter="url(#filter11_b_1918_9652)">
<path d="M94.4806 392.403L175.889 439.413V345.392L94.4806 298.405V392.403Z" fill="#121314"/>
<path d="M94.4806 392.403L175.889 439.413V345.392L94.4806 298.405V392.403Z" stroke="white" stroke-opacity="0.3"/>
</g>
<g filter="url(#filter12_b_1918_9652)">
<path d="M349.955 229.158L268.547 276.169V182.148L349.955 135.161V229.158Z" fill="#121314"/>
<path d="M349.955 229.158L268.547 276.169V182.148L349.955 135.161V229.158Z" stroke="white" stroke-opacity="0.3"/>
</g>
<g filter="url(#filter13_b_1918_9652)">
<path d="M221.968 179.217L260.576 202.63V285.076L176.274 334.284L137.367 310.858V222.696L221.968 179.217Z" fill="url(#paint4_linear_1918_9652)" stroke="white" stroke-opacity="0.3"/>
<path d="M221.968 179.217L260.576 202.63L175.975 246.109L137.367 222.696L221.968 179.217Z" fill="url(#paint5_linear_1918_9652)" stroke="white" stroke-opacity="0.3"/>
<path d="M175.886 246.389L137.324 222.127L137.324 310.36L175.886 334.007V246.389Z" fill="url(#paint6_linear_1918_9652)" stroke="white" stroke-opacity="0.3"/>
<path d="M173.696 226.985C169.32 226.985 165.774 223.39 165.774 218.957V200.302C165.774 179.561 176.785 160.237 194.51 149.867C202.821 145.006 212.744 145.006 221.055 149.867C229.366 154.729 234.328 163.437 234.328 173.161V193.684C234.328 198.119 230.78 201.712 226.405 201.712C222.03 201.712 218.482 198.119 218.482 193.684V173.161C218.482 169.242 216.483 165.732 213.133 163.772C209.783 161.812 205.783 161.813 202.432 163.772C189.593 171.282 181.618 185.28 181.618 200.302V218.957C181.618 223.39 178.071 226.985 173.696 226.985Z" fill="url(#paint7_linear_1918_9652)" stroke="white" stroke-opacity="0.3"/>
</g>
<defs>
<filter id="filter0_b_1918_9652" x="-26.1568" y="115.992" width="403.396" height="351.038" filterUnits="userSpaceOnUse" color-interpolation-filters="sRGB">
<feFlood flood-opacity="0" result="BackgroundImageFix"/>
<feGaussianBlur in="BackgroundImageFix" stdDeviation="13.0806"/>
<feComposite in2="SourceAlpha" operator="in" result="effect1_backgroundBlur_1918_9652"/>
<feBlend mode="normal" in="SourceGraphic" in2="effect1_backgroundBlur_1918_9652" result="shape"/>
</filter>
<filter id="filter1_b_1918_9652" x="28.3328" y="77.6221" width="293.854" height="224.238" filterUnits="userSpaceOnUse" color-interpolation-filters="sRGB">
<feFlood flood-opacity="0" result="BackgroundImageFix"/>
<feGaussianBlur in="BackgroundImageFix" stdDeviation="32.2655"/>
<feComposite in2="SourceAlpha" operator="in" result="effect1_backgroundBlur_1918_9652"/>
<feBlend mode="normal" in="SourceGraphic" in2="effect1_backgroundBlur_1918_9652" result="shape"/>
</filter>
<filter id="filter2_b_1918_9652" x="121.78" y="132.83" width="293.829" height="224.214" filterUnits="userSpaceOnUse" color-interpolation-filters="sRGB">
<feFlood flood-opacity="0" result="BackgroundImageFix"/>
<feGaussianBlur in="BackgroundImageFix" stdDeviation="32.2655"/>
<feComposite in2="SourceAlpha" operator="in" result="effect1_backgroundBlur_1918_9652"/>
<feBlend mode="normal" in="SourceGraphic" in2="effect1_backgroundBlur_1918_9652" result="shape"/>
</filter>
<filter id="filter3_b_1918_9652" x="-64.5266" y="131.673" width="293.854" height="224.238" filterUnits="userSpaceOnUse" color-interpolation-filters="sRGB">
<feFlood flood-opacity="0" result="BackgroundImageFix"/>
<feGaussianBlur in="BackgroundImageFix" stdDeviation="32.2655"/>
<feComposite in2="SourceAlpha" operator="in" result="effect1_backgroundBlur_1918_9652"/>
<feBlend mode="normal" in="SourceGraphic" in2="effect1_backgroundBlur_1918_9652" result="shape"/>
</filter>
<filter id="filter4_b_1918_9652" x="81.7095" y="285.92" width="106.825" height="167.157" filterUnits="userSpaceOnUse" color-interpolation-filters="sRGB">
<feFlood flood-opacity="0" result="BackgroundImageFix"/>
<feGaussianBlur in="BackgroundImageFix" stdDeviation="6.10429"/>
<feComposite in2="SourceAlpha" operator="in" result="effect1_backgroundBlur_1918_9652"/>
<feBlend mode="normal" in="SourceGraphic" in2="effect1_backgroundBlur_1918_9652" result="shape"/>
</filter>
<filter id="filter5_b_1918_9652" x="163.12" y="285.92" width="106.801" height="167.157" filterUnits="userSpaceOnUse" color-interpolation-filters="sRGB">
<feFlood flood-opacity="0" result="BackgroundImageFix"/>
<feGaussianBlur in="BackgroundImageFix" stdDeviation="6.10429"/>
<feComposite in2="SourceAlpha" operator="in" result="effect1_backgroundBlur_1918_9652"/>
<feBlend mode="normal" in="SourceGraphic" in2="effect1_backgroundBlur_1918_9652" result="shape"/>
</filter>
<filter id="filter6_b_1918_9652" x="28.8871" y="186.875" width="293.854" height="224.214" filterUnits="userSpaceOnUse" color-interpolation-filters="sRGB">
<feFlood flood-opacity="0" result="BackgroundImageFix"/>
<feGaussianBlur in="BackgroundImageFix" stdDeviation="32.2655"/>
<feComposite in2="SourceAlpha" operator="in" result="effect1_backgroundBlur_1918_9652"/>
<feBlend mode="normal" in="SourceGraphic" in2="effect1_backgroundBlur_1918_9652" result="shape"/>
</filter>
<filter id="filter7_b_1918_9652" x="82.4318" y="-11.7086" width="149.616" height="213.596" filterUnits="userSpaceOnUse" color-interpolation-filters="sRGB">
<feFlood flood-opacity="0" result="BackgroundImageFix"/>
<feGaussianBlur in="BackgroundImageFix" stdDeviation="6.10429"/>
<feComposite in2="SourceAlpha" operator="in" result="effect1_backgroundBlur_1918_9652"/>
<feBlend mode="normal" in="SourceGraphic" in2="effect1_backgroundBlur_1918_9652" result="shape"/>
</filter>
<filter id="filter8_b_1918_9652" x="-26.1607" y="60.3794" width="403.388" height="242.919" filterUnits="userSpaceOnUse" color-interpolation-filters="sRGB">
<feFlood flood-opacity="0" result="BackgroundImageFix"/>
<feGaussianBlur in="BackgroundImageFix" stdDeviation="13.0806"/>
<feComposite in2="SourceAlpha" operator="in" result="effect1_backgroundBlur_1918_9652"/>
<feBlend mode="normal" in="SourceGraphic" in2="effect1_backgroundBlur_1918_9652" result="shape"/>
</filter>
<filter id="filter9_b_1918_9652" x="121.768" y="23.1439" width="293.829" height="224.214" filterUnits="userSpaceOnUse" color-interpolation-filters="sRGB">
<feFlood flood-opacity="0" result="BackgroundImageFix"/>
<feGaussianBlur in="BackgroundImageFix" stdDeviation="32.2655"/>
<feComposite in2="SourceAlpha" operator="in" result="effect1_backgroundBlur_1918_9652"/>
<feBlend mode="normal" in="SourceGraphic" in2="effect1_backgroundBlur_1918_9652" result="shape"/>
</filter>
<filter id="filter10_b_1918_9652" x="-64.5305" y="22.0096" width="293.854" height="224.214" filterUnits="userSpaceOnUse" color-interpolation-filters="sRGB">
<feFlood flood-opacity="0" result="BackgroundImageFix"/>
<feGaussianBlur in="BackgroundImageFix" stdDeviation="32.2655"/>
<feComposite in2="SourceAlpha" operator="in" result="effect1_backgroundBlur_1918_9652"/>
<feBlend mode="normal" in="SourceGraphic" in2="effect1_backgroundBlur_1918_9652" result="shape"/>
</filter>
<filter id="filter11_b_1918_9652" x="81.772" y="285.331" width="106.825" height="167.157" filterUnits="userSpaceOnUse" color-interpolation-filters="sRGB">
<feFlood flood-opacity="0" result="BackgroundImageFix"/>
<feGaussianBlur in="BackgroundImageFix" stdDeviation="6.10429"/>
<feComposite in2="SourceAlpha" operator="in" result="effect1_backgroundBlur_1918_9652"/>
<feBlend mode="normal" in="SourceGraphic" in2="effect1_backgroundBlur_1918_9652" result="shape"/>
</filter>
<filter id="filter12_b_1918_9652" x="255.839" y="122.087" width="106.825" height="167.157" filterUnits="userSpaceOnUse" color-interpolation-filters="sRGB">
<feFlood flood-opacity="0" result="BackgroundImageFix"/>
<feGaussianBlur in="BackgroundImageFix" stdDeviation="6.10429"/>
<feComposite in2="SourceAlpha" operator="in" result="effect1_backgroundBlur_1918_9652"/>
<feBlend mode="normal" in="SourceGraphic" in2="effect1_backgroundBlur_1918_9652" result="shape"/>
</filter>
<filter id="filter13_b_1918_9652" x="124.135" y="133.513" width="149.673" height="213.596" filterUnits="userSpaceOnUse" color-interpolation-filters="sRGB">
<feFlood flood-opacity="0" result="BackgroundImageFix"/>
<feGaussianBlur in="BackgroundImageFix" stdDeviation="6.10429"/>
<feComposite in2="SourceAlpha" operator="in" result="effect1_backgroundBlur_1918_9652"/>
<feBlend mode="normal" in="SourceGraphic" in2="effect1_backgroundBlur_1918_9652" result="shape"/>
</filter>
<linearGradient id="paint0_linear_1918_9652" x1="149.113" y1="33.9961" x2="154.719" y2="188.963" gradientUnits="userSpaceOnUse">
<stop stop-color="#1A1C1E" stop-opacity="0"/>
<stop offset="1" stop-color="#9EE50D"/>
</linearGradient>
<linearGradient id="paint1_linear_1918_9652" x1="149.113" y1="33.9961" x2="150.263" y2="104.239" gradientUnits="userSpaceOnUse">
<stop stop-color="#1A1C1E" stop-opacity="0"/>
<stop offset="1" stop-color="#9EE50D"/>
</linearGradient>
<linearGradient id="paint2_linear_1918_9652" x1="112.33" y1="80.5659" x2="121.009" y2="188.158" gradientUnits="userSpaceOnUse">
<stop stop-color="#1A1C1E" stop-opacity="0"/>
<stop offset="1" stop-color="#9EE50D"/>
</linearGradient>
<linearGradient id="paint3_linear_1918_9652" x1="153.799" y1="1" x2="156.533" y2="81.7245" gradientUnits="userSpaceOnUse">
<stop stop-color="#1A1C1E" stop-opacity="0"/>
<stop offset="1" stop-color="#9EE50D"/>
</linearGradient>
<linearGradient id="paint4_linear_1918_9652" x1="190.847" y1="179.217" x2="196.453" y2="334.184" gradientUnits="userSpaceOnUse">
<stop stop-color="#1A1C1E" stop-opacity="0"/>
<stop offset="1" stop-color="#4500DF"/>
</linearGradient>
<linearGradient id="paint5_linear_1918_9652" x1="190.847" y1="179.217" x2="191.891" y2="246.137" gradientUnits="userSpaceOnUse">
<stop stop-color="#1A1C1E" stop-opacity="0"/>
<stop offset="1" stop-color="#4500DF"/>
</linearGradient>
<linearGradient id="paint6_linear_1918_9652" x1="154.062" y1="222.127" x2="163.335" y2="333.308" gradientUnits="userSpaceOnUse">
<stop stop-color="#1A1C1E" stop-opacity="0"/>
<stop offset="1" stop-color="#4500DF"/>
</linearGradient>
<linearGradient id="paint7_linear_1918_9652" x1="195.53" y1="146.221" x2="198.264" y2="226.946" gradientUnits="userSpaceOnUse">
<stop stop-color="#1A1C1E" stop-opacity="0"/>
<stop offset="1" stop-color="#4500DF"/>
</linearGradient>
</defs>
</svg>
