<svg width="644" height="549" viewBox="0 0 644 549" fill="none" xmlns="http://www.w3.org/2000/svg">
<path d="M299.59 458.991L212.836 410.386C206.5 406.844 202.59 400.263 202.59 393.179V295.991L299.59 350.332V458.991Z" fill="#121314"/>
<path d="M299.09 458.138L213.081 409.95L213.08 409.95C206.898 406.494 203.09 400.077 203.09 393.179V296.844L299.09 350.625V458.138Z" stroke="white" stroke-opacity="0.3"/>
<path d="M291.718 445.966L218.522 403.781C213.258 400.754 210.016 395.147 210.016 389.07V304.677L283.212 346.862C288.476 349.888 291.718 355.496 291.718 361.573V445.943V445.966Z" fill="#121314"/>
<path d="M385.449 410.386L299.59 458.991V350.332L395.59 295.991V393.179C395.59 400.286 391.72 406.844 385.449 410.386Z" fill="#121314"/>
<path d="M385.203 409.951L385.203 409.951L300.09 458.134V350.624L395.09 296.849V393.179C395.09 400.102 391.32 406.496 385.203 409.951Z" stroke="white" stroke-opacity="0.3"/>
<path d="M380.329 403.968L306.475 446.552V361.408C306.475 355.331 309.717 349.724 314.981 346.697L388.835 304.113V389.258C388.835 395.334 385.593 400.942 380.329 403.968Z" fill="#121314"/>
<path d="M299.261 347.425L202.496 291.632L289.039 241.727C295.36 238.091 303.162 238.091 309.483 241.727L396.026 291.632L299.261 347.425Z" fill="#121314"/>
<path d="M299.261 346.847L203.497 291.632L289.289 242.161L299.261 346.847ZM299.261 346.847L395.025 291.632M299.261 346.847L395.025 291.632M395.025 291.632L309.233 242.161L395.025 291.632ZM289.289 242.161C295.456 238.613 303.066 238.613 309.233 242.161H289.289Z" stroke="white" stroke-opacity="0.3"/>
<path d="M290.754 334.873L215.748 291.632L290.754 248.391C296.017 245.364 302.503 245.364 307.766 248.391L382.772 291.632L307.766 334.873C302.503 337.899 296.017 337.899 290.754 334.873Z" fill="#121314"/>
<path d="M299.26 331.447L230.223 291.632L299.26 251.84L368.297 291.632L299.26 331.447Z" fill="#121314"/>
<g filter="url(#filter0_b_2504_5781)">
<path d="M267.703 458.87L194.506 416.685C189.243 413.659 186 408.051 186 401.975V317.604L259.196 359.79C264.46 362.816 267.703 368.424 267.703 374.5V458.87Z" fill="url(#paint0_linear_2504_5781)" stroke="white" stroke-opacity="0.3"/>
<path d="M330.818 458.87L404.015 416.685C409.278 413.659 412.521 408.051 412.521 401.975V317.604L339.325 359.79C334.061 362.816 330.818 368.424 330.818 374.5V458.87Z" fill="url(#paint1_linear_2504_5781)" stroke="white" stroke-opacity="0.3"/>
</g>
<path d="M300 302L213.246 253.395C206.91 249.853 203 243.272 203 236.188V139L300 193.341V302Z" fill="#121314"/>
<path d="M299.5 301.147L213.491 252.959L213.49 252.958C207.308 249.502 203.5 243.086 203.5 236.188V139.853L299.5 193.634V301.147Z" stroke="white" stroke-opacity="0.3"/>
<path d="M292.128 288.975L218.932 246.79C213.668 243.763 210.426 238.156 210.426 232.079V147.686L283.622 189.871C288.886 192.897 292.128 198.505 292.128 204.581V288.951V288.975Z" fill="#121314"/>
<path d="M385.859 253.395L300 302V193.341L396 139V236.188C396 243.294 392.13 249.853 385.859 253.395Z" fill="#121314"/>
<path d="M385.613 252.959L385.613 252.96L300.5 301.142V193.632L395.5 139.858V236.188C395.5 243.111 391.73 249.504 385.613 252.959Z" stroke="white" stroke-opacity="0.3"/>
<path d="M380.739 246.977L306.885 289.561V204.417C306.885 198.34 310.127 192.733 315.391 189.706L389.245 147.122V232.266C389.245 238.343 386.003 243.951 380.739 246.977Z" fill="#121314"/>
<path d="M299.671 190.433L202.906 134.64L289.45 84.7363C295.77 81.0996 303.572 81.0996 309.893 84.7363L396.436 134.64L299.671 190.433Z" fill="#121314"/>
<path d="M299.671 189.856L203.907 134.64L289.699 85.1697L299.671 189.856ZM299.671 189.856L395.435 134.64M299.671 189.856L395.435 134.64M395.435 134.64L309.643 85.1697L395.435 134.64ZM289.699 85.1694C295.866 81.6219 303.477 81.6219 309.643 85.1694H289.699Z" stroke="white" stroke-opacity="0.3"/>
<path d="M291.164 177.881L216.158 134.64L291.164 91.3994C296.427 88.3727 302.913 88.3727 308.177 91.3994L383.182 134.64L308.177 177.881C302.913 180.908 296.427 180.908 291.164 177.881Z" fill="#121314"/>
<path d="M299.67 174.455L230.633 134.64L299.67 94.8481L368.707 134.64L299.67 174.455Z" fill="#121314"/>
<path d="M299.671 167.745L202.906 111.952L299.671 56.1826L396.436 111.952L299.671 167.745Z" fill="#121314"/>
<path d="M299.671 157.563L202.906 101.77L299.671 46L396.436 101.77L299.671 157.563Z" fill="#121314"/>
<path d="M299.671 156.986L203.907 101.77L299.671 46.5771L395.435 101.77L299.671 156.986Z" stroke="white" stroke-opacity="0.3"/>
<path d="M299.671 155.521L204.692 100.761L202.906 101.77L299.671 157.563L396.436 101.77L394.65 100.761L299.671 155.521Z" fill="#121314"/>
<path d="M299.67 149.398L217.074 101.77L299.67 54.165L382.265 101.77L299.67 149.398Z" fill="#121314"/>
<path d="M396.435 101.77V111.952L299.67 167.745V157.563L396.435 101.77Z" fill="#121314"/>
<path d="M300.17 157.851L395.935 102.635V111.663L300.17 166.88V157.851Z" stroke="white" stroke-opacity="0.3"/>
<path d="M202.906 101.77V111.952L299.671 167.745V157.563L202.906 101.77Z" fill="#121314"/>
<path d="M299.171 166.88L203.406 111.663V102.635L299.171 157.851V166.88Z" stroke="white" stroke-opacity="0.3"/>
<g filter="url(#filter1_b_2504_5781)">
<path d="M268.113 301.879L194.916 259.694C189.653 256.667 186.41 251.06 186.41 244.983V160.613L259.607 202.798C264.87 205.825 268.113 211.432 268.113 217.509V301.879Z" fill="url(#paint2_linear_2504_5781)" stroke="white" stroke-opacity="0.3"/>
<path d="M331.229 301.879L404.425 259.694C409.688 256.667 412.931 251.06 412.931 244.983V160.613L339.735 202.798C334.471 205.825 331.229 211.432 331.229 217.509V301.879Z" fill="url(#paint3_linear_2504_5781)" stroke="white" stroke-opacity="0.3"/>
</g>
<path d="M524.589 145L491 90.7213L520.411 34L554 88.2787L524.589 145Z" fill="#121314"/>
<path d="M553.425 88.3005L524.551 143.988L491.575 90.6995L520.449 35.0122L553.425 88.3005Z" stroke="white" stroke-opacity="0.3"/>
<path d="M524.861 136.449L496.006 90.6744L521.266 42.835L550.122 88.6097L524.861 136.449Z" fill="#121314"/>
<path d="M524.861 136.449L496.006 90.6744L521.266 42.835L550.122 88.6097L524.861 136.449Z" fill="#121314"/>
<path d="M524.861 136.449L496.006 90.6744L521.266 42.835L550.122 88.6097L524.861 136.449Z" fill="#121314"/>
<path d="M589.418 142.565L526 145L555.606 88.4583L619 86L589.418 142.565Z" fill="#121314"/>
<path d="M618.157 86.5331L589.109 142.077L526.843 144.467L555.914 88.9467L618.157 86.5331Z" stroke="white" stroke-opacity="0.3"/>
<path d="M586.754 138.607L532.191 140.672L557.663 92.4573L612.249 90.3691L586.754 138.607Z" fill="#121314"/>
<path d="M555.74 87L522 34.3685L585.283 32L619 84.6087L555.74 87Z" fill="#121314"/>
<path d="M618.107 84.1421L556.007 86.4896L522.893 34.8354L585.016 32.5103L618.107 84.1421Z" stroke="white" stroke-opacity="0.3"/>
<path d="M555.572 87.5538L521.922 34.1538L520.936 34.2007L555.125 88.4219L619.228 85.9583L618.711 85.1372L555.572 87.5538Z" fill="black"/>
<path d="M557.17 84.527L527.656 37.7434L582.994 35.6318L612.508 82.4155L557.17 84.527Z" fill="#121314"/>
<g filter="url(#filter2_b_2504_5781)">
<path d="M599.609 12.7671L634.109 67.2671L569.609 69.7671L536.608 15.7672L599.609 12.7671Z" fill="url(#paint4_linear_2504_5781)"/>
<path d="M599.609 12.7671L634.109 67.2671L569.609 69.7671L536.608 15.7672L599.609 12.7671Z" stroke="#595A5A"/>
</g>
<path d="M104.391 526.79L39.3955 523.834L9.45898 466.164L74.4546 469.097L104.391 526.79Z" fill="#121314"/>
<path d="M74.1437 469.583L103.548 526.251L39.7064 523.347L10.3019 466.702L74.1437 469.583Z" stroke="white" stroke-opacity="0.3"/>
<path d="M96.9897 522.051L42.1218 519.587L16.8379 470.88L71.7293 473.367L96.9897 522.051Z" fill="#121314"/>
<path d="M96.9897 522.051L42.1218 519.587L16.8379 470.88L71.7293 473.367L96.9897 522.051Z" fill="#121314"/>
<path d="M96.9897 522.051L42.1218 519.587L16.8379 470.88L71.7293 473.367L96.9897 522.051Z" fill="#121314"/>
<path d="M139.461 471.515L104.939 525.567L75.4609 468.596L109.96 414.567L139.461 471.515Z" fill="#121314"/>
<path d="M138.884 471.489L104.984 524.567L76.0375 468.622L109.915 415.567L138.884 471.489Z" stroke="white" stroke-opacity="0.3"/>
<path d="M134.61 471.818L104.767 518.414L79.2952 469.331L109.114 422.735L134.61 471.818Z" fill="#121314"/>
<path d="M74.423 467.544L9.46289 464.677L14.2539 457.36C32.9716 428.781 65.8509 412.128 100.562 413.665L109.463 414.055L74.423 467.567V467.544Z" fill="#121314"/>
<path d="M100.54 414.165L108.563 414.516L74.1752 467.033L10.3623 464.217L14.6721 457.634C14.6722 457.634 14.6722 457.634 14.6722 457.634C33.2912 429.205 66.0015 412.636 100.54 414.165L100.54 414.165Z" stroke="white" stroke-opacity="0.3"/>
<g filter="url(#filter3_b_2504_5781)">
<path d="M65.9956 453.213L1 450.28L5.7936 442.796C24.5215 413.562 57.4188 396.528 92.1489 398.1L101.055 398.499L65.9956 453.236V453.213Z" fill="url(#paint5_linear_2504_5781)"/>
<path d="M65.9956 453.213L1 450.28L5.7936 442.796C24.5215 413.562 57.4188 396.528 92.1489 398.1L101.055 398.499L65.9956 453.236V453.213Z" stroke="#595A5A"/>
</g>
<path d="M536.159 517.987L472.608 523.968L434.856 472.421L498.406 466.44L536.159 517.987Z" fill="#121314"/>
<path d="M498.171 466.964L535.235 517.571L472.844 523.443L435.78 472.836L498.171 466.964Z" stroke="white" stroke-opacity="0.3"/>
<path d="M528.618 513.945L474.79 519.463L443.151 475.58L496.98 470.062L528.618 513.945Z" fill="#121314"/>
<path d="M528.618 513.945L474.79 519.463L443.151 475.58L496.98 470.062L528.618 513.945Z" fill="#121314"/>
<path d="M528.618 513.945L474.79 519.463L443.151 475.58L496.98 470.062L528.618 513.945Z" fill="#121314"/>
<path d="M562.777 458.824L536.787 516.723L499.282 465.081L525.241 407.193L562.777 458.824Z" fill="#121314"/>
<path d="M525.344 408.185L562.202 458.884L536.684 515.73L499.856 465.021L525.344 408.185Z" stroke="white" stroke-opacity="0.3"/>
<path d="M558.047 459.452L535.659 509.253L503.778 465.014L526.155 415.182L558.047 459.452Z" fill="#121314"/>
<path d="M498.035 464.313L435.893 471.161L461.883 413.412L523.994 406.575L498.035 464.313Z" fill="#121314"/>
<path d="M523.18 407.168L497.696 463.847L436.708 470.568L462.222 413.878L523.18 407.168Z" stroke="white" stroke-opacity="0.3"/>
<path d="M498.456 464.709L435.667 471.134L435.27 472.039L499.036 465.494L525.305 406.97L524.34 407.068L498.456 464.709Z" fill="black"/>
<path d="M496.454 461.933L441.429 467.592L464.12 417.076L519.144 411.417L496.454 461.933Z" fill="#121314"/>
<path d="M542.962 127.812L512.932 184.661L513.19 185.083L513.637 185.06L543.691 128.187L542.962 127.812Z" fill="black"/>
<defs>
<filter id="filter0_b_2504_5781" x="173.291" y="304.531" width="251.938" height="167.414" filterUnits="userSpaceOnUse" color-interpolation-filters="sRGB">
<feFlood flood-opacity="0" result="BackgroundImageFix"/>
<feGaussianBlur in="BackgroundImageFix" stdDeviation="6.10429"/>
<feComposite in2="SourceAlpha" operator="in" result="effect1_backgroundBlur_2504_5781"/>
<feBlend mode="normal" in="SourceGraphic" in2="effect1_backgroundBlur_2504_5781" result="shape"/>
</filter>
<filter id="filter1_b_2504_5781" x="173.702" y="147.539" width="251.938" height="167.414" filterUnits="userSpaceOnUse" color-interpolation-filters="sRGB">
<feFlood flood-opacity="0" result="BackgroundImageFix"/>
<feGaussianBlur in="BackgroundImageFix" stdDeviation="6.10429"/>
<feComposite in2="SourceAlpha" operator="in" result="effect1_backgroundBlur_2504_5781"/>
<feBlend mode="normal" in="SourceGraphic" in2="effect1_backgroundBlur_2504_5781" result="shape"/>
</filter>
<filter id="filter2_b_2504_5781" x="523.533" y="0.0453053" width="123.672" height="82.4413" filterUnits="userSpaceOnUse" color-interpolation-filters="sRGB">
<feFlood flood-opacity="0" result="BackgroundImageFix"/>
<feGaussianBlur in="BackgroundImageFix" stdDeviation="6.10429"/>
<feComposite in2="SourceAlpha" operator="in" result="effect1_backgroundBlur_2504_5781"/>
<feBlend mode="normal" in="SourceGraphic" in2="effect1_backgroundBlur_2504_5781" result="shape"/>
</filter>
<filter id="filter3_b_2504_5781" x="-12.0972" y="385.291" width="126.249" height="81.8611" filterUnits="userSpaceOnUse" color-interpolation-filters="sRGB">
<feFlood flood-opacity="0" result="BackgroundImageFix"/>
<feGaussianBlur in="BackgroundImageFix" stdDeviation="6.10429"/>
<feComposite in2="SourceAlpha" operator="in" result="effect1_backgroundBlur_2504_5781"/>
<feBlend mode="normal" in="SourceGraphic" in2="effect1_backgroundBlur_2504_5781" result="shape"/>
</filter>
<linearGradient id="paint0_linear_2504_5781" x1="191.5" y1="333" x2="261.468" y2="455.958" gradientUnits="userSpaceOnUse">
<stop stop-color="#1A1C1E" stop-opacity="0"/>
<stop offset="1" stop-color="#9EE50D"/>
</linearGradient>
<linearGradient id="paint1_linear_2504_5781" x1="366.282" y1="317.604" x2="359.284" y2="449.254" gradientUnits="userSpaceOnUse">
<stop stop-color="#1A1C1E" stop-opacity="0"/>
<stop offset="1" stop-color="#9EE50D"/>
</linearGradient>
<linearGradient id="paint2_linear_2504_5781" x1="183" y1="174" x2="273.105" y2="300.726" gradientUnits="userSpaceOnUse">
<stop stop-color="#1A1C1E" stop-opacity="0"/>
<stop offset="1" stop-color="#9EE50D"/>
</linearGradient>
<linearGradient id="paint3_linear_2504_5781" x1="408" y1="178.5" x2="337.744" y2="309.053" gradientUnits="userSpaceOnUse">
<stop stop-color="#1A1C1E" stop-opacity="0"/>
<stop offset="1" stop-color="#9EE50D"/>
</linearGradient>
<linearGradient id="paint4_linear_2504_5781" x1="534.348" y1="26.3226" x2="636.846" y2="53.5987" gradientUnits="userSpaceOnUse">
<stop stop-color="#1A1C1E" stop-opacity="0"/>
<stop offset="1" stop-color="#9EE50D"/>
</linearGradient>
<linearGradient id="paint5_linear_2504_5781" x1="44.4293" y1="398" x2="45.3062" y2="453.259" gradientUnits="userSpaceOnUse">
<stop stop-color="#1A1C1E" stop-opacity="0"/>
<stop offset="1" stop-color="#9EE50D"/>
</linearGradient>
</defs>
</svg>
