<svg width="408" height="437" viewBox="0 0 408 437" fill="none" xmlns="http://www.w3.org/2000/svg">
<g clip-path="url(#clip0_1918_10145)">
<path d="M202.874 323.296L118.373 274.503V176.953L202.874 225.728V323.296Z" fill="#121314"/>
<path d="M196.283 311.89L124.967 270.708V188.342L196.283 229.525V311.89Z" fill="#121314"/>
<path d="M196.283 311.89L124.967 270.708V188.342L196.283 229.525V311.89Z" fill="#121314"/>
<path d="M196.283 311.89L124.967 270.708V188.342L196.283 229.525V311.89Z" fill="#121314"/>
<path d="M287.355 274.503L202.871 323.296V225.728L287.355 176.953V274.503Z" fill="#121314"/>
<path d="M281.071 270.877L209.162 312.399V229.355L281.071 187.833V270.877Z" fill="#121314"/>
<path d="M202.874 225.727L118.373 176.952L202.857 128.176L287.358 176.952L202.874 225.727Z" fill="#121314"/>
<path d="M202.874 224.236L119.678 176.206L118.373 176.952L202.874 225.728L287.358 176.952L286.053 176.206L202.874 224.236Z" fill="#121314"/>
<path d="M202.875 219.051L129.949 176.953L202.858 134.854L275.784 176.953L202.875 219.051Z" fill="#121314"/>
<g opacity="0.5">
<mask id="mask0_1918_10145" style="mask-type:luminance" maskUnits="userSpaceOnUse" x="124" y="188" width="73" height="124">
<path d="M196.283 311.891L124.967 270.708V188.343L196.283 229.526V311.891Z" fill="white"/>
</mask>
<g mask="url(#mask0_1918_10145)">
<path d="M200.52 229.509V228.814L199.046 227.966V226.272L198.436 225.916V227.611L183.81 219.171V217.476L183.2 217.12V218.815L168.574 210.375V208.68L167.964 208.324V210.019L153.338 201.579V199.884L152.728 199.528V201.223L138.102 192.783V191.088L137.492 190.732V192.427L122.866 183.987V182.292L122.256 181.937V183.631L120.781 182.784V183.479L122.256 184.326V201.206L120.781 200.359V201.054L122.256 201.901V218.781L120.781 217.933V218.628L122.256 219.476V236.356L120.781 235.508V236.203L122.256 237.05V253.93L120.781 253.083V253.778L122.256 254.625V271.505L120.781 270.658V271.352L122.256 272.2V273.895L122.866 274.251V272.556L137.492 280.996V282.69L138.102 283.046V281.352L152.728 289.792V291.486L153.338 291.842V290.147L167.964 298.587V300.282L168.574 300.638V298.943L183.2 307.383V309.078L183.81 309.434V307.739L198.436 316.179V317.874L199.046 318.23V316.535L200.52 317.382V316.688L199.046 315.84V298.96L200.52 299.808V299.113L199.046 298.265V281.385L200.52 282.233V281.538L199.046 280.691V263.811L200.52 264.658V263.963L199.046 263.116V246.236L200.52 247.083V246.389L199.046 245.541V228.661L200.52 229.509ZM183.217 219.526V236.406L168.591 227.966V211.087L183.217 219.526ZM153.355 236.762V219.882L167.981 228.322V245.202L153.355 236.762ZM167.981 245.897V262.777L153.355 254.337V237.457L167.981 245.897ZM152.745 236.406L138.119 227.966V211.087L152.745 219.526V236.406ZM152.745 237.101V253.981L138.119 245.541V228.661L152.745 237.101ZM152.745 254.693V271.573L138.119 263.133V246.253L152.745 254.693ZM153.355 255.049L167.981 263.489V280.369L153.355 271.929V255.049ZM168.591 263.845L183.217 272.285V289.164L168.591 280.725V263.845ZM168.591 263.15V246.27L183.217 254.71V271.59L168.591 263.15ZM168.591 245.558V228.678L183.217 237.118V253.998L168.591 245.558ZM167.981 210.731V227.611L153.355 219.171V202.291L167.981 210.731ZM152.745 201.935V218.815L138.119 210.375V193.495L152.745 201.935ZM122.883 184.699L137.509 193.139V210.019L122.883 201.579V184.699ZM122.883 202.291L137.509 210.731V227.611L122.883 219.171V202.291ZM122.883 219.882L137.509 228.322V245.202L122.883 236.762V219.882ZM122.883 237.474L137.509 245.914V262.794L122.883 254.354V237.474ZM122.883 271.946V255.066L137.509 263.506V280.386L122.883 271.946ZM138.119 280.741V263.862L152.745 272.302V289.181L138.119 280.741ZM153.355 289.537V272.657L167.981 281.097V297.977L153.355 289.537ZM168.591 298.333V281.453L183.217 289.893V306.773L168.591 298.333ZM198.452 315.569L183.827 307.129V290.249L198.452 298.689V315.569ZM198.452 297.977L183.827 289.537V272.657L198.452 281.097V297.977ZM198.452 280.386L183.827 271.946V255.066L198.452 263.506V280.386ZM198.452 262.794L183.827 254.354V237.474L198.452 245.914V262.794ZM198.452 245.202L183.827 236.762V219.882L198.452 228.322V245.202Z" fill="#121314"/>
</g>
</g>
<g opacity="0.5">
<mask id="mask1_1918_10145" style="mask-type:luminance" maskUnits="userSpaceOnUse" x="209" y="187" width="73" height="126">
<path d="M209.166 312.399L281.075 270.877V187.833L209.166 229.355V312.399Z" fill="white"/>
</mask>
<g mask="url(#mask1_1918_10145)">
<path d="M206.373 228.492V245.524L204.899 246.372V247.084L206.373 246.236V263.269L204.899 264.116V264.828L206.373 263.98V281.013L204.899 281.86V282.572L206.373 281.725V298.757L204.899 299.604V300.316L206.373 299.469V316.501L204.899 317.349V318.06L206.373 317.213V318.925L206.983 318.569V316.857L221.728 308.349V310.061L222.338 309.705V307.994L237.082 299.486V301.198L237.692 300.842V299.13L252.437 290.622V292.334L253.047 291.978V290.266L267.791 281.759V283.47L268.401 283.114V281.403L283.146 272.895V274.607L283.756 274.251V272.539L285.231 271.692V270.98L283.756 271.827V254.795L285.231 253.947V253.236L283.756 254.083V237.051L285.231 236.203V235.491L283.756 236.339V219.306L285.231 218.459V217.747L283.756 218.595V201.562L285.231 200.715V200.003L283.756 200.85V183.818L285.231 182.971V182.259L283.756 183.106V181.394L283.146 181.75V183.462L268.401 191.97V190.258L267.791 190.614V192.326L253.047 200.833V199.122L252.437 199.478V201.189L237.692 209.697V207.985L237.082 208.341V210.053L222.338 218.561V216.849L221.728 217.205V218.917L206.983 227.424V225.713L206.373 226.068V227.78L204.899 228.628V229.339L206.373 228.492ZM237.082 210.765V227.797L222.338 236.305V219.272L237.082 210.765ZM237.692 245.169V228.136L252.437 219.628V236.661L237.692 245.169ZM252.437 237.356V254.388L237.692 262.896V245.863L252.437 237.356ZM253.047 219.272L267.791 210.765V227.797L253.047 236.305V219.272ZM267.791 228.492V245.524L253.047 254.032V237L267.791 228.492ZM267.791 246.219V263.252L253.047 271.759V254.727L267.791 246.219ZM252.437 272.115L237.692 280.623V263.591L252.437 255.083V272.115ZM237.082 280.979L222.338 289.487V272.454L237.082 263.947V280.979ZM222.338 271.759V254.727L237.082 246.219V263.252L222.338 271.759ZM222.338 254.032V237L237.082 228.492V245.524L222.338 254.032ZM252.437 201.884V218.917L237.692 227.424V210.392L252.437 201.884ZM267.791 193.021V210.053L253.047 218.561V201.528L267.791 193.021ZM283.146 201.189L268.401 209.697V192.665L283.146 184.157V201.189ZM283.146 218.917L268.401 227.424V210.392L283.146 201.884V218.917ZM283.146 236.644L268.401 245.152V228.119L283.146 219.611V236.644ZM283.146 254.371L268.401 262.879V245.846L283.146 237.339V254.371ZM268.401 280.623V263.591L283.146 255.083V272.115L268.401 280.623ZM253.047 289.487V272.454L267.791 263.947V280.979L253.047 289.487ZM237.692 298.35V281.318L252.437 272.81V289.843L237.692 298.35ZM222.338 307.214V290.182L237.082 281.674V298.706L222.338 307.214ZM206.983 299.045L221.728 290.537V307.57L206.983 316.078V299.045ZM206.983 281.318L221.728 272.81V289.843L206.983 298.35V281.318ZM206.983 263.591L221.728 255.083V272.115L206.983 280.623V263.591ZM206.983 245.863L221.728 237.356V254.388L206.983 262.896V245.863ZM206.983 228.136L221.728 219.628V236.661L206.983 245.169V228.136Z" fill="#121314"/>
</g>
</g>
<g opacity="0.3">
<mask id="mask2_1918_10145" style="mask-type:luminance" maskUnits="userSpaceOnUse" x="129" y="134" width="147" height="86">
<path d="M202.877 219.047L129.951 176.949L202.86 134.851L275.786 176.949L202.877 219.047Z" fill="white"/>
</mask>
<g mask="url(#mask2_1918_10145)">
<path d="M122.055 178.188L121.428 177.832L204.404 129.921L205.031 130.294L122.055 178.188Z" fill="#121314"/>
<path d="M137.916 187.34L137.289 186.984L220.248 139.09L220.875 139.446L137.916 187.34Z" fill="#121314"/>
<path d="M153.783 196.508L153.139 196.135L236.115 148.241L236.742 148.597L153.783 196.508Z" fill="#121314"/>
<path d="M169.627 205.66L169 205.288L251.959 157.393L252.603 157.749L169.627 205.66Z" fill="#121314"/>
<path d="M185.488 214.812L184.861 214.457L267.82 166.545L268.447 166.918L185.488 214.812Z" fill="#121314"/>
<path d="M201.336 223.963L200.709 223.607L283.685 175.696L284.312 176.069L201.336 223.963Z" fill="#121314"/>
<path d="M200.709 130.294L201.336 129.921L284.312 177.832L283.685 178.188L200.709 130.294Z" fill="#121314"/>
<path d="M184.861 139.446L185.488 139.09L268.447 186.984L267.82 187.357L184.861 139.446Z" fill="#121314"/>
<path d="M169 148.597L169.627 148.241L252.603 196.135L251.959 196.508L169 148.597Z" fill="#121314"/>
<path d="M153.139 157.749L153.783 157.394L236.742 205.288L236.115 205.661L153.139 157.749Z" fill="#121314"/>
<path d="M137.289 166.918L137.916 166.545L220.875 214.457L220.248 214.812L137.289 166.918Z" fill="#121314"/>
<path d="M121.428 176.069L122.055 175.696L205.031 223.607L204.404 223.963L121.428 176.069Z" fill="#121314"/>
</g>
</g>
<g opacity="0.5">
<path d="M151.695 224.811C151.357 224.811 150.984 224.692 150.611 224.489C149.34 223.76 148.34 222.031 148.34 220.557C148.34 219.794 148.611 219.218 149.102 218.93C149.594 218.642 150.221 218.693 150.882 219.083C152.153 219.811 153.153 221.54 153.153 223.014C153.153 223.777 152.882 224.353 152.39 224.641C152.187 224.76 151.95 224.828 151.695 224.828V224.811ZM149.797 219.303C149.645 219.303 149.509 219.337 149.374 219.405C149.069 219.591 148.882 219.981 148.882 220.54C148.882 221.811 149.78 223.353 150.882 223.997C151.357 224.269 151.797 224.319 152.119 224.15C152.424 223.963 152.611 223.574 152.611 223.014C152.611 221.743 151.712 220.201 150.611 219.557C150.323 219.388 150.035 219.303 149.797 219.303Z" fill="#121314"/>
<path d="M173.217 244.369C172.878 244.369 172.505 244.25 172.133 244.03C170.861 243.301 169.862 241.572 169.862 240.098C169.862 239.335 170.133 238.759 170.624 238.471C171.116 238.183 171.76 238.234 172.404 238.623C173.675 239.352 174.675 241.081 174.675 242.555C174.675 243.318 174.404 243.894 173.912 244.182C173.709 244.301 173.471 244.369 173.217 244.369ZM171.319 238.861C171.167 238.861 171.014 238.895 170.895 238.962C170.59 239.149 170.404 239.539 170.404 240.098C170.404 241.369 171.302 242.911 172.404 243.555C172.878 243.826 173.319 243.894 173.641 243.708C173.946 243.521 174.132 243.132 174.132 242.572C174.132 241.301 173.234 239.759 172.133 239.115C171.844 238.945 171.556 238.861 171.319 238.861Z" fill="#121314"/>
<path d="M186.078 246.368C185.739 246.368 185.367 246.249 184.994 246.029C183.723 245.3 182.723 243.571 182.723 242.097C182.723 241.334 182.994 240.758 183.485 240.47C183.977 240.182 184.621 240.233 185.265 240.623C186.536 241.351 187.536 243.08 187.536 244.554C187.536 245.317 187.265 245.893 186.773 246.181C186.57 246.3 186.333 246.368 186.078 246.368ZM184.18 240.86C184.028 240.86 183.892 240.894 183.756 240.962C183.451 241.148 183.265 241.555 183.265 242.097C183.265 243.368 184.163 244.91 185.265 245.554C185.739 245.826 186.18 245.893 186.502 245.707C186.824 245.52 186.993 245.114 186.993 244.571C186.993 243.3 186.095 241.758 184.994 241.114C184.706 240.945 184.417 240.86 184.18 240.86Z" fill="#121314"/>
</g>
<g opacity="0.3">
<path d="M254.041 224.81C253.787 224.81 253.55 224.742 253.347 224.623C252.855 224.335 252.584 223.759 252.584 222.996C252.584 221.522 253.584 219.793 254.855 219.065C255.516 218.692 256.143 218.641 256.634 218.912C257.126 219.2 257.397 219.776 257.397 220.539C257.397 222.013 256.397 223.742 255.126 224.471C254.753 224.691 254.38 224.793 254.041 224.793V224.81ZM255.94 219.302C255.702 219.302 255.414 219.387 255.126 219.556C254.025 220.183 253.126 221.742 253.126 223.013C253.126 223.573 253.296 223.979 253.618 224.149C253.94 224.335 254.364 224.284 254.855 223.996C255.957 223.352 256.855 221.81 256.855 220.539C256.855 219.98 256.685 219.573 256.363 219.403C256.245 219.336 256.109 219.302 255.94 219.302Z" fill="#121314"/>
<path d="M232.52 244.368C232.266 244.368 232.029 244.3 231.825 244.182C231.334 243.894 231.062 243.317 231.062 242.555C231.062 241.08 232.062 239.352 233.333 238.623C233.994 238.25 234.622 238.182 235.113 238.47C235.604 238.759 235.876 239.335 235.876 240.097C235.876 241.572 234.876 243.301 233.605 244.029C233.232 244.25 232.859 244.368 232.52 244.368ZM234.418 238.86C234.181 238.86 233.893 238.945 233.605 239.114C232.503 239.758 231.605 241.301 231.605 242.572C231.605 243.131 231.774 243.538 232.096 243.707C232.418 243.894 232.842 243.843 233.333 243.555C234.435 242.928 235.333 241.368 235.333 240.097C235.333 239.538 235.164 239.131 234.842 238.962C234.723 238.894 234.571 238.86 234.418 238.86Z" fill="#121314"/>
<path d="M219.659 246.368C219.404 246.368 219.167 246.3 218.964 246.182C218.472 245.893 218.201 245.317 218.201 244.555C218.201 243.08 219.201 241.351 220.472 240.623C221.133 240.233 221.76 240.182 222.252 240.47C222.743 240.758 223.014 241.335 223.014 242.097C223.014 243.572 222.014 245.3 220.743 246.029C220.37 246.249 219.998 246.368 219.659 246.368ZM221.557 240.86C221.32 240.86 221.031 240.945 220.743 241.114C219.642 241.758 218.744 243.3 218.744 244.572C218.744 245.131 218.913 245.538 219.235 245.707C219.557 245.893 219.981 245.843 220.472 245.554C221.574 244.91 222.472 243.368 222.472 242.097C222.472 241.538 222.303 241.131 221.98 240.962C221.862 240.894 221.709 240.86 221.557 240.86Z" fill="#121314"/>
</g>
<path d="M202.219 225.015V322.904L202.88 323.294L203.456 322.938V225.015H202.219Z" fill="#121314"/>
<path d="M299.851 380.56L215.367 331.785V234.217L299.851 282.992V380.56Z" fill="#121314"/>
<path d="M299.512 283.188V379.973L215.706 331.589V234.804L299.512 283.188Z" stroke="white" stroke-opacity="0.3" stroke-width="0.677907"/>
<path d="M293.274 369.153L221.941 327.971V245.622L293.274 286.805V369.153Z" fill="#121314"/>
<path d="M293.274 369.153L221.941 327.971V245.622L293.274 286.805V369.153Z" fill="#121314"/>
<path d="M293.274 369.153L221.941 327.971V245.622L293.274 286.805V369.153Z" fill="#121314"/>
<path d="M384.336 331.785L299.852 380.56V282.992L384.336 234.217V331.785Z" fill="#121314"/>
<path d="M383.997 234.804V331.589L300.191 379.973V283.188L383.997 234.804Z" stroke="white" stroke-opacity="0.3" stroke-width="0.677907"/>
<path d="M378.048 328.141L306.139 369.662V286.636L378.048 245.114V328.141Z" fill="#121314"/>
<path d="M299.851 282.992L215.367 234.216L299.851 185.441L384.336 234.216L299.851 282.992Z" fill="#121314"/>
<path d="M299.851 282.6L216.045 234.216L299.851 185.832L383.658 234.216L299.851 282.6Z" stroke="white" stroke-opacity="0.3" stroke-width="0.677907"/>
<path d="M299.85 276.315L226.924 234.217L299.85 192.119L372.776 234.217L299.85 276.315Z" fill="#121314"/>
<g opacity="0.5">
<mask id="mask3_1918_10145" style="mask-type:luminance" maskUnits="userSpaceOnUse" x="221" y="245" width="73" height="125">
<path d="M293.278 369.151L221.945 327.968V245.619L293.278 286.802V369.151Z" fill="white"/>
</mask>
<g mask="url(#mask3_1918_10145)">
<path d="M297.512 286.77V286.075L296.038 285.228V283.533L295.428 283.177V284.872L280.802 276.432V274.737L280.192 274.381V276.076L265.566 267.636V265.941L264.956 265.586V267.28L250.33 258.84V257.146L249.72 256.79V258.484L235.094 250.045V248.35L234.484 247.994V249.689L219.858 241.249V239.554L219.248 239.198V240.893L217.773 240.045V240.74L219.248 241.588V258.468L217.773 257.62V258.315L219.248 259.162V276.042L217.773 275.195V275.89L219.248 276.737V293.617L217.773 292.77V293.464L219.248 294.312V311.192L217.773 310.344V311.039L219.248 311.887V328.766L217.773 327.919V328.614L219.248 329.461V331.156L219.858 331.512V329.817L234.484 338.257V339.952L235.094 340.308V338.613L249.72 347.053V348.748L250.33 349.104V347.409L264.956 355.849V357.544L265.566 357.9V356.205L280.192 364.645V366.339L280.802 366.695V365.001L295.428 373.441V375.135L296.038 375.491V373.796L297.512 374.644V373.949L296.038 373.102V356.222L297.512 357.069V356.374L296.038 355.527V338.647L297.512 339.494V338.8L296.038 337.952V321.072L297.512 321.92V321.225L296.038 320.377V303.497L297.512 304.345V303.65L296.038 302.803V285.923L297.512 286.77ZM280.209 276.788V293.668L265.583 285.228V268.348L280.209 276.788ZM250.347 294.024V277.144L264.973 285.584V302.464L250.347 294.024ZM264.973 303.175V320.055L250.347 311.615V294.736L264.973 303.175ZM249.737 293.685L235.111 285.245V268.365L249.737 276.805V293.685ZM249.737 294.38V311.26L235.111 302.82V285.94L249.737 294.38ZM249.737 311.971V328.851L235.111 320.411V303.531L249.737 311.971ZM250.347 312.327L264.973 320.767V337.647L250.347 329.207V312.327ZM265.583 321.123L280.209 329.563V346.443L265.583 338.003V321.123ZM265.583 320.428V303.548L280.209 311.988V328.868L265.583 320.428ZM265.583 302.837V285.957L280.209 294.397V311.276L265.583 302.837ZM264.973 268.009V284.889L250.347 276.449V259.569L264.973 268.009ZM249.737 259.213V276.093L235.111 267.653V250.773L249.737 259.213ZM219.875 241.977L234.501 250.417V267.297L219.875 258.857V241.977ZM219.875 259.569L234.501 268.009V284.889L219.875 276.449V259.569ZM219.875 277.161L234.501 285.601V302.481L219.875 294.041V277.161ZM219.875 294.752L234.501 303.192V320.072L219.875 311.632V294.752ZM219.875 329.224V312.344L234.501 320.784V337.664L219.875 329.224ZM235.111 338.02V321.14L249.737 329.58V346.46L235.111 338.02ZM250.347 346.816V329.936L264.973 338.376V355.256L250.347 346.816ZM265.583 355.612V338.732L280.209 347.172V364.052L265.583 355.612ZM295.445 372.847L280.819 364.407V347.528L295.445 355.967V372.847ZM295.445 355.256L280.819 346.816V329.936L295.445 338.376V355.256ZM295.445 337.664L280.819 329.224V312.344L295.445 320.784V337.664ZM295.445 320.072L280.819 311.632V294.752L295.445 303.192V320.072ZM295.445 302.481L280.819 294.041V277.161L295.445 285.601V302.481Z" fill="#121314"/>
</g>
</g>
<path d="M106.484 379.373L21.9824 330.598V233.03L106.484 281.805V379.373Z" fill="#121314"/>
<path d="M106.145 282.001V378.786L22.3214 330.402V233.617L106.145 282.001Z" stroke="white" stroke-opacity="0.3" stroke-width="0.677907"/>
<path d="M99.892 367.967L28.5762 326.784V244.435L99.892 285.618V367.967Z" fill="#121314"/>
<path d="M99.892 367.967L28.5762 326.784V244.435L99.892 285.618V367.967Z" fill="#121314"/>
<path d="M99.892 367.967L28.5762 326.784V244.435L99.892 285.618V367.967Z" fill="#121314"/>
<path d="M190.965 330.598L106.48 379.373V281.806L190.965 233.03V330.598Z" fill="#121314"/>
<path d="M190.626 233.617V330.402L106.819 378.786V282.001L190.626 233.617Z" stroke="white" stroke-opacity="0.3" stroke-width="0.677907"/>
<path d="M184.68 326.954L112.771 368.476V285.449L184.68 243.927V326.954Z" fill="#121314"/>
<path d="M106.484 281.805L21.9824 233.029L106.484 184.254L190.968 233.029L106.484 281.805Z" fill="#121314"/>
<path d="M106.484 281.413L22.6604 233.029L106.484 184.645L190.29 233.029L106.484 281.413Z" stroke="white" stroke-opacity="0.3" stroke-width="0.677907"/>
<path d="M106.484 275.128L33.5586 233.03L106.484 190.932L179.393 233.03L106.484 275.128Z" fill="#121314"/>
<g opacity="0.5">
<mask id="mask4_1918_10145" style="mask-type:luminance" maskUnits="userSpaceOnUse" x="112" y="243" width="73" height="126">
<path d="M112.77 368.476L184.679 326.954V243.927L112.77 285.449V368.476Z" fill="white"/>
</mask>
<g mask="url(#mask4_1918_10145)">
<path d="M109.974 284.569V301.601L108.5 302.448V303.16L109.974 302.313V319.345L108.5 320.193V320.905L109.974 320.057V337.09L108.5 337.937V338.649L109.974 337.801V354.834L108.5 355.681V356.393L109.974 355.546V372.578L108.5 373.425V374.137L109.974 373.29V375.001L110.585 374.646V372.934L125.329 364.426V366.138L125.939 365.782V364.07L140.684 355.563V357.274L141.294 356.918V355.207L156.038 346.699V348.411L156.648 348.055V346.343L171.393 337.835V339.547L172.003 339.191V337.479L186.747 328.972V330.683L187.358 330.327V328.616L188.832 327.768V327.056L187.358 327.904V310.871L188.832 310.024V309.312L187.358 310.16V293.127L188.832 292.28V291.568L187.358 292.415V275.383L188.832 274.536V273.824L187.358 274.671V257.639L188.832 256.791V256.08L187.358 256.927V239.895L188.832 239.047V238.335L187.358 239.183V237.471L186.747 237.827V239.539L172.003 248.046V246.335L171.393 246.691V248.402L156.648 256.91V255.198L156.038 255.554V257.266L141.294 265.774V264.062L140.684 264.418V266.13L125.939 274.637V272.926L125.329 273.282V274.993L110.585 283.501V281.789L109.974 282.145V283.857L108.5 284.704V285.416L109.974 284.569ZM140.684 266.841V283.874L125.939 292.382V275.349L140.684 266.841ZM141.294 301.245V284.213L156.038 275.705V292.737L141.294 301.245ZM156.038 293.432V310.465L141.294 318.972V301.94L156.038 293.432ZM156.648 275.349L171.393 266.841V283.874L156.648 292.382V275.349ZM171.393 284.569V301.601L156.648 310.109V293.076L171.393 284.569ZM171.393 302.296V319.328L156.648 327.836V310.804L171.393 302.296ZM156.038 328.192L141.294 336.7V319.667L156.038 311.16V328.192ZM140.684 337.056L125.939 345.563V328.531L140.684 320.023V337.056ZM125.939 327.836V310.804L140.684 302.296V319.328L125.939 327.836ZM125.939 310.109V293.076L140.684 284.569V301.601L125.939 310.109ZM156.038 257.978V275.01L141.294 283.518V266.486L156.038 257.978ZM171.393 249.114V266.147L156.648 274.654V257.622L171.393 249.114ZM186.747 257.283L172.003 265.791V248.758L186.747 240.25V257.283ZM186.747 275.01L172.003 283.518V266.486L186.747 257.978V275.01ZM186.747 292.737L172.003 301.245V284.213L186.747 275.705V292.737ZM186.747 310.465L172.003 318.972V301.94L186.747 293.432V310.465ZM172.003 336.717V319.684L186.747 311.177V328.209L172.003 336.717ZM156.648 345.58V328.548L171.393 320.04V337.073L156.648 345.58ZM141.294 354.444V337.412L156.038 328.904V345.936L141.294 354.444ZM125.939 363.308V346.275L140.684 337.767V354.8L125.939 363.308ZM110.585 355.139L125.329 346.631V363.663L110.585 372.171V355.139ZM110.585 337.412L125.329 328.904V345.936L110.585 354.444V337.412ZM110.585 319.684L125.329 311.177V328.209L110.585 336.717V319.684ZM110.585 301.957L125.329 293.449V310.482L110.585 318.989V301.957ZM110.585 284.23L125.329 275.722V292.754L110.585 301.262V284.23Z" fill="#121314"/>
</g>
</g>
<g opacity="0.3">
<mask id="mask5_1918_10145" style="mask-type:luminance" maskUnits="userSpaceOnUse" x="33" y="190" width="147" height="86">
<path d="M106.486 275.127L33.5605 233.029L106.486 190.931L179.395 233.029L106.486 275.127Z" fill="white"/>
</mask>
<g mask="url(#mask5_1918_10145)">
<path d="M25.6772 234.284L25.0332 233.912L108.009 186.017L108.636 186.373L25.6772 234.284Z" fill="#121314"/>
<path d="M41.5216 243.436L40.8945 243.063L123.853 195.169L124.497 195.525L41.5216 243.436Z" fill="#121314"/>
<path d="M57.3867 252.587L56.7596 252.214L139.719 204.32L140.346 204.693L57.3867 252.587Z" fill="#121314"/>
<path d="M73.2328 261.74L72.6057 261.384L155.582 213.473L156.209 213.846L73.2328 261.74Z" fill="#121314"/>
<path d="M89.0939 270.891L88.4668 270.535L171.426 222.624L172.053 222.997L89.0939 270.891Z" fill="#121314"/>
<path d="M104.958 280.042L104.314 279.686L187.29 231.792L187.917 232.148L104.958 280.042Z" fill="#121314"/>
<path d="M104.314 186.373L104.942 186.017L187.917 233.912L187.29 234.284L104.314 186.373Z" fill="#121314"/>
<path d="M88.4668 195.525L89.0939 195.169L172.053 243.063L171.426 243.436L88.4668 195.525Z" fill="#121314"/>
<path d="M72.6057 204.693L73.2328 204.32L156.209 252.214L155.582 252.587L72.6057 204.693Z" fill="#121314"/>
<path d="M56.7441 213.846L57.3882 213.474L140.347 261.385L139.72 261.741L56.7441 213.846Z" fill="#121314"/>
<path d="M40.8945 222.997L41.5216 222.624L124.497 270.535L123.853 270.891L40.8945 222.997Z" fill="#121314"/>
<path d="M25.0332 232.148L25.6603 231.792L108.636 279.686L108.009 280.042L25.0332 232.148Z" fill="#121314"/>
</g>
</g>
<path d="M203.457 436.638L118.973 387.862V290.294L203.457 339.087V436.638Z" fill="#121314"/>
<path d="M203.118 339.282V436.05L119.311 387.666V290.881L203.118 339.282Z" stroke="white" stroke-opacity="0.3" stroke-width="0.677907"/>
<path d="M196.88 425.231L125.547 384.065V301.699L196.88 342.882V425.231Z" fill="#121314"/>
<path d="M196.88 425.231L125.547 384.065V301.699L196.88 342.882V425.231Z" fill="#121314"/>
<path d="M196.88 425.231L125.547 384.065V301.699L196.88 342.882V425.231Z" fill="#121314"/>
<path d="M287.958 387.862L203.457 436.638V339.087L287.958 290.294V387.862Z" fill="#121314"/>
<path d="M287.619 290.882V387.667L203.796 436.051V339.283L287.619 290.882Z" stroke="white" stroke-opacity="0.3" stroke-width="0.677907"/>
<path d="M281.67 384.235L209.744 425.757V342.713L281.67 301.191V384.235Z" fill="#121314"/>
<path d="M203.457 339.086L118.973 290.293L203.457 241.518L287.958 290.293L203.457 339.086Z" fill="#121314"/>
<path d="M203.457 338.694L119.65 290.294L203.457 241.909L287.28 290.294L203.457 338.694Z" stroke="white" stroke-opacity="0.3" stroke-width="0.677907"/>
<path d="M203.458 332.409L130.549 290.294L203.458 248.196L276.383 290.294L203.458 332.409Z" fill="#121314"/>
<path d="M202.874 209.473L118.373 160.681V63.1302L202.874 111.906V209.473Z" fill="#121314"/>
<path d="M202.535 112.101V208.886L118.712 160.485V63.7173L202.535 112.101Z" stroke="white" stroke-opacity="0.3" stroke-width="0.677907"/>
<path d="M196.283 198.067L124.967 156.884V74.5352L196.283 115.701V198.067Z" fill="#121314"/>
<path d="M196.283 198.067L124.967 156.884V74.5352L196.283 115.701V198.067Z" fill="#121314"/>
<path d="M196.283 198.067L124.967 156.884V74.5352L196.283 115.701V198.067Z" fill="#121314"/>
<path d="M287.355 160.681L202.871 209.474V111.906L287.355 63.1304V160.681Z" fill="#121314"/>
<path d="M287.016 63.7174V160.486L203.21 208.886V112.101L287.016 63.7174Z" stroke="white" stroke-opacity="0.3" stroke-width="0.677907"/>
<path d="M281.071 157.054L209.162 198.576V115.532L281.071 74.0273V157.054Z" fill="#121314"/>
<path d="M202.874 111.905L118.373 63.1294L202.857 14.354L287.358 63.1294L202.874 111.905Z" fill="#121314"/>
<path d="M202.874 111.513L119.051 63.1294L202.857 14.7454L286.68 63.1294L202.874 111.513Z" stroke="white" stroke-opacity="0.3" stroke-width="0.677907"/>
<path d="M202.875 105.228L129.949 63.1303L202.858 21.0322L275.784 63.1303L202.875 105.228Z" fill="#121314"/>
<g opacity="0.5">
<mask id="mask6_1918_10145" style="mask-type:luminance" maskUnits="userSpaceOnUse" x="124" y="74" width="73" height="125">
<path d="M196.283 198.067L124.967 156.884V74.5352L196.283 115.701V198.067Z" fill="white"/>
</mask>
<g mask="url(#mask6_1918_10145)">
<path d="M200.52 115.686V114.991L199.046 114.144V112.449L198.436 112.093V113.788L183.81 105.348V103.653L183.2 103.297V104.992L168.574 96.552V94.8572L167.964 94.5013V96.1961L153.338 87.7561V86.0614L152.728 85.7055V87.4002L138.102 78.9603V77.2655L137.492 76.9096V78.6044L122.866 70.1644V68.4697L122.256 68.1138V69.8085L120.781 68.9612V69.656L122.256 70.5034V87.3833L120.781 86.5359V87.2308L122.256 88.0781V104.958L120.781 104.111V104.805L122.256 105.653V122.533L120.781 121.685V122.38L122.256 123.228V140.108L120.781 139.26V139.955L122.256 140.802V157.682L120.781 156.835V157.53L122.256 158.377V160.072L122.866 160.428V158.733L137.492 167.173V168.868L138.102 169.224V167.529L152.728 175.969V177.664L153.338 178.019V176.325L167.964 184.765V186.459L168.574 186.815V185.121L183.2 193.56V195.255L183.81 195.611V193.916L198.436 202.356V204.051L199.046 204.407V202.712L200.52 203.56V202.865L199.046 202.017V185.137L200.52 185.985V185.29L199.046 184.443V167.563L200.52 168.41V167.715L199.046 166.868V149.988L200.52 150.835V150.141L199.046 149.293V132.413L200.52 133.261V132.566L199.046 131.718V114.839L200.52 115.686ZM183.217 105.704V122.584L168.591 114.144V97.2638L183.217 105.704ZM153.355 122.94V106.06L167.981 114.5V131.379L153.355 122.94ZM167.981 132.091V148.971L153.355 140.531V123.651L167.981 132.091ZM152.745 122.601L138.119 114.161V97.2807L152.745 105.721V122.601ZM152.745 123.295V140.175L138.119 131.735V114.855L152.745 123.295ZM152.745 140.887V157.767L138.119 149.327V132.447L152.745 140.887ZM153.355 141.243L167.981 149.683V166.563L153.355 158.123V141.243ZM168.591 150.039L183.217 158.479V175.359L168.591 166.919V150.039ZM168.591 149.344V132.464L183.217 140.904V157.784L168.591 149.344ZM168.591 131.752V114.872L183.217 123.312V140.192L168.591 131.752ZM167.981 96.9248V113.805L153.355 105.365V88.4849L167.981 96.9248ZM152.745 88.129V105.009L138.119 96.5689V79.689L152.745 88.129ZM122.883 70.8932L137.509 79.3331V96.213L122.883 87.7731V70.8932ZM122.883 88.4849L137.509 96.9248V113.805L122.883 105.365V88.4849ZM122.883 106.077L137.509 114.517V131.396L122.883 122.956V106.077ZM122.883 123.668L137.509 132.108V148.988L122.883 140.548V123.668ZM122.883 158.14V141.26L137.509 149.7V166.58L122.883 158.14ZM138.119 166.936V150.056L152.745 158.496V175.376L138.119 166.936ZM153.355 175.732V158.852L167.981 167.292V184.171L153.355 175.732ZM168.591 184.527V167.647L183.217 176.087V192.967L168.591 184.527ZM198.452 201.763L183.827 193.323V176.443L198.452 184.883V201.763ZM198.452 184.171L183.827 175.732V158.852L198.452 167.292V184.171ZM198.452 166.58L183.827 158.14V141.26L198.452 149.7V166.58ZM198.452 148.988L183.827 140.548V123.668L198.452 132.108V148.988ZM198.452 131.396L183.827 122.956V106.077L198.452 114.517V131.396Z" fill="#121314"/>
</g>
</g>
<g opacity="0.5">
<mask id="mask7_1918_10145" style="mask-type:luminance" maskUnits="userSpaceOnUse" x="209" y="74" width="73" height="125">
<path d="M209.166 198.575L281.075 157.053V74.0266L209.166 115.531V198.575Z" fill="white"/>
</mask>
<g mask="url(#mask7_1918_10145)">
<path d="M206.373 114.669V131.702L204.899 132.549V133.261L206.373 132.413V149.446L204.899 150.293V151.005L206.373 150.158V167.19L204.899 168.037V168.749L206.373 167.902V184.934L204.899 185.782V186.493L206.373 185.646V202.678L204.899 203.526V204.238L206.373 203.39V205.102L206.983 204.746V203.034L221.728 194.527V196.238L222.338 195.882V194.171L237.082 185.663V187.375L237.692 187.019V185.307L252.437 176.799V178.511L253.047 178.155V176.443L267.791 167.936V169.647L268.401 169.291V167.58L283.146 159.072V160.784L283.756 160.428V158.716L285.231 157.869V157.157L283.756 158.004V140.972L285.231 140.125V139.413L283.756 140.26V123.228L285.231 122.38V121.669L283.756 122.516V105.483L285.231 104.636V103.924L283.756 104.772V87.7393L285.231 86.8919V86.1801L283.756 87.0275V69.9951L285.231 69.1477V68.4359L283.756 69.2833V67.5715L283.146 67.9274V69.6392L268.401 78.1469V76.4352L267.791 76.7911V78.5028L253.047 87.0105V85.2988L252.437 85.6547V87.3664L237.692 95.8742V94.1624L237.082 94.5183V96.2301L222.338 104.738V103.026L221.728 103.382V105.094L206.983 113.601V111.89L206.373 112.246V113.957L204.899 114.805V115.517L206.373 114.669ZM237.082 96.9419V113.974L222.338 122.482V105.45L237.082 96.9419ZM237.692 131.346V114.313L252.437 105.805V122.838L237.692 131.346ZM252.437 123.533V140.565L237.692 149.073V132.041L252.437 123.533ZM253.047 105.45L267.791 96.9419V113.974L253.047 122.482V105.45ZM267.791 114.669V131.702L253.047 140.209V123.177L267.791 114.669ZM267.791 132.396V149.429L253.047 157.937V140.904L267.791 132.396ZM252.437 158.292L237.692 166.8V149.768L252.437 141.26V158.292ZM237.082 167.156L222.338 175.664V158.631L237.082 150.124V167.156ZM222.338 157.937V140.904L237.082 132.396V149.429L222.338 157.937ZM222.338 140.209V123.177L237.082 114.669V131.702L222.338 140.209ZM252.437 88.0782V105.111L237.692 113.618V96.586L252.437 88.0782ZM267.791 79.2146V96.247L253.047 104.755V87.7223L267.791 79.2146ZM283.146 87.3834L268.401 95.8911V78.8587L283.146 70.351V87.3834ZM283.146 105.111L268.401 113.618V96.586L283.146 88.0782V105.111ZM283.146 122.838L268.401 131.346V114.313L283.146 105.805V122.838ZM283.146 140.565L268.401 149.073V132.041L283.146 123.533V140.565ZM268.401 166.817V149.785L283.146 141.277V158.309L268.401 166.817ZM253.047 175.681V158.648L267.791 150.141V167.173L253.047 175.681ZM237.692 184.544V167.512L252.437 159.004V176.037L237.692 184.544ZM222.338 193.408V176.376L237.082 167.868V184.9L222.338 193.408ZM206.983 185.239L221.728 176.732V193.764L206.983 202.272V185.239ZM206.983 167.512L221.728 159.004V176.037L206.983 184.544V167.512ZM206.983 149.785L221.728 141.277V158.309L206.983 166.817V149.785ZM206.983 132.057L221.728 123.55V140.582L206.983 149.09V132.057ZM206.983 114.33L221.728 105.822V122.855L206.983 131.363V114.33Z" fill="#121314"/>
</g>
</g>
<g opacity="0.3">
<mask id="mask8_1918_10145" style="mask-type:luminance" maskUnits="userSpaceOnUse" x="129" y="21" width="147" height="85">
<path d="M202.877 105.23L129.951 63.1317L202.86 21.0337L275.786 63.1317L202.877 105.23Z" fill="white"/>
</mask>
<g mask="url(#mask8_1918_10145)">
<path d="M122.055 64.3667L121.428 64.0108L204.404 16.1167L205.031 16.4726L122.055 64.3667Z" fill="#121314"/>
<path d="M137.916 73.5355L137.289 73.1627L220.248 25.2686L220.875 25.6245L137.916 73.5355Z" fill="#121314"/>
<path d="M153.783 82.6864L153.139 82.3136L236.115 34.4194L236.742 34.7753L153.783 82.6864Z" fill="#121314"/>
<path d="M169.627 91.8396L169 91.4837L251.959 43.5726L252.603 43.9455L169.627 91.8396Z" fill="#121314"/>
<path d="M185.488 100.991L184.861 100.635L267.82 52.7236L268.447 53.0965L185.488 100.991Z" fill="#121314"/>
<path d="M201.336 110.142L200.709 109.786L283.685 61.8916L284.312 62.2475L201.336 110.142Z" fill="#121314"/>
<path d="M200.709 16.4726L201.336 16.1167L284.312 64.0108L283.685 64.3837L200.709 16.4726Z" fill="#121314"/>
<path d="M184.861 25.6245L185.488 25.2686L268.447 73.1627L267.82 73.5355L184.861 25.6245Z" fill="#121314"/>
<path d="M169 34.7755L169.627 34.4196L252.603 82.3137L251.959 82.6865L169 34.7755Z" fill="#121314"/>
<path d="M153.139 43.9456L153.783 43.5728L236.742 91.4838L236.115 91.8397L153.139 43.9456Z" fill="#121314"/>
<path d="M137.289 53.0965L137.916 52.7236L220.875 100.635L220.248 100.991L137.289 53.0965Z" fill="#121314"/>
<path d="M121.428 62.2483L122.055 61.8755L205.031 109.787L204.404 110.142L121.428 62.2483Z" fill="#121314"/>
</g>
</g>
<g opacity="0.5">
<path d="M151.695 111.007C151.357 111.007 150.984 110.888 150.611 110.685C149.34 109.956 148.34 108.228 148.34 106.753C148.34 105.991 148.611 105.414 149.102 105.126C149.594 104.838 150.221 104.889 150.882 105.279C152.153 106.007 153.153 107.736 153.153 109.211C153.153 109.973 152.882 110.549 152.39 110.838C152.187 110.956 151.95 111.024 151.695 111.024V111.007ZM149.797 105.499C149.645 105.499 149.509 105.533 149.374 105.601C149.069 105.787 148.882 106.177 148.882 106.736C148.882 108.007 149.78 109.55 150.882 110.194C151.357 110.465 151.797 110.532 152.119 110.346C152.424 110.16 152.611 109.77 152.611 109.211C152.611 107.939 151.712 106.397 150.611 105.753C150.323 105.584 150.035 105.499 149.797 105.499Z" fill="#121314"/>
<path d="M173.217 130.565C172.878 130.565 172.505 130.446 172.133 130.226C170.861 129.497 169.862 127.768 169.862 126.294C169.862 125.531 170.133 124.955 170.624 124.667C171.116 124.379 171.76 124.43 172.404 124.82C173.675 125.548 174.675 127.277 174.675 128.751C174.675 129.514 174.404 130.09 173.912 130.378C173.709 130.497 173.471 130.565 173.217 130.565ZM171.319 125.057C171.167 125.057 171.014 125.091 170.895 125.159C170.59 125.345 170.404 125.735 170.404 126.294C170.404 127.565 171.302 129.107 172.404 129.751C172.878 130.023 173.319 130.09 173.641 129.904C173.946 129.717 174.132 129.328 174.132 128.768C174.132 127.497 173.234 125.955 172.133 125.311C171.844 125.142 171.556 125.057 171.319 125.057Z" fill="#121314"/>
<path d="M186.078 132.548C185.739 132.548 185.367 132.429 184.994 132.209C183.723 131.48 182.723 129.751 182.723 128.277C182.723 127.514 182.994 126.938 183.485 126.65C183.977 126.379 184.621 126.413 185.265 126.802C186.536 127.531 187.536 129.26 187.536 130.734C187.536 131.497 187.265 132.073 186.773 132.361C186.57 132.48 186.333 132.548 186.078 132.548ZM184.18 127.04C184.028 127.04 183.892 127.073 183.756 127.141C183.451 127.328 183.265 127.734 183.265 128.277C183.265 129.548 184.163 131.09 185.265 131.734C185.739 132.005 186.18 132.073 186.502 131.887C186.824 131.7 186.993 131.293 186.993 130.751C186.993 129.48 186.095 127.938 184.994 127.294C184.706 127.124 184.417 127.04 184.18 127.04Z" fill="#121314"/>
</g>
<g opacity="0.3">
<path d="M254.041 111.006C253.787 111.006 253.55 110.938 253.347 110.82C252.855 110.531 252.584 109.955 252.584 109.193C252.584 107.718 253.584 105.989 254.855 105.261C255.516 104.871 256.143 104.837 256.634 105.108C257.126 105.396 257.397 105.973 257.397 106.735C257.397 108.21 256.397 109.938 255.126 110.667C254.753 110.887 254.38 110.989 254.041 110.989V111.006ZM255.94 105.498C255.702 105.498 255.414 105.583 255.126 105.752C254.025 106.379 253.126 107.938 253.126 109.21C253.126 109.769 253.296 110.176 253.618 110.345C253.94 110.531 254.364 110.481 254.855 110.192C255.957 109.548 256.855 108.006 256.855 106.735C256.855 106.176 256.685 105.769 256.363 105.6C256.245 105.532 256.109 105.498 255.94 105.498Z" fill="#121314"/>
<path d="M232.52 130.565C232.266 130.565 232.029 130.497 231.825 130.379C231.334 130.09 231.062 129.514 231.062 128.752C231.062 127.277 232.062 125.549 233.333 124.82C233.994 124.447 234.622 124.379 235.113 124.667C235.604 124.955 235.876 125.532 235.876 126.294C235.876 127.769 234.876 129.497 233.605 130.226C233.232 130.446 232.859 130.565 232.52 130.565ZM234.418 125.057C234.181 125.057 233.893 125.142 233.605 125.311C232.503 125.955 231.605 127.497 231.605 128.769C231.605 129.328 231.774 129.735 232.096 129.904C232.418 130.09 232.842 130.04 233.333 129.752C234.435 129.124 235.333 127.565 235.333 126.294C235.333 125.735 235.164 125.328 234.842 125.159C234.723 125.091 234.571 125.057 234.418 125.057Z" fill="#121314"/>
<path d="M219.659 132.547C219.404 132.547 219.167 132.48 218.964 132.361C218.472 132.073 218.201 131.497 218.201 130.734C218.201 129.26 219.201 127.531 220.472 126.802C221.133 126.412 221.76 126.362 222.252 126.65C222.743 126.938 223.014 127.514 223.014 128.277C223.014 129.751 222.014 131.48 220.743 132.208C220.37 132.429 219.998 132.547 219.659 132.547ZM221.557 127.039C221.32 127.039 221.031 127.124 220.743 127.294C219.642 127.938 218.744 129.48 218.744 130.751C218.744 131.31 218.913 131.717 219.235 131.886C219.557 132.073 219.981 132.022 220.472 131.734C221.574 131.09 222.472 129.548 222.472 128.277C222.472 127.717 222.303 127.311 221.98 127.141C221.862 127.073 221.709 127.039 221.557 127.039Z" fill="#121314"/>
</g>
<path d="M202.219 111.192V209.099L202.88 209.472L203.456 209.133V111.192H202.219Z" fill="#121314"/>
<path d="M299.851 266.738L215.367 217.963V120.395L299.851 169.187V266.738Z" fill="#121314"/>
<path d="M299.512 169.383V266.151L215.706 217.767V120.982L299.512 169.383Z" stroke="white" stroke-opacity="0.3" stroke-width="0.677907"/>
<path d="M293.274 255.331L221.941 214.148V131.8L293.274 172.983V255.331Z" fill="#121314"/>
<path d="M293.274 255.331L221.941 214.148V131.8L293.274 172.983V255.331Z" fill="#121314"/>
<path d="M293.274 255.331L221.941 214.148V131.8L293.274 172.983V255.331Z" fill="#121314"/>
<path d="M384.336 217.963L299.852 266.738V169.187L384.336 120.395V217.963Z" fill="#121314"/>
<path d="M383.997 120.982V217.767L300.191 266.151V169.383L383.997 120.982Z" stroke="white" stroke-opacity="0.3" stroke-width="0.677907"/>
<path d="M378.048 214.336L306.139 255.84V172.814L378.048 131.292V214.336Z" fill="#121314"/>
<path d="M299.851 169.186L215.367 120.394L299.851 71.6185L384.336 120.394L299.851 169.186Z" fill="#121314"/>
<path d="M299.851 168.795L216.045 120.394L299.851 72.0099L383.658 120.394L299.851 168.795Z" stroke="white" stroke-opacity="0.3" stroke-width="0.677907"/>
<path d="M299.85 162.493L226.924 120.395L299.85 78.2968L372.776 120.395L299.85 162.493Z" fill="#121314"/>
<g opacity="0.5">
<mask id="mask9_1918_10145" style="mask-type:luminance" maskUnits="userSpaceOnUse" x="221" y="131" width="73" height="125">
<path d="M293.28 255.332L221.947 214.149V131.8L293.28 172.983V255.332Z" fill="white"/>
</mask>
<g mask="url(#mask9_1918_10145)">
<path d="M297.514 172.95V172.255L296.04 171.408V169.713L295.43 169.357V171.052L280.804 162.612V160.917L280.194 160.561V162.256L265.568 153.816V152.121L264.958 151.765V153.46L250.332 145.02V143.325L249.722 142.969V144.664L235.096 136.224V134.53L234.486 134.174V135.868L219.86 127.428V125.734L219.25 125.378V127.073L217.775 126.225V126.92L219.25 127.767V144.647L217.775 143.8V144.495L219.25 145.342V162.222L217.775 161.375V162.07L219.25 162.917V179.797L217.775 178.949V179.644L219.25 180.492V197.372L217.775 196.524V197.219L219.25 198.066V214.946L217.775 214.099V214.794L219.25 215.641V217.336L219.86 217.692V215.997L234.486 224.437V226.132L235.096 226.488V224.793L249.722 233.233V234.928L250.332 235.284V233.589L264.958 242.029V243.723L265.568 244.079V242.385L280.194 250.825V252.519L280.804 252.875V251.18L295.43 259.62V261.315L296.04 261.671V259.976L297.514 260.824V260.129L296.04 259.281V242.402L297.514 243.249V242.554L296.04 241.707V224.827L297.514 225.674V224.979L296.04 224.132V207.252L297.514 208.099V207.405L296.04 206.557V189.677L297.514 190.525V189.83L296.04 188.982V172.103L297.514 172.95ZM280.211 162.968V179.848L265.585 171.408V154.528L280.211 162.968ZM250.349 180.204V163.324L264.975 171.764V188.643L250.349 180.204ZM264.975 189.338V206.218L250.349 197.778V180.898L264.975 189.338ZM249.739 179.848L235.113 171.408V154.528L249.739 162.968V179.848ZM249.739 180.542V197.422L235.113 188.982V172.103L249.739 180.542ZM249.739 198.134V215.014L235.113 206.574V189.694L249.739 198.134ZM250.349 198.49L264.975 206.93V223.81L250.349 215.37V198.49ZM265.585 207.286L280.211 215.726V232.606L265.585 224.166V207.286ZM265.585 206.591V189.711L280.211 198.151V215.031L265.585 206.591ZM265.585 188.999V172.119L280.211 180.559V197.439L265.585 188.999ZM264.975 154.172V171.052L250.349 162.612V145.732L264.975 154.172ZM249.739 145.376V162.256L235.113 153.816V136.936L249.739 145.376ZM219.877 128.14L234.503 136.58V153.46L219.877 145.02V128.14ZM219.877 145.732L234.503 154.172V171.052L219.877 162.612V145.732ZM219.877 163.324L234.503 171.764V188.643L219.877 180.204V163.324ZM219.877 180.915L234.503 189.355V206.235L219.877 197.795V180.915ZM219.877 215.387V198.507L234.503 206.947V223.827L219.877 215.387ZM235.113 224.183V207.303L249.739 215.743V232.623L235.113 224.183ZM250.349 232.979V216.099L264.975 224.539V241.419L250.349 232.979ZM265.585 241.774V224.895L280.211 233.335V250.214L265.585 241.774ZM295.447 259.01L280.821 250.57V233.69L295.447 242.13V259.01ZM295.447 241.419L280.821 232.979V216.099L295.447 224.539V241.419ZM295.447 223.827L280.821 215.387V198.507L295.447 206.947V223.827ZM295.447 206.235L280.821 197.795V180.915L295.447 189.355V206.235ZM295.447 188.643L280.821 180.204V163.324L295.447 171.764V188.643Z" fill="#121314"/>
</g>
</g>
<path d="M106.484 265.554L21.9824 216.779V119.211L106.484 168.003V265.554Z" fill="#121314"/>
<path d="M106.145 168.199V264.967L22.3214 216.583V119.798L106.145 168.199Z" stroke="white" stroke-opacity="0.3" stroke-width="0.677907"/>
<path d="M99.892 254.147L28.5762 212.965V130.616L99.892 171.799V254.147Z" fill="#121314"/>
<path d="M99.892 254.147L28.5762 212.965V130.616L99.892 171.799V254.147Z" fill="#121314"/>
<path d="M99.892 254.147L28.5762 212.965V130.616L99.892 171.799V254.147Z" fill="#121314"/>
<path d="M190.965 216.779L106.48 265.554V168.003L190.965 119.211V216.779Z" fill="#121314"/>
<path d="M190.626 119.798V216.583L106.819 264.967V168.199L190.626 119.798Z" stroke="white" stroke-opacity="0.3" stroke-width="0.677907"/>
<path d="M184.68 213.152L112.771 254.656V171.63L184.68 130.108V213.152Z" fill="#121314"/>
<path d="M106.484 168.002L21.9824 119.21L106.484 70.4346L190.968 119.21L106.484 168.002Z" fill="#121314"/>
<path d="M106.484 167.611L22.6604 119.21L106.484 70.8259L190.29 119.21L106.484 167.611Z" stroke="white" stroke-opacity="0.3" stroke-width="0.677907"/>
<path d="M106.484 161.309L33.5586 119.211L106.484 77.1128L179.393 119.211L106.484 161.309Z" fill="#121314"/>
<g opacity="0.5">
<mask id="mask10_1918_10145" style="mask-type:luminance" maskUnits="userSpaceOnUse" x="112" y="130" width="73" height="125">
<path d="M112.771 254.656L184.68 213.151V130.107L112.771 171.629V254.656Z" fill="white"/>
</mask>
<g mask="url(#mask10_1918_10145)">
<path d="M109.976 170.748V187.781L108.502 188.628V189.34L109.976 188.493V205.525L108.502 206.372V207.084L109.976 206.237V223.269L108.502 224.117V224.829L109.976 223.981V241.014L108.502 241.861V242.573L109.976 241.725V258.758L108.502 259.605V260.317L109.976 259.47V261.181L110.587 260.825V259.114L125.331 250.606V252.318L125.941 251.962V250.25L140.686 241.742V243.454L141.296 243.098V241.386L156.04 232.879V234.59L156.65 234.234V232.523L171.395 224.015V225.727L172.005 225.371V223.659L186.749 215.151V216.863L187.36 216.507V214.795L188.834 213.948V213.236L187.36 214.084V197.051L188.834 196.204V195.492L187.36 196.339V179.307L188.834 178.46V177.748L187.36 178.595V161.563L188.834 160.715V160.004L187.36 160.851V143.819L188.834 142.971V142.259L187.36 143.107V126.074L188.834 125.227V124.515L187.36 125.363V123.651L186.749 124.007V125.718L172.005 134.226V132.515L171.395 132.87V134.582L156.65 143.09V141.378L156.04 141.734V143.446L141.296 151.954V150.242L140.686 150.598V152.309L125.941 160.817V159.105L125.331 159.461V161.173L110.587 169.681V167.969L109.976 168.325V170.037L108.502 170.884V171.596L109.976 170.748ZM140.686 153.021V170.054L125.941 178.561V161.529L140.686 153.021ZM141.296 187.425V170.393L156.04 161.885V178.917L141.296 187.425ZM156.04 179.612V196.645L141.296 205.152V188.12L156.04 179.612ZM156.65 161.529L171.395 153.021V170.054L156.65 178.561V161.529ZM171.395 170.748V187.781L156.65 196.289V179.256L171.395 170.748ZM171.395 188.476V205.508L156.65 214.016V196.983L171.395 188.476ZM156.04 214.372L141.296 222.88V205.847L156.04 197.339V214.372ZM140.686 223.235L125.941 231.743V214.711L140.686 206.203V223.235ZM125.941 214.016V196.983L140.686 188.476V205.508L125.941 214.016ZM125.941 196.289V179.256L140.686 170.748V187.781L125.941 196.289ZM156.04 144.141V161.173L141.296 169.681V152.648L156.04 144.141ZM171.395 135.277V152.309L156.65 160.817V143.785L171.395 135.277ZM186.749 143.446L172.005 151.954V134.921L186.749 126.413V143.446ZM186.749 161.173L172.005 169.681V152.648L186.749 144.141V161.173ZM186.749 178.9L172.005 187.408V170.376L186.749 161.868V178.9ZM186.749 196.628L172.005 205.135V188.103L186.749 179.595V196.628ZM172.005 222.88V205.847L186.749 197.339V214.372L172.005 222.88ZM156.65 231.743V214.711L171.395 206.203V223.235L156.65 231.743ZM141.296 240.607V223.574L156.04 215.067V232.099L141.296 240.607ZM125.941 249.47V232.438L140.686 223.93V240.963L125.941 249.47ZM110.587 241.302L125.331 232.794V249.826L110.587 258.334V241.302ZM110.587 223.574L125.331 215.067V232.099L110.587 240.607V223.574ZM110.587 205.847L125.331 197.339V214.372L110.587 222.88V205.847ZM110.587 188.12L125.331 179.612V196.645L110.587 205.152V188.12ZM110.587 170.393L125.331 161.885V178.917L110.587 187.425V170.393Z" fill="#121314"/>
</g>
</g>
<path d="M203.459 322.82L118.975 274.044V176.494L203.459 225.269V322.82Z" fill="#121314"/>
<path d="M203.12 225.465V322.233L119.314 273.849V177.081L203.12 225.465Z" stroke="white" stroke-opacity="0.3" stroke-width="0.677907"/>
<path d="M196.882 311.431L125.549 270.248V187.882L196.882 229.065V311.431Z" fill="#121314"/>
<path d="M196.882 311.431L125.549 270.248V187.882L196.882 229.065V311.431Z" fill="#121314"/>
<path d="M196.882 311.431L125.549 270.248V187.882L196.882 229.065V311.431Z" fill="#121314"/>
<path d="M287.96 274.044L203.459 322.82V225.269L287.96 176.494V274.044Z" fill="#121314"/>
<path d="M287.621 177.081V273.849L203.798 322.233V225.465L287.621 177.081Z" stroke="white" stroke-opacity="0.3" stroke-width="0.677907"/>
<path d="M281.672 270.418L209.746 311.94V228.896L281.672 187.375V270.418Z" fill="#121314"/>
<path d="M203.459 225.269L118.975 176.494L203.459 127.701L287.96 176.494L203.459 225.269Z" fill="#121314"/>
<path d="M203.459 224.878L119.652 176.493L203.459 128.093L287.282 176.493L203.459 224.878Z" stroke="white" stroke-opacity="0.3" stroke-width="0.677907"/>
<path d="M203.46 218.592L130.551 176.494L203.46 134.379L276.386 176.494L203.46 218.592Z" fill="#121314"/>
<path fill-rule="evenodd" clip-rule="evenodd" d="M165.365 154.723C186.657 144.354 221.23 144.354 242.522 154.723C263.813 165.094 263.813 181.931 242.522 192.301C221.23 202.671 186.657 202.671 165.365 192.301C144.074 181.931 144.074 165.094 165.365 154.723Z" stroke="white" stroke-opacity="0.3" stroke-width="1.69477"/>
<path fill-rule="evenodd" clip-rule="evenodd" d="M153.947 185.285C156.625 182.468 88.1328 10.1702 88.1328 10.1702L318.883 10.1699C318.883 10.1699 252.397 182.468 255.075 185.285C252.397 188.103 248.556 190.744 243.552 193.05C222.005 202.985 187.017 202.985 165.47 193.05C160.467 190.744 156.625 188.103 153.947 185.285Z" fill="url(#paint0_linear_1918_10145)"/>
<path d="M198.309 215.608L271.217 173.51V110.363L198.309 153.953V215.608Z" fill="#121314"/>
<path d="M271.018 173.395L198.509 215.262V154.066L271.018 110.716V173.395Z" stroke="white" stroke-opacity="0.3" stroke-width="0.4"/>
<path d="M276.251 113.549L271.217 110.363L198.309 153.952L203.461 156.935L276.251 113.549Z" fill="#121314"/>
<path d="M198.703 153.949L271.215 110.598L275.869 113.544L203.459 156.703L198.703 153.949Z" stroke="white" stroke-opacity="0.3" stroke-width="0.4"/>
<path d="M203.461 218.59L198.309 215.608V153.952L203.461 156.935V218.59Z" fill="#121314"/>
<path d="M203.261 157.05V218.244L198.509 215.492V154.299L203.261 157.05Z" stroke="white" stroke-opacity="0.3" stroke-width="0.4"/>
<path d="M203.377 218.624L276.252 176.257V113.548L203.377 156.575V218.624Z" fill="#121314"/>
<path d="M276.052 176.142L203.577 218.276V156.689L276.052 113.899V176.142Z" stroke="white" stroke-opacity="0.3" stroke-width="0.4"/>
<g filter="url(#filter0_b_1918_10145)">
<path d="M330.571 291.976L246.07 340.751V243.2L330.571 194.408V291.976Z" fill="url(#paint1_linear_1918_10145)"/>
<path d="M330.571 291.976L246.07 340.751V243.2L330.571 194.408V291.976Z" stroke="white" stroke-opacity="0.3" stroke-width="0.4"/>
</g>
<g filter="url(#filter1_b_1918_10145)">
<path d="M89.373 304.976L173.857 353.751V256.201L89.373 207.408V304.976Z" fill="url(#paint2_linear_1918_10145)"/>
<path d="M89.373 304.976L173.857 353.751V256.201L89.373 207.408V304.976Z" stroke="white" stroke-opacity="0.3" stroke-width="0.4"/>
</g>
</g>
<defs>
<filter id="filter0_b_1918_10145" x="225.18" y="173.371" width="126.283" height="188.417" filterUnits="userSpaceOnUse" color-interpolation-filters="sRGB">
<feFlood flood-opacity="0" result="BackgroundImageFix"/>
<feGaussianBlur in="BackgroundImageFix" stdDeviation="10.3453"/>
<feComposite in2="SourceAlpha" operator="in" result="effect1_backgroundBlur_1918_10145"/>
<feBlend mode="normal" in="SourceGraphic" in2="effect1_backgroundBlur_1918_10145" result="shape"/>
</filter>
<filter id="filter1_b_1918_10145" x="68.4824" y="186.371" width="126.266" height="188.417" filterUnits="userSpaceOnUse" color-interpolation-filters="sRGB">
<feFlood flood-opacity="0" result="BackgroundImageFix"/>
<feGaussianBlur in="BackgroundImageFix" stdDeviation="10.3453"/>
<feComposite in2="SourceAlpha" operator="in" result="effect1_backgroundBlur_1918_10145"/>
<feBlend mode="normal" in="SourceGraphic" in2="effect1_backgroundBlur_1918_10145" result="shape"/>
</filter>
<linearGradient id="paint0_linear_1918_10145" x1="188.291" y1="10.1699" x2="192.805" y2="200.52" gradientUnits="userSpaceOnUse">
<stop stop-color="#1A1C1E" stop-opacity="0"/>
<stop offset="1" stop-color="#4500DF"/>
</linearGradient>
<linearGradient id="paint1_linear_1918_10145" x1="282.749" y1="194.408" x2="290.021" y2="340.486" gradientUnits="userSpaceOnUse">
<stop stop-color="#1A1C1E" stop-opacity="0"/>
<stop offset="1" stop-color="#9EE50D"/>
</linearGradient>
<linearGradient id="paint2_linear_1918_10145" x1="126.044" y1="207.408" x2="133.317" y2="353.486" gradientUnits="userSpaceOnUse">
<stop stop-color="#1A1C1E" stop-opacity="0"/>
<stop offset="1" stop-color="#9EE50D"/>
</linearGradient>
<clipPath id="clip0_1918_10145">
<rect width="407.812" height="436.64" fill="white"/>
</clipPath>
</defs>
</svg>
