<svg width="526" height="538" viewBox="0 0 526 538" fill="none" xmlns="http://www.w3.org/2000/svg">
<path opacity="0.3" d="M429.645 280.744L106.197 467.054V191.915C106.197 187.357 108.966 182.054 112.402 180.077L423.44 0.925825C426.875 -1.05041 429.645 1.04682 429.645 5.60425V280.744Z" fill="#121314"/>
<path d="M424.187 296.03L111.674 476.028C108.662 477.763 106.217 475.928 106.217 471.915V467.055L429.644 280.744V285.604C429.644 289.617 427.198 294.276 424.187 296.01V296.03Z" fill="#121314"/>
<path d="M108.481 476.512L121.174 483.832L122.286 476.27L120.588 472.66L106.197 467.054L108.481 476.512Z" fill="#121314"/>
<path d="M119.274 474.576L106.197 467.055L429.645 280.744L442.701 288.266L119.274 474.576Z" fill="#121314"/>
<path d="M119.274 474L107.2 467.054L429.644 281.321L441.7 288.266L119.274 474Z" stroke="white" stroke-opacity="0.3"/>
<g opacity="0.3">
<path d="M106.217 191.915V467.054L119.274 474.556V199.436C119.274 197.158 119.982 194.677 121.093 192.54C116.242 191.068 111.735 188.89 107.43 186.329C106.662 188.144 106.197 190.1 106.197 191.935L106.217 191.915Z" fill="#121314"/>
<path d="M106.717 191.915V191.277C106.801 189.892 107.144 188.444 107.676 187.055C111.688 189.404 115.887 191.421 120.383 192.843C119.396 194.912 118.774 197.252 118.774 199.436V473.692L106.717 466.765V191.915Z" stroke="white" stroke-opacity="0.3"/>
</g>
<g opacity="0.6">
<path d="M427.503 0.623307C426.411 0.0183375 424.997 0.0385043 423.44 0.925792L112.423 180.097C110.382 181.267 108.583 183.647 107.451 186.329C111.756 188.89 116.243 191.088 121.114 192.54C122.246 190.402 123.782 188.587 125.5 187.599L436.497 8.44757C438.053 7.56029 439.448 7.54012 440.519 8.14509V8.10476L427.503 0.623307Z" fill="#121314"/>
<path d="M112.672 180.531L112.673 180.531L423.688 1.36016C423.689 1.35985 423.689 1.35953 423.69 1.35922C425.128 0.539466 426.353 0.559065 427.257 1.05866C427.258 1.05931 427.259 1.05997 427.26 1.06062L438.122 7.30336C437.519 7.41332 436.89 7.64783 436.249 8.01321L436.247 8.01432L125.251 187.166C125.251 187.166 125.251 187.166 125.251 187.166C123.526 188.158 122.009 189.908 120.87 191.943C116.341 190.55 112.137 188.507 108.087 186.124C109.197 183.671 110.856 181.572 112.672 180.531Z" stroke="white" stroke-opacity="0.3"/>
</g>
<path opacity="0.3" d="M119.275 199.437C119.275 194.879 122.044 189.576 125.48 187.599L436.497 8.44784C437.689 7.76221 438.781 7.60089 439.731 7.82271C438.599 6.79426 436.962 6.65311 435.122 7.70172L124.105 186.853C120.669 188.829 117.9 194.133 117.9 198.69V473.83L119.275 474.576V199.437Z" fill="#121314"/>
<path d="M119.436 197.561C119.557 196.795 119.759 196.008 120.001 195.242C119.759 196.008 119.557 196.774 119.436 197.561Z" fill="#121314"/>
<path d="M123.155 189.535C122.387 190.402 121.68 191.41 121.094 192.499C121.68 191.39 122.367 190.382 123.155 189.535Z" fill="#121314"/>
<path d="M120.143 194.758C120.405 193.992 120.709 193.246 121.093 192.54C120.729 193.246 120.405 194.012 120.143 194.758Z" fill="#121314"/>
<path opacity="0.3" d="M442.7 288.266L119.273 474.576V199.437C119.273 194.879 122.042 189.576 125.478 187.599L436.496 8.4478C439.931 6.47157 442.7 8.56879 442.7 13.1262V288.266Z" fill="#121314"/>
<g opacity="0.3">
<path d="M435.748 291.533L126.024 469.958C123.013 471.693 119.273 469.535 119.273 466.066V198.71C119.273 194.153 122.042 188.849 125.478 186.873L436.496 7.72172C439.932 5.74549 442.701 7.84272 442.701 12.4002V279.534C442.701 284.495 440.053 289.073 435.748 291.533Z" fill="#121314"/>
<path d="M435.5 291.099L435.498 291.1L125.775 469.525C123.095 471.068 119.773 469.149 119.773 466.066V198.71C119.773 196.526 120.439 194.14 121.53 192.056C122.624 189.967 124.117 188.233 125.728 187.307L125.728 187.306L436.745 8.15515C438.345 7.23503 439.669 7.31816 440.585 8.00985C441.532 8.72504 442.201 10.2039 442.201 12.4002V279.534C442.201 284.316 439.648 288.728 435.5 291.099Z" stroke="white" stroke-opacity="0.3"/>
</g>
<mask id="mask0_2504_5782" style="mask-type:luminance" maskUnits="userSpaceOnUse" x="119" y="6" width="322" height="468">
<path d="M434.084 291.533L126 470C123.004 471.734 119.273 475.969 119.273 472.5V198.71C119.273 194.153 122.028 188.849 125.446 186.873L434.828 7.72172C438.246 5.74549 441 7.84272 441 12.4002V279.534C441 284.495 438.366 289.073 434.084 291.533Z" fill="white"/>
<path d="M433.835 291.099L433.833 291.1L125.749 469.568C124.97 470.019 124.152 470.627 123.382 471.212C123.272 471.297 123.162 471.38 123.053 471.463C122.397 471.965 121.785 472.431 121.243 472.781C120.928 472.984 120.654 473.135 120.425 473.227C120.187 473.323 120.049 473.334 119.982 473.323L119.981 473.323C119.954 473.318 119.926 473.314 119.886 473.234C119.829 473.123 119.773 472.902 119.773 472.5V198.71C119.773 196.526 120.436 194.139 121.521 192.055C122.609 189.966 124.095 188.232 125.696 187.306L125.696 187.306L435.078 8.15458C436.668 7.23503 437.984 7.3186 438.893 8.00908C439.835 8.72396 440.5 10.203 440.5 12.4002V279.534C440.5 284.318 437.961 288.729 433.835 291.099Z" stroke="white"/>
</mask>
<g mask="url(#mask0_2504_5782)">
<path d="M147.63 161.707C147.63 162.594 147.003 163.642 146.255 164.086C145.487 164.53 144.881 164.167 144.881 163.3C144.881 162.432 145.507 161.364 146.255 160.92C147.023 160.476 147.63 160.839 147.63 161.707Z" fill="#595A5A"/>
<path d="M177.563 144.465C177.563 145.352 176.937 146.401 176.189 146.844C175.421 147.288 174.814 146.925 174.814 146.058C174.814 145.191 175.441 144.122 176.189 143.678C176.957 143.235 177.563 143.598 177.563 144.465Z" fill="#595A5A"/>
<path d="M207.516 127.223C207.516 128.11 206.89 129.159 206.142 129.603C205.394 130.046 204.768 129.683 204.768 128.816C204.768 127.949 205.394 126.88 206.142 126.437C206.91 125.993 207.516 126.356 207.516 127.223Z" fill="#595A5A"/>
<path d="M237.45 109.961C237.45 110.849 236.823 111.897 236.076 112.341C235.308 112.785 234.701 112.422 234.701 111.554C234.701 110.687 235.328 109.619 236.076 109.175C236.844 108.731 237.45 109.094 237.45 109.961Z" fill="#595A5A"/>
<path d="M267.405 92.7197C267.405 93.607 266.778 94.6556 266.031 95.0992C265.263 95.5429 264.656 95.1799 264.656 94.3128C264.656 93.4457 265.283 92.3769 266.031 91.9332C266.799 91.4896 267.405 91.8526 267.405 92.7197Z" fill="#595A5A"/>
<path d="M297.339 75.4785C297.339 76.3658 296.712 77.4144 295.964 77.858C295.196 78.3017 294.59 77.9387 294.59 77.0716C294.59 76.2045 295.216 75.1357 295.964 74.692C296.732 74.2484 297.339 74.6114 297.339 75.4785Z" fill="#595A5A"/>
<path d="M327.292 58.2165C327.292 59.1038 326.665 60.1524 325.917 60.5961C325.149 61.0397 324.543 60.6767 324.543 59.8096C324.543 58.9425 325.169 57.8737 325.917 57.4301C326.685 56.9864 327.292 57.3494 327.292 58.2165Z" fill="#595A5A"/>
<path d="M357.225 40.9751C357.225 41.8624 356.599 42.911 355.851 43.3546C355.103 43.7983 354.477 43.4353 354.477 42.5682C354.477 41.701 355.103 40.6323 355.851 40.1886C356.599 39.745 357.225 40.108 357.225 40.9751Z" fill="#595A5A"/>
<path d="M387.159 23.7334C387.159 24.6207 386.532 25.6693 385.785 26.1129C385.017 26.5566 384.41 26.1936 384.41 25.3265C384.41 24.4593 385.037 23.3906 385.785 22.9469C386.553 22.5033 387.159 22.8663 387.159 23.7334Z" fill="#595A5A"/>
<path d="M417.112 6.47154C417.112 7.35882 416.486 8.40744 415.738 8.85108C414.97 9.29472 414.363 8.93174 414.363 8.06462C414.363 7.1975 414.99 6.12872 415.738 5.68508C416.506 5.24143 417.112 5.60441 417.112 6.47154Z" fill="#595A5A"/>
<path d="M147.63 189.696C147.63 190.584 147.003 191.632 146.255 192.076C145.487 192.519 144.881 192.156 144.881 191.289C144.881 190.422 145.507 189.353 146.255 188.91C147.023 188.466 147.63 188.829 147.63 189.696Z" fill="#595A5A"/>
<path d="M177.563 172.435C177.563 173.322 176.937 174.37 176.189 174.814C175.421 175.258 174.814 174.895 174.814 174.028C174.814 173.161 175.441 172.092 176.189 171.648C176.957 171.204 177.563 171.567 177.563 172.435Z" fill="#595A5A"/>
<path d="M207.516 155.193C207.516 156.08 206.89 157.129 206.142 157.572C205.394 158.016 204.768 157.653 204.768 156.786C204.768 155.919 205.394 154.85 206.142 154.406C206.89 153.963 207.516 154.326 207.516 155.193Z" fill="#595A5A"/>
<path d="M237.45 137.952C237.45 138.839 236.823 139.888 236.076 140.331C235.308 140.775 234.701 140.412 234.701 139.545C234.701 138.678 235.328 137.609 236.076 137.165C236.844 136.722 237.45 137.085 237.45 137.952Z" fill="#595A5A"/>
<path d="M267.405 120.689C267.405 121.577 266.778 122.625 266.031 123.069C265.263 123.513 264.656 123.15 264.656 122.283C264.656 121.415 265.283 120.347 266.031 119.903C266.799 119.459 267.405 119.822 267.405 120.689Z" fill="#595A5A"/>
<path d="M297.339 103.448C297.339 104.336 296.712 105.384 295.964 105.828C295.196 106.271 294.59 105.908 294.59 105.041C294.59 104.174 295.216 103.105 295.964 102.662C296.732 102.218 297.339 102.581 297.339 103.448Z" fill="#595A5A"/>
<path d="M327.292 86.2064C327.292 87.0937 326.665 88.1423 325.917 88.5859C325.149 89.0296 324.543 88.6666 324.543 87.7995C324.543 86.9324 325.169 85.8636 325.917 85.4199C326.685 84.9763 327.292 85.3393 327.292 86.2064Z" fill="#595A5A"/>
<path d="M357.225 68.9448C357.225 69.8321 356.599 70.8807 355.851 71.3243C355.103 71.768 354.477 71.405 354.477 70.5379C354.477 69.6708 355.103 68.602 355.851 68.1583C356.599 67.7147 357.225 68.0777 357.225 68.9448Z" fill="#595A5A"/>
<path d="M387.159 51.7031C387.159 52.5904 386.532 53.639 385.785 54.0826C385.017 54.5263 384.41 54.1633 384.41 53.2962C384.41 52.4291 385.037 51.3603 385.785 50.9166C386.553 50.473 387.159 50.836 387.159 51.7031Z" fill="#595A5A"/>
<path d="M417.112 34.4614C417.112 35.3487 416.486 36.3973 415.738 36.841C414.97 37.2846 414.363 36.9216 414.363 36.0545C414.363 35.1874 414.99 34.1186 415.738 33.6749C416.506 33.2313 417.112 33.5943 417.112 34.4614Z" fill="#595A5A"/>
<path d="M147.63 217.666C147.63 218.553 147.003 219.602 146.255 220.046C145.487 220.489 144.881 220.126 144.881 219.259C144.881 218.392 145.507 217.323 146.255 216.88C147.023 216.436 147.63 216.799 147.63 217.666Z" fill="#595A5A"/>
<path d="M177.563 200.425C177.563 201.312 176.937 202.361 176.189 202.804C175.421 203.248 174.814 202.885 174.814 202.018C174.814 201.151 175.441 200.082 176.189 199.638C176.957 199.195 177.563 199.558 177.563 200.425Z" fill="#595A5A"/>
<path d="M207.516 183.163C207.516 184.05 206.89 185.098 206.142 185.542C205.374 185.986 204.768 185.623 204.768 184.756C204.768 183.889 205.394 182.82 206.142 182.376C206.89 181.932 207.516 182.295 207.516 183.163Z" fill="#595A5A"/>
<path d="M237.45 165.921C237.45 166.808 236.823 167.857 236.076 168.3C235.308 168.744 234.701 168.381 234.701 167.514C234.701 166.647 235.328 165.578 236.076 165.134C236.844 164.691 237.45 165.054 237.45 165.921Z" fill="#595A5A"/>
<path d="M267.405 148.68C267.405 149.567 266.778 150.616 266.031 151.059C265.263 151.503 264.656 151.14 264.656 150.273C264.656 149.406 265.283 148.337 266.031 147.893C266.799 147.45 267.405 147.813 267.405 148.68Z" fill="#595A5A"/>
<path d="M297.339 131.418C297.339 132.305 296.712 133.354 295.964 133.797C295.196 134.241 294.59 133.878 294.59 133.011C294.59 132.144 295.216 131.075 295.964 130.631C296.732 130.188 297.339 130.551 297.339 131.418Z" fill="#595A5A"/>
<path d="M327.292 114.176C327.292 115.063 326.665 116.112 325.917 116.556C325.149 116.999 324.543 116.636 324.543 115.769C324.543 114.902 325.169 113.833 325.917 113.39C326.685 112.946 327.292 113.309 327.292 114.176Z" fill="#595A5A"/>
<path d="M357.225 96.9345C357.225 97.8218 356.599 98.8704 355.851 99.3141C355.083 99.7577 354.477 99.3948 354.477 98.5276C354.477 97.6605 355.103 96.5917 355.851 96.1481C356.599 95.7044 357.225 96.0674 357.225 96.9345Z" fill="#595A5A"/>
<path d="M387.159 79.6728C387.159 80.5601 386.532 81.6087 385.785 82.0524C385.017 82.496 384.41 82.133 384.41 81.2659C384.41 80.3988 385.037 79.33 385.785 78.8864C386.553 78.4427 387.159 78.8057 387.159 79.6728Z" fill="#595A5A"/>
<path d="M417.112 62.4311C417.112 63.3184 416.486 64.367 415.738 64.8107C414.97 65.2543 414.363 64.8913 414.363 64.0242C414.363 63.1571 414.99 62.0883 415.738 61.6447C416.506 61.201 417.112 61.564 417.112 62.4311Z" fill="#595A5A"/>
<path d="M147.63 245.636C147.63 246.523 147.003 247.572 146.255 248.015C145.487 248.459 144.881 248.096 144.881 247.229C144.881 246.362 145.507 245.293 146.255 244.849C147.023 244.406 147.63 244.769 147.63 245.636Z" fill="#595A5A"/>
<path d="M177.563 228.394C177.563 229.281 176.937 230.33 176.189 230.774C175.421 231.217 174.814 230.854 174.814 229.987C174.814 229.12 175.441 228.051 176.189 227.608C176.957 227.164 177.563 227.527 177.563 228.394Z" fill="#595A5A"/>
<path d="M207.516 211.152C207.516 212.04 206.89 213.088 206.142 213.532C205.374 213.976 204.768 213.613 204.768 212.746C204.768 211.878 205.394 210.81 206.142 210.366C206.89 209.922 207.516 210.285 207.516 211.152Z" fill="#595A5A"/>
<path d="M237.45 193.891C237.45 194.778 236.823 195.827 236.076 196.27C235.308 196.714 234.701 196.351 234.701 195.484C234.701 194.617 235.328 193.548 236.076 193.104C236.844 192.661 237.45 193.024 237.45 193.891Z" fill="#595A5A"/>
<path d="M267.405 176.649C267.405 177.536 266.778 178.585 266.031 179.029C265.263 179.472 264.656 179.109 264.656 178.242C264.656 177.375 265.283 176.306 266.031 175.863C266.799 175.419 267.405 175.782 267.405 176.649Z" fill="#595A5A"/>
<path d="M297.339 159.408C297.339 160.295 296.712 161.344 295.964 161.787C295.196 162.231 294.59 161.868 294.59 161.001C294.59 160.134 295.216 159.065 295.964 158.621C296.732 158.178 297.339 158.541 297.339 159.408Z" fill="#595A5A"/>
<path d="M327.292 142.146C327.292 143.033 326.665 144.082 325.917 144.525C325.149 144.969 324.543 144.606 324.543 143.739C324.543 142.872 325.169 141.803 325.917 141.359C326.685 140.916 327.292 141.279 327.292 142.146Z" fill="#595A5A"/>
<path d="M357.225 124.904C357.225 125.792 356.599 126.84 355.851 127.284C355.083 127.728 354.477 127.365 354.477 126.497C354.477 125.63 355.103 124.562 355.851 124.118C356.599 123.674 357.225 124.037 357.225 124.904Z" fill="#595A5A"/>
<path d="M387.159 107.663C387.159 108.55 386.532 109.599 385.785 110.042C385.017 110.486 384.41 110.123 384.41 109.256C384.41 108.389 385.037 107.32 385.785 106.876C386.553 106.433 387.159 106.796 387.159 107.663Z" fill="#595A5A"/>
<path d="M417.112 90.4009C417.112 91.2881 416.486 92.3368 415.738 92.7804C414.97 93.224 414.363 92.8611 414.363 91.9939C414.363 91.1268 414.99 90.058 415.738 89.6144C416.506 89.1708 417.112 89.5337 417.112 90.4009Z" fill="#595A5A"/>
<path d="M147.63 273.626C147.63 274.513 147.003 275.561 146.255 276.005C145.487 276.449 144.881 276.086 144.881 275.219C144.881 274.352 145.507 273.283 146.255 272.839C147.023 272.395 147.63 272.758 147.63 273.626Z" fill="#595A5A"/>
<path d="M177.563 256.364C177.563 257.251 176.937 258.3 176.189 258.743C175.421 259.187 174.814 258.824 174.814 257.957C174.814 257.09 175.441 256.021 176.189 255.577C176.957 255.134 177.563 255.497 177.563 256.364Z" fill="#595A5A"/>
<path d="M207.516 239.122C207.516 240.009 206.89 241.058 206.142 241.502C205.394 241.945 204.768 241.582 204.768 240.715C204.768 239.848 205.394 238.779 206.142 238.336C206.91 237.892 207.516 238.255 207.516 239.122Z" fill="#595A5A"/>
<path d="M237.45 221.881C237.45 222.768 236.823 223.817 236.076 224.261C235.308 224.704 234.701 224.341 234.701 223.474C234.701 222.607 235.328 221.538 236.076 221.094C236.844 220.651 237.45 221.014 237.45 221.881Z" fill="#595A5A"/>
<path d="M267.405 204.619C267.405 205.506 266.778 206.555 266.031 206.998C265.263 207.442 264.656 207.079 264.656 206.212C264.656 205.345 265.283 204.276 266.031 203.832C266.799 203.389 267.405 203.752 267.405 204.619Z" fill="#595A5A"/>
<path d="M297.339 187.378C297.339 188.265 296.712 189.313 295.964 189.757C295.196 190.201 294.59 189.838 294.59 188.971C294.59 188.103 295.216 187.035 295.964 186.591C296.732 186.147 297.339 186.51 297.339 187.378Z" fill="#595A5A"/>
<path d="M327.292 170.136C327.292 171.023 326.665 172.072 325.917 172.515C325.149 172.959 324.543 172.596 324.543 171.729C324.543 170.862 325.169 169.793 325.917 169.349C326.685 168.906 327.292 169.269 327.292 170.136Z" fill="#595A5A"/>
<path d="M357.225 152.874C357.225 153.761 356.599 154.81 355.851 155.254C355.103 155.697 354.477 155.334 354.477 154.467C354.477 153.6 355.103 152.531 355.851 152.088C356.619 151.644 357.225 152.007 357.225 152.874Z" fill="#595A5A"/>
<path d="M387.159 135.632C387.159 136.52 386.532 137.568 385.785 138.012C385.017 138.456 384.41 138.093 384.41 137.226C384.41 136.358 385.037 135.29 385.785 134.846C386.553 134.402 387.159 134.765 387.159 135.632Z" fill="#595A5A"/>
<path d="M417.112 118.391C417.112 119.278 416.486 120.327 415.738 120.77C414.97 121.214 414.363 120.851 414.363 119.984C414.363 119.117 414.99 118.048 415.738 117.604C416.506 117.161 417.112 117.524 417.112 118.391Z" fill="#595A5A"/>
<path d="M147.63 301.596C147.63 302.483 147.003 303.531 146.255 303.975C145.487 304.419 144.881 304.056 144.881 303.189C144.881 302.322 145.507 301.253 146.255 300.809C147.023 300.365 147.63 300.728 147.63 301.596Z" fill="#595A5A"/>
<path d="M177.563 284.354C177.563 285.241 176.937 286.29 176.189 286.733C175.421 287.177 174.814 286.814 174.814 285.947C174.814 285.08 175.441 284.011 176.189 283.567C176.957 283.124 177.563 283.487 177.563 284.354Z" fill="#595A5A"/>
<path d="M207.516 267.092C207.516 267.979 206.89 269.028 206.142 269.472C205.394 269.915 204.768 269.552 204.768 268.685C204.768 267.818 205.394 266.749 206.142 266.306C206.91 265.862 207.516 266.225 207.516 267.092Z" fill="#595A5A"/>
<path d="M237.45 249.85C237.45 250.738 236.823 251.786 236.076 252.23C235.308 252.674 234.701 252.311 234.701 251.444C234.701 250.576 235.328 249.508 236.076 249.064C236.844 248.62 237.45 248.983 237.45 249.85Z" fill="#595A5A"/>
<path d="M267.405 232.609C267.405 233.496 266.778 234.545 266.031 234.988C265.263 235.432 264.656 235.069 264.656 234.202C264.656 233.335 265.283 232.266 266.031 231.822C266.799 231.379 267.405 231.742 267.405 232.609Z" fill="#595A5A"/>
<path d="M297.339 215.347C297.339 216.234 296.712 217.283 295.964 217.727C295.196 218.17 294.59 217.807 294.59 216.94C294.59 216.073 295.216 215.004 295.964 214.561C296.732 214.117 297.339 214.48 297.339 215.347Z" fill="#595A5A"/>
<path d="M327.292 198.106C327.292 198.993 326.665 200.041 325.917 200.485C325.149 200.929 324.543 200.566 324.543 199.699C324.543 198.832 325.169 197.763 325.917 197.319C326.685 196.875 327.292 197.238 327.292 198.106Z" fill="#595A5A"/>
<path d="M357.225 180.864C357.225 181.751 356.599 182.8 355.851 183.244C355.103 183.687 354.477 183.324 354.477 182.457C354.477 181.59 355.103 180.521 355.851 180.078C356.599 179.634 357.225 179.997 357.225 180.864Z" fill="#595A5A"/>
<path d="M387.159 163.622C387.159 164.51 386.532 165.558 385.785 166.002C385.017 166.446 384.41 166.083 384.41 165.216C384.41 164.348 385.037 163.28 385.785 162.836C386.553 162.392 387.159 162.755 387.159 163.622Z" fill="#595A5A"/>
<path d="M417.112 146.361C417.112 147.248 416.486 148.296 415.738 148.74C414.97 149.184 414.363 148.821 414.363 147.954C414.363 147.087 414.99 146.018 415.738 145.574C416.506 145.13 417.112 145.493 417.112 146.361Z" fill="#595A5A"/>
<path d="M147.63 329.565C147.63 330.453 147.003 331.501 146.255 331.945C145.487 332.388 144.881 332.026 144.881 331.158C144.881 330.291 145.507 329.222 146.255 328.779C147.023 328.335 147.63 328.698 147.63 329.565Z" fill="#595A5A"/>
<path d="M177.563 312.324C177.563 313.211 176.937 314.26 176.189 314.703C175.421 315.147 174.814 314.784 174.814 313.917C174.814 313.05 175.441 311.981 176.189 311.537C176.957 311.093 177.563 311.456 177.563 312.324Z" fill="#595A5A"/>
<path d="M207.516 295.082C207.516 295.969 206.89 297.018 206.142 297.461C205.394 297.905 204.768 297.542 204.768 296.675C204.768 295.808 205.394 294.739 206.142 294.295C206.89 293.852 207.516 294.215 207.516 295.082Z" fill="#595A5A"/>
<path d="M237.45 277.82C237.45 278.707 236.823 279.756 236.076 280.2C235.308 280.643 234.701 280.28 234.701 279.413C234.701 278.546 235.328 277.477 236.076 277.034C236.844 276.59 237.45 276.953 237.45 277.82Z" fill="#595A5A"/>
<path d="M267.405 260.578C267.405 261.466 266.778 262.514 266.031 262.958C265.263 263.402 264.656 263.039 264.656 262.172C264.656 261.304 265.283 260.236 266.031 259.792C266.799 259.348 267.405 259.711 267.405 260.578Z" fill="#595A5A"/>
<path d="M297.339 243.337C297.339 244.225 296.712 245.273 295.964 245.717C295.196 246.16 294.59 245.797 294.59 244.93C294.59 244.063 295.216 242.994 295.964 242.551C296.732 242.107 297.339 242.47 297.339 243.337Z" fill="#595A5A"/>
<path d="M327.292 226.095C327.292 226.983 326.665 228.031 325.917 228.475C325.149 228.919 324.543 228.556 324.543 227.689C324.543 226.821 325.169 225.753 325.917 225.309C326.685 224.865 327.292 225.228 327.292 226.095Z" fill="#595A5A"/>
<path d="M357.225 208.834C357.225 209.721 356.599 210.77 355.851 211.213C355.103 211.657 354.477 211.294 354.477 210.427C354.477 209.56 355.103 208.491 355.851 208.047C356.599 207.604 357.225 207.967 357.225 208.834Z" fill="#595A5A"/>
<path d="M387.159 191.592C387.159 192.479 386.532 193.528 385.785 193.972C385.017 194.415 384.41 194.052 384.41 193.185C384.41 192.318 385.037 191.249 385.785 190.806C386.553 190.362 387.159 190.725 387.159 191.592Z" fill="#595A5A"/>
<path d="M417.112 174.35C417.112 175.238 416.486 176.286 415.738 176.73C414.97 177.174 414.363 176.811 414.363 175.944C414.363 175.076 414.99 174.008 415.738 173.564C416.506 173.12 417.112 173.483 417.112 174.35Z" fill="#595A5A"/>
<path d="M147.63 357.555C147.63 358.442 147.003 359.491 146.255 359.935C145.487 360.378 144.881 360.015 144.881 359.148C144.881 358.281 145.507 357.212 146.255 356.769C147.023 356.325 147.63 356.688 147.63 357.555Z" fill="#595A5A"/>
<path d="M177.563 340.313C177.563 341.201 176.937 342.249 176.189 342.693C175.421 343.137 174.814 342.774 174.814 341.906C174.814 341.039 175.441 339.971 176.189 339.527C176.957 339.083 177.563 339.446 177.563 340.313Z" fill="#595A5A"/>
<path d="M207.516 323.052C207.516 323.939 206.89 324.987 206.142 325.431C205.394 325.875 204.768 325.512 204.768 324.645C204.768 323.778 205.394 322.709 206.142 322.265C206.89 321.822 207.516 322.184 207.516 323.052Z" fill="#595A5A"/>
<path d="M237.45 305.81C237.45 306.698 236.823 307.746 236.076 308.19C235.308 308.634 234.701 308.271 234.701 307.404C234.701 306.536 235.328 305.468 236.076 305.024C236.844 304.58 237.45 304.943 237.45 305.81Z" fill="#595A5A"/>
<path d="M267.405 288.569C267.405 289.456 266.778 290.505 266.031 290.948C265.263 291.392 264.656 291.029 264.656 290.162C264.656 289.295 265.283 288.226 266.031 287.782C266.799 287.339 267.405 287.702 267.405 288.569Z" fill="#595A5A"/>
<path d="M297.339 271.307C297.339 272.194 296.712 273.243 295.964 273.687C295.196 274.13 294.59 273.767 294.59 272.9C294.59 272.033 295.216 270.964 295.964 270.521C296.732 270.077 297.339 270.44 297.339 271.307Z" fill="#595A5A"/>
<path d="M327.292 254.065C327.292 254.952 326.665 256.001 325.917 256.445C325.149 256.888 324.543 256.525 324.543 255.658C324.543 254.791 325.169 253.722 325.917 253.279C326.685 252.835 327.292 253.198 327.292 254.065Z" fill="#595A5A"/>
<path d="M357.225 236.824C357.225 237.711 356.599 238.759 355.851 239.203C355.083 239.647 354.477 239.284 354.477 238.417C354.477 237.55 355.103 236.481 355.851 236.037C356.599 235.593 357.225 235.956 357.225 236.824Z" fill="#595A5A"/>
<path d="M387.159 219.562C387.159 220.449 386.532 221.498 385.785 221.941C385.017 222.385 384.41 222.022 384.41 221.155C384.41 220.288 385.037 219.219 385.785 218.775C386.553 218.332 387.159 218.695 387.159 219.562Z" fill="#595A5A"/>
<path d="M417.112 202.32C417.112 203.207 416.486 204.256 415.738 204.7C414.97 205.143 414.363 204.78 414.363 203.913C414.363 203.046 414.99 201.977 415.738 201.534C416.506 201.09 417.112 201.453 417.112 202.32Z" fill="#595A5A"/>
<path d="M147.63 385.525C147.63 386.412 147.003 387.461 146.255 387.904C145.487 388.348 144.881 387.985 144.881 387.118C144.881 386.251 145.507 385.182 146.255 384.738C147.023 384.295 147.63 384.658 147.63 385.525Z" fill="#595A5A"/>
<path d="M177.563 368.283C177.563 369.17 176.937 370.219 176.189 370.663C175.421 371.106 174.814 370.743 174.814 369.876C174.814 369.009 175.441 367.94 176.189 367.497C176.957 367.053 177.563 367.416 177.563 368.283Z" fill="#595A5A"/>
<path d="M207.516 351.041C207.516 351.929 206.89 352.977 206.142 353.421C205.374 353.865 204.768 353.502 204.768 352.635C204.768 351.767 205.394 350.699 206.142 350.255C206.89 349.811 207.516 350.174 207.516 351.041Z" fill="#595A5A"/>
<path d="M237.45 333.78C237.45 334.667 236.823 335.716 236.076 336.159C235.308 336.603 234.701 336.24 234.701 335.373C234.701 334.506 235.328 333.437 236.076 332.993C236.844 332.55 237.45 332.913 237.45 333.78Z" fill="#595A5A"/>
<path d="M267.405 316.538C267.405 317.425 266.778 318.474 266.031 318.918C265.263 319.361 264.656 318.998 264.656 318.131C264.656 317.264 265.283 316.195 266.031 315.752C266.799 315.308 267.405 315.671 267.405 316.538Z" fill="#595A5A"/>
<path d="M297.339 299.297C297.339 300.184 296.712 301.233 295.964 301.676C295.196 302.12 294.59 301.757 294.59 300.89C294.59 300.023 295.216 298.954 295.964 298.51C296.732 298.067 297.339 298.43 297.339 299.297Z" fill="#595A5A"/>
<path d="M327.292 282.035C327.292 282.922 326.665 283.971 325.917 284.414C325.149 284.858 324.543 284.495 324.543 283.628C324.543 282.761 325.169 281.692 325.917 281.248C326.685 280.805 327.292 281.168 327.292 282.035Z" fill="#595A5A"/>
<path d="M357.225 264.793C357.225 265.681 356.599 266.729 355.851 267.173C355.083 267.617 354.477 267.254 354.477 266.387C354.477 265.519 355.103 264.451 355.851 264.007C356.599 263.563 357.225 263.926 357.225 264.793Z" fill="#595A5A"/>
<path d="M387.159 247.552C387.159 248.439 386.532 249.488 385.785 249.931C385.017 250.375 384.41 250.012 384.41 249.145C384.41 248.278 385.037 247.209 385.785 246.765C386.553 246.322 387.159 246.685 387.159 247.552Z" fill="#595A5A"/>
<path d="M417.112 230.29C417.112 231.177 416.486 232.226 415.738 232.669C414.97 233.113 414.363 232.75 414.363 231.883C414.363 231.016 414.99 229.947 415.738 229.503C416.506 229.06 417.112 229.423 417.112 230.29Z" fill="#595A5A"/>
<path d="M147.63 413.515C147.63 414.402 147.003 415.451 146.255 415.894C145.487 416.338 144.881 415.975 144.881 415.108C144.881 414.241 145.507 413.172 146.255 412.728C147.023 412.285 147.63 412.648 147.63 413.515Z" fill="#595A5A"/>
<path d="M177.563 396.253C177.563 397.14 176.937 398.189 176.189 398.632C175.421 399.076 174.814 398.713 174.814 397.846C174.814 396.979 175.441 395.91 176.189 395.466C176.957 395.023 177.563 395.386 177.563 396.253Z" fill="#595A5A"/>
<path d="M207.516 379.011C207.516 379.898 206.89 380.947 206.142 381.391C205.394 381.834 204.768 381.471 204.768 380.604C204.768 379.737 205.394 378.668 206.142 378.225C206.91 377.781 207.516 378.144 207.516 379.011Z" fill="#595A5A"/>
<path d="M237.45 361.77C237.45 362.657 236.823 363.706 236.076 364.15C235.308 364.593 234.701 364.23 234.701 363.363C234.701 362.496 235.328 361.427 236.076 360.984C236.844 360.54 237.45 360.903 237.45 361.77Z" fill="#595A5A"/>
<path d="M267.405 344.508C267.405 345.395 266.778 346.444 266.031 346.887C265.263 347.331 264.656 346.968 264.656 346.101C264.656 345.234 265.283 344.165 266.031 343.721C266.799 343.278 267.405 343.641 267.405 344.508Z" fill="#595A5A"/>
<path d="M297.339 327.267C297.339 328.154 296.712 329.202 295.964 329.646C295.196 330.09 294.59 329.727 294.59 328.86C294.59 327.993 295.216 326.924 295.964 326.48C296.732 326.036 297.339 326.399 297.339 327.267Z" fill="#595A5A"/>
<path d="M327.292 310.025C327.292 310.912 326.665 311.961 325.917 312.404C325.149 312.848 324.543 312.485 324.543 311.618C324.543 310.751 325.169 309.682 325.917 309.238C326.685 308.795 327.292 309.158 327.292 310.025Z" fill="#595A5A"/>
<path d="M357.225 292.763C357.225 293.65 356.599 294.699 355.851 295.143C355.103 295.586 354.477 295.223 354.477 294.356C354.477 293.489 355.103 292.42 355.851 291.977C356.619 291.533 357.225 291.896 357.225 292.763Z" fill="#595A5A"/>
<path d="M387.159 275.521C387.159 276.409 386.532 277.457 385.785 277.901C385.017 278.345 384.41 277.982 384.41 277.115C384.41 276.247 385.037 275.179 385.785 274.735C386.553 274.291 387.159 274.654 387.159 275.521Z" fill="#595A5A"/>
<path d="M417.112 258.28C417.112 259.167 416.486 260.216 415.738 260.659C414.97 261.103 414.363 260.74 414.363 259.873C414.363 259.006 414.99 257.937 415.738 257.493C416.506 257.05 417.112 257.413 417.112 258.28Z" fill="#595A5A"/>
<path d="M147.63 469.454C147.63 470.342 147.003 471.39 146.255 471.834C145.487 472.278 144.881 471.915 144.881 471.047C144.881 470.18 145.507 469.112 146.255 468.668C147.023 468.224 147.63 468.587 147.63 469.454Z" fill="#595A5A"/>
<path d="M177.563 452.213C177.563 453.1 176.937 454.149 176.189 454.592C175.421 455.036 174.814 454.673 174.814 453.806C174.814 452.939 175.441 451.87 176.189 451.426C176.957 450.983 177.563 451.346 177.563 452.213Z" fill="#595A5A"/>
<path d="M207.516 434.971C207.516 435.858 206.89 436.907 206.142 437.35C205.394 437.794 204.768 437.431 204.768 436.564C204.768 435.697 205.394 434.628 206.142 434.184C206.89 433.741 207.516 434.104 207.516 434.971Z" fill="#595A5A"/>
<path d="M237.45 417.709C237.45 418.596 236.823 419.645 236.076 420.089C235.308 420.532 234.701 420.169 234.701 419.302C234.701 418.435 235.328 417.366 236.076 416.923C236.844 416.479 237.45 416.842 237.45 417.709Z" fill="#595A5A"/>
<path d="M267.405 400.468C267.405 401.355 266.778 402.403 266.031 402.847C265.263 403.291 264.656 402.928 264.656 402.061C264.656 401.193 265.283 400.125 266.031 399.681C266.799 399.237 267.405 399.6 267.405 400.468Z" fill="#595A5A"/>
<path d="M297.339 383.226C297.339 384.114 296.712 385.162 295.964 385.606C295.196 386.05 294.59 385.687 294.59 384.819C294.59 383.952 295.216 382.883 295.964 382.44C296.732 381.996 297.339 382.359 297.339 383.226Z" fill="#595A5A"/>
<path d="M327.292 365.964C327.292 366.852 326.665 367.9 325.917 368.344C325.149 368.788 324.543 368.425 324.543 367.557C324.543 366.69 325.169 365.622 325.917 365.178C326.685 364.734 327.292 365.097 327.292 365.964Z" fill="#595A5A"/>
<path d="M357.225 348.723C357.225 349.61 356.599 350.659 355.851 351.102C355.103 351.546 354.477 351.183 354.477 350.316C354.477 349.449 355.103 348.38 355.851 347.936C356.599 347.493 357.225 347.856 357.225 348.723Z" fill="#595A5A"/>
<path d="M387.159 331.481C387.159 332.368 386.532 333.417 385.785 333.861C385.017 334.304 384.41 333.941 384.41 333.074C384.41 332.207 385.037 331.138 385.785 330.695C386.553 330.251 387.159 330.614 387.159 331.481Z" fill="#595A5A"/>
<path d="M417.112 314.239C417.112 315.127 416.486 316.175 415.738 316.619C414.97 317.063 414.363 316.7 414.363 315.833C414.363 314.965 414.99 313.897 415.738 313.453C416.506 313.009 417.112 313.372 417.112 314.239Z" fill="#595A5A"/>
</g>
<g opacity="0.5">
<path d="M378.65 101.492V240.151L410.666 258.582V119.943L378.65 101.492Z" fill="#121314"/>
<path d="M410.466 258.236L378.85 240.035V101.838L410.466 120.059V258.236Z" stroke="white" stroke-opacity="0.3" stroke-width="0.4"/>
</g>
<g opacity="0.5">
<path d="M378.65 101.492V240.151L346.635 258.582V119.943L378.65 101.492Z" fill="#121314"/>
<path d="M346.835 120.059L378.45 101.838V240.035L346.835 258.236V120.059Z" stroke="white" stroke-opacity="0.3" stroke-width="0.4"/>
</g>
<path d="M378.65 138.375L346.635 119.943L378.65 101.492L410.665 119.943L378.65 138.375Z" fill="#121314"/>
<path d="M378.65 138.144L347.035 119.943L378.65 101.723L410.265 119.943L378.65 138.144Z" stroke="white" stroke-opacity="0.3" stroke-width="0.4"/>
<g opacity="0.5">
<path d="M378.65 137.508L347.383 119.5L346.635 119.943L378.65 138.375L410.665 119.943L409.917 119.5L378.65 137.508Z" fill="#121314"/>
<path d="M378.55 137.681L378.65 137.738L378.75 137.681L409.916 119.731L410.269 119.941L378.65 138.144L347.031 119.941L347.384 119.731L378.55 137.681Z" stroke="white" stroke-opacity="0.3" stroke-width="0.4"/>
</g>
<g opacity="0.6">
<path d="M378.65 277.034L346.635 258.582L378.65 240.151L410.665 258.582L378.65 277.034Z" fill="#121314"/>
<path d="M378.65 276.803L347.035 258.582L378.65 240.382L410.265 258.582L378.65 276.803Z" stroke="white" stroke-opacity="0.3" stroke-width="0.4"/>
</g>
<path d="M346.635 119.943V258.582L378.65 277.034V138.375L346.635 119.943Z" fill="#121314"/>
<path d="M378.45 276.688L346.835 258.467V120.289L378.45 138.49V276.688Z" stroke="white" stroke-opacity="0.3" stroke-width="0.4"/>
<path d="M410.666 119.943V258.582L378.65 277.034V138.375L410.666 119.943Z" fill="#121314"/>
<path d="M378.85 138.491L410.466 120.289V258.467L378.85 276.688V138.491Z" stroke="white" stroke-opacity="0.3" stroke-width="0.4"/>
<g opacity="0.5">
<path d="M314.58 180.037V276.892L346.595 295.324V198.488L314.58 180.037Z" fill="#121314"/>
<path d="M346.395 294.978L314.78 276.777V180.383L346.395 198.604V294.978Z" stroke="white" stroke-opacity="0.3" stroke-width="0.4"/>
</g>
<g opacity="0.5">
<path d="M314.58 180.037V276.892L282.564 295.324V198.488L314.58 180.037Z" fill="#121314"/>
<path d="M282.764 198.604L314.38 180.383V276.777L282.764 294.978V198.604Z" stroke="white" stroke-opacity="0.3" stroke-width="0.4"/>
</g>
<path d="M314.58 216.92L282.564 198.488L314.58 180.037L346.595 198.488L314.58 216.92Z" fill="#121314"/>
<path d="M314.58 216.689L282.965 198.488L314.58 180.268L346.194 198.488L314.58 216.689Z" stroke="white" stroke-opacity="0.3" stroke-width="0.4"/>
<g opacity="0.5">
<path d="M314.58 216.053L283.312 198.045L282.564 198.488L314.58 216.92L346.595 198.488L345.847 198.045L314.58 216.053Z" fill="#121314"/>
<path d="M314.48 216.226L314.58 216.283L314.68 216.226L345.846 198.276L346.199 198.486L314.58 216.689L282.961 198.486L283.314 198.276L314.48 216.226Z" stroke="white" stroke-opacity="0.3" stroke-width="0.4"/>
</g>
<g opacity="0.6">
<path d="M314.58 313.775L282.564 295.324L314.58 276.892L346.595 295.324L314.58 313.775Z" fill="#121314"/>
<path d="M314.58 313.544L282.965 295.324L314.58 277.123L346.194 295.324L314.58 313.544Z" stroke="white" stroke-opacity="0.3" stroke-width="0.4"/>
</g>
<path d="M282.564 198.488V295.324L314.58 313.775V216.92L282.564 198.488Z" fill="#121314"/>
<path d="M314.38 313.429L282.764 295.208V198.834L314.38 217.035V313.429Z" stroke="white" stroke-opacity="0.3" stroke-width="0.4"/>
<path d="M346.595 198.488V295.324L314.58 313.775V216.92L346.595 198.488Z" fill="#121314"/>
<path d="M314.78 217.035L346.395 198.834V295.208L314.78 313.429V217.035Z" stroke="white" stroke-opacity="0.3" stroke-width="0.4"/>
<g opacity="0.5">
<path d="M250.508 258.078V313.614L282.523 332.065V276.509L250.508 258.078Z" fill="#121314"/>
<path d="M282.323 331.719L250.708 313.498V258.424L282.323 276.625V331.719Z" stroke="white" stroke-opacity="0.3" stroke-width="0.4"/>
</g>
<g opacity="0.5">
<path d="M250.507 258.078V313.614L218.492 332.065V276.509L250.507 258.078Z" fill="#121314"/>
<path d="M218.692 276.625L250.307 258.424V313.498L218.692 331.719V276.625Z" stroke="white" stroke-opacity="0.3" stroke-width="0.4"/>
</g>
<path d="M250.507 294.961L218.492 276.509L250.507 258.078L282.523 276.509L250.507 294.961Z" fill="#121314"/>
<path d="M250.507 294.73L218.893 276.509L250.507 258.309L282.122 276.509L250.507 294.73Z" stroke="white" stroke-opacity="0.3" stroke-width="0.4"/>
<g opacity="0.5">
<path d="M250.507 294.094L219.24 276.086L218.492 276.509L250.507 294.961L282.523 276.509L281.775 276.086L250.507 294.094Z" fill="#121314"/>
<path d="M250.408 294.267L250.507 294.324L250.607 294.267L281.776 276.316L282.12 276.511L250.507 294.73L218.895 276.511L219.239 276.316L250.408 294.267Z" stroke="white" stroke-opacity="0.3" stroke-width="0.4"/>
</g>
<g opacity="0.6">
<path d="M250.507 350.497L218.492 332.065L250.507 313.614L282.523 332.065L250.507 350.497Z" fill="#121314"/>
<path d="M250.507 350.266L218.893 332.065L250.507 313.845L282.122 332.065L250.507 350.266Z" stroke="white" stroke-opacity="0.3" stroke-width="0.4"/>
</g>
<path d="M218.492 276.509V332.065L250.507 350.497V294.961L218.492 276.509Z" fill="#121314"/>
<path d="M250.307 350.151L218.692 331.95V276.855L250.307 295.076V350.151Z" stroke="white" stroke-opacity="0.3" stroke-width="0.4"/>
<path d="M282.523 276.509V332.065L250.508 350.497V294.96L282.523 276.509Z" fill="#121314"/>
<path d="M250.708 295.076L282.323 276.855V331.95L250.708 350.151V295.076Z" stroke="white" stroke-opacity="0.3" stroke-width="0.4"/>
<path d="M437.015 312.884L405 294.432L437.015 276.001L469.031 294.432L437.015 312.884Z" fill="#121314"/>
<path d="M437.015 312.653L405.401 294.432L437.015 276.231L468.63 294.432L437.015 312.653Z" stroke="white" stroke-opacity="0.3" stroke-width="0.4"/>
<g opacity="0.5">
<path d="M437.015 312.016L405.748 294.009L405 294.432L437.015 312.884L469.031 294.432L468.283 294.009L437.015 312.016Z" fill="#121314"/>
<path d="M436.915 312.19L437.015 312.247L437.115 312.19L468.284 294.239L468.627 294.434L437.015 312.653L405.403 294.434L405.747 294.239L436.915 312.19Z" stroke="white" stroke-opacity="0.3" stroke-width="0.4"/>
</g>
<path d="M405.768 293.565V400.128L436.085 418.592V312.049L405.768 293.565Z" fill="#121314"/>
<path d="M435.885 418.236L405.968 400.015V293.921L435.885 312.161V418.236Z" stroke="white" stroke-opacity="0.3" stroke-width="0.4"/>
<path opacity="0.5" d="M65.9941 440V464.845L98.0094 483.276V458.432L65.9941 440Z" fill="#121314"/>
<path opacity="0.5" d="M66.0153 440V464.845L34 483.276V458.432L66.0153 440Z" fill="#121314"/>
<g opacity="0.5">
<path d="M66.0153 476.883L34 458.432L65.995 440L98.0103 458.432L66.0153 476.883Z" fill="#121314"/>
<path d="M66.0152 476.653L34.4006 458.432L65.9951 440.231L97.6097 458.432L66.0152 476.653Z" stroke="white" stroke-opacity="0.3" stroke-width="0.4"/>
</g>
<g opacity="0.5">
<path d="M34 458.432V483.276L66.0153 501.707V476.883L34 458.432Z" fill="#121314"/>
<path d="M65.8153 501.361L34.2 483.16V458.778L65.8153 476.999V501.361Z" stroke="white" stroke-opacity="0.3" stroke-width="0.4"/>
</g>
<path opacity="0.5" d="M98.9391 458.049V482.893L66.9238 501.325V476.501L98.9391 458.049Z" fill="#121314"/>
<g opacity="0.5">
<path d="M186.438 300.022V350.437L218.453 368.888V318.454L186.438 300.022Z" fill="#121314"/>
<path d="M218.253 368.542L186.638 350.321V300.368L218.253 318.569V368.542Z" stroke="white" stroke-opacity="0.3" stroke-width="0.4"/>
</g>
<g opacity="0.5">
<path d="M186.437 300.022V350.437L154.422 368.888V318.454L186.437 300.022Z" fill="#121314"/>
<path d="M154.622 318.569L186.237 300.368V350.321L154.622 368.542V318.569Z" stroke="white" stroke-opacity="0.3" stroke-width="0.4"/>
</g>
<path d="M186.437 336.905L154.422 318.454L186.437 300.022L218.452 318.454L186.437 336.905Z" fill="#121314"/>
<path d="M186.437 336.675L154.823 318.454L186.437 300.253L218.052 318.454L186.437 336.675Z" stroke="white" stroke-opacity="0.3" stroke-width="0.4"/>
<g opacity="0.5">
<path d="M186.437 336.038L155.17 318.03L154.422 318.454L186.437 336.905L218.452 318.454L217.705 318.03L186.437 336.038Z" fill="#121314"/>
<path d="M186.337 336.212L186.437 336.269L186.537 336.212L217.705 318.261L218.049 318.455L186.437 336.675L154.825 318.455L155.169 318.261L186.337 336.212Z" stroke="white" stroke-opacity="0.3" stroke-width="0.4"/>
</g>
<g opacity="0.6">
<path d="M186.437 387.319L154.422 368.888L186.437 350.437L218.452 368.888L186.437 387.319Z" fill="#121314"/>
<path d="M186.437 387.089L154.823 368.888L186.437 350.667L218.052 368.888L186.437 387.089Z" stroke="white" stroke-opacity="0.3" stroke-width="0.4"/>
</g>
<path d="M154.422 318.454V368.888L186.437 387.319V336.905L154.422 318.454Z" fill="#121314"/>
<path d="M186.237 386.974L154.622 368.772V318.8L186.237 337.021V386.974Z" stroke="white" stroke-opacity="0.3" stroke-width="0.4"/>
<path d="M218.453 318.454V368.888L186.438 387.319V336.905L218.453 318.454Z" fill="#121314"/>
<path d="M186.638 337.021L218.253 318.8V368.772L186.638 386.973V337.021Z" stroke="white" stroke-opacity="0.3" stroke-width="0.4"/>
<path d="M264.38 537.618C263.107 537.618 261.833 537.295 260.702 536.63L231.192 519.63C230.445 519.207 230 518.42 230 517.553C230 516.686 230.445 515.92 231.213 515.476L260.742 498.537C263.006 497.226 265.835 497.246 268.099 498.537L297.507 515.476C298.255 515.9 298.699 516.686 298.699 517.553C298.699 518.42 298.255 519.187 297.507 519.63L268.099 536.63C266.967 537.295 265.694 537.618 264.4 537.618H264.38ZM232.486 517.594L261.934 534.513C263.45 535.38 265.33 535.38 266.846 534.513L296.254 517.513L266.846 500.675C265.33 499.807 263.471 499.807 261.955 500.675L232.486 517.573V517.594Z" fill="#595A5A"/>
<path d="M297.487 517.553V404H231.273V517.553C231.273 517.956 231.455 518.339 231.86 518.561L261.369 535.561C263.268 536.65 265.613 536.65 267.513 535.561L296.921 518.561C297.305 518.339 297.507 517.936 297.507 517.553H297.487Z" fill="url(#paint0_linear_2504_5782)"/>
<path d="M34.38 410.618C33.1067 410.618 31.8334 410.295 30.7015 409.63L1.19248 392.63C0.444649 392.207 0 391.42 0 390.553C0 389.686 0.444638 388.92 1.21268 388.476L30.7419 371.537C33.0056 370.226 35.8353 370.246 38.099 371.537L67.5069 388.476C68.2548 388.9 68.6994 389.686 68.6994 390.553C68.6994 391.42 68.2548 392.187 67.5069 392.63L38.099 409.63C36.9671 410.295 35.6938 410.618 34.4002 410.618H34.38ZM2.48603 390.594L31.9344 407.513C33.4503 408.38 35.33 408.38 36.8459 407.513L66.2538 390.513L36.8459 373.675C35.33 372.807 33.4705 372.807 31.9546 373.675L2.48603 390.573V390.594Z" fill="#595A5A"/>
<path d="M67.4869 390.553V277H1.27344V390.553C1.27344 390.956 1.45536 391.339 1.85959 391.561L31.3686 408.561C33.2685 409.65 35.6131 409.65 37.513 408.561L66.9209 391.561C67.305 391.339 67.5071 390.936 67.5071 390.553H67.4869Z" fill="url(#paint1_linear_2504_5782)"/>
<path d="M468.425 293.564V400.127L436.086 418.591V312.049L468.425 293.564Z" fill="#121314"/>
<path d="M436.286 312.165L468.225 293.909V400.011L436.286 418.247V312.165Z" stroke="white" stroke-opacity="0.3" stroke-width="0.4"/>
<path opacity="0.5" d="M488.994 370V394.844L521.009 413.275V388.431L488.994 370Z" fill="#121314"/>
<path opacity="0.5" d="M489.015 370V394.844L457 413.275V388.431L489.015 370Z" fill="#121314"/>
<g opacity="0.5">
<path d="M489.015 406.883L457 388.431L488.995 370L521.01 388.431L489.015 406.883Z" fill="#121314"/>
<path d="M489.015 406.652L457.401 388.431L488.995 370.231L520.61 388.432L489.015 406.652Z" stroke="white" stroke-opacity="0.3" stroke-width="0.4"/>
</g>
<g opacity="0.5">
<path d="M457 388.431V413.275L489.015 431.707V406.883L457 388.431Z" fill="#121314"/>
<path d="M488.815 431.361L457.2 413.16V388.778L488.815 406.999V431.361Z" stroke="white" stroke-opacity="0.3" stroke-width="0.4"/>
</g>
<path opacity="0.5" d="M521.939 388.049V412.893L489.924 431.324V406.5L521.939 388.049Z" fill="#121314"/>
<path d="M491.221 407C489.954 407 488.686 406.679 487.56 406.016L458.187 389.096C457.443 388.674 457 387.891 457 387.028C457 386.165 457.443 385.402 458.207 384.961L487.6 368.1C489.853 366.795 492.67 366.815 494.923 368.1L524.195 384.961C524.939 385.382 525.382 386.165 525.382 387.028C525.382 387.891 524.939 388.654 524.195 389.096L494.923 406.016C493.796 406.679 492.529 407 491.241 407H491.221ZM459.475 387.068L488.787 403.909C490.296 404.772 492.167 404.772 493.675 403.909L522.947 386.988L493.675 370.227C492.167 369.364 490.316 369.364 488.807 370.227L459.475 387.048V387.068Z" fill="#595A5A"/>
<path d="M524.175 387.027V274H458.268V387.027C458.268 387.429 458.449 387.81 458.851 388.031L488.224 404.952C490.115 406.036 492.448 406.036 494.339 404.952L523.611 388.031C523.994 387.81 524.195 387.409 524.195 387.027H524.175Z" fill="url(#paint2_linear_2504_5782)"/>
<defs>
<linearGradient id="paint0_linear_2504_5782" x1="260.023" y1="404" x2="267.608" y2="536.029" gradientUnits="userSpaceOnUse">
<stop stop-color="#1A1C1E" stop-opacity="0"/>
<stop offset="1" stop-color="#4500DF"/>
</linearGradient>
<linearGradient id="paint1_linear_2504_5782" x1="30.0225" y1="277" x2="37.6077" y2="409.029" gradientUnits="userSpaceOnUse">
<stop stop-color="#1A1C1E" stop-opacity="0"/>
<stop offset="1" stop-color="#4500DF"/>
</linearGradient>
<linearGradient id="paint2_linear_2504_5782" x1="486.884" y1="274" x2="494.434" y2="405.419" gradientUnits="userSpaceOnUse">
<stop stop-color="#1A1C1E" stop-opacity="0"/>
<stop offset="0.239583" stop-color="#394B1A" stop-opacity="0.239583"/>
<stop offset="0.239683" stop-color="#394B1A" stop-opacity="0.239583"/>
<stop offset="1" stop-color="#9AE00D"/>
</linearGradient>
</defs>
</svg>
