<svg width="515" height="466" viewBox="0 0 515 466" fill="none" xmlns="http://www.w3.org/2000/svg">
<g clip-path="url(#clip0_1918_10717)">
<g filter="url(#filter0_b_1918_10717)">
<path d="M357.19 319.939L289.109 280.633V201.98L357.19 241.307V319.939Z" fill="#121314" stroke="white" stroke-opacity="0.3"/>
<path d="M425.292 280.633L357.191 319.939V241.307L425.292 201.98V280.633Z" fill="#121314" stroke="white" stroke-opacity="0.3"/>
<g filter="url(#filter1_b_1918_10717)">
<path d="M357.19 241.307L289.109 201.98L357.19 162.654L425.292 201.98L357.19 241.307Z" fill="#121314"/>
<path d="M357.19 241.307L289.109 201.98L357.19 162.654L425.292 201.98L357.19 241.307Z" stroke="white" stroke-opacity="0.3"/>
</g>
<path d="M435.359 366.124L367.258 326.798V248.145L435.359 287.471V366.124Z" fill="#121314" stroke="white" stroke-opacity="0.3"/>
<path d="M503.461 326.797L435.359 366.124V287.471L503.461 248.145V326.797Z" fill="#121314" stroke="white" stroke-opacity="0.3"/>
<g filter="url(#filter2_b_1918_10717)">
<path d="M435.362 287.472L367.281 248.145L435.362 208.839L503.443 248.145L435.362 287.472Z" fill="#121314"/>
<path d="M435.362 287.472L367.281 248.145L435.362 208.839L503.443 248.145L435.362 287.472Z" stroke="white" stroke-opacity="0.3"/>
</g>
<path d="M279.499 365.173L211.418 325.847V247.194L279.499 286.521V365.173Z" fill="#121314" stroke="white" stroke-opacity="0.3"/>
<path d="M347.601 325.847L279.5 365.174V286.521L347.601 247.194V325.847Z" fill="#121314" stroke="white" stroke-opacity="0.3"/>
<g filter="url(#filter3_b_1918_10717)">
<path d="M279.499 286.52L211.418 247.194L279.499 207.868L347.6 247.194L279.499 286.52Z" fill="#121314"/>
<path d="M279.499 286.52L211.418 247.194L279.499 207.868L347.6 247.194L279.499 286.52Z" stroke="white" stroke-opacity="0.3"/>
</g>
<g filter="url(#filter4_b_1918_10717)">
<path d="M357.669 411.333L289.568 372.007V293.374L357.669 332.68V411.333Z" fill="#121314"/>
<path d="M357.669 411.333L289.568 372.007V293.374L357.669 332.68V411.333Z" stroke="white" stroke-opacity="0.3"/>
</g>
<g filter="url(#filter5_b_1918_10717)">
<path d="M425.753 372.007L357.672 411.333V332.68L425.753 293.374V372.007Z" fill="#121314"/>
<path d="M425.753 372.007L357.672 411.333V332.68L425.753 293.374V372.007Z" stroke="white" stroke-opacity="0.3"/>
</g>
<g filter="url(#filter6_b_1918_10717)">
<path d="M357.67 332.68L289.568 293.354L357.67 254.047L425.751 293.374L357.67 332.68Z" fill="#121314"/>
<path d="M357.67 332.68L289.568 293.354L357.67 254.047L425.751 293.374L357.67 332.68Z" stroke="white" stroke-opacity="0.3"/>
</g>
</g>
<g filter="url(#filter7_b_1918_10717)">
<path d="M357.185 228.212L289.104 188.886V110.233L357.185 149.56V228.212Z" fill="#121314" stroke="white" stroke-opacity="0.3"/>
<path d="M425.286 188.886L357.185 228.212V149.56L425.286 110.233V188.886Z" fill="#121314" stroke="white" stroke-opacity="0.3"/>
<g filter="url(#filter8_b_1918_10717)">
<path d="M357.185 149.559L289.104 110.233L357.185 70.9268L425.286 110.233L357.185 149.559Z" fill="#121314"/>
<path d="M357.185 149.559L289.104 110.233L357.185 70.9268L425.286 110.233L357.185 149.559Z" stroke="white" stroke-opacity="0.3"/>
</g>
<path d="M435.347 274.368L367.246 235.041V156.409L435.347 195.735V274.368Z" fill="#121314" stroke="white" stroke-opacity="0.3"/>
<path d="M503.451 235.042L435.35 274.368V195.736L503.451 156.409V235.042Z" fill="#121314" stroke="white" stroke-opacity="0.3"/>
<g filter="url(#filter9_b_1918_10717)">
<path d="M435.349 195.715L367.268 156.409L435.349 117.083L503.43 156.409L435.349 195.715Z" fill="#121314"/>
<path d="M435.349 195.715L367.268 156.409L435.349 117.083L503.43 156.409L435.349 195.715Z" stroke="white" stroke-opacity="0.3"/>
</g>
<path d="M279.501 273.426L211.42 234.1V155.447L279.501 194.773V273.426Z" fill="#121314" stroke="white" stroke-opacity="0.3"/>
<path d="M347.601 234.1L279.5 273.426V194.774L347.601 155.447V234.1Z" fill="#121314" stroke="white" stroke-opacity="0.3"/>
<g filter="url(#filter10_b_1918_10717)">
<path d="M279.501 194.773L211.42 155.447L279.501 116.141L347.602 155.447L279.501 194.773Z" fill="#121314"/>
<path d="M279.501 194.773L211.42 155.447L279.501 116.141L347.602 155.447L279.501 194.773Z" stroke="white" stroke-opacity="0.3"/>
</g>
<path d="M75.0556 359.373L6.97461 320.046V241.394L75.0556 280.72V359.373Z" fill="#121314" stroke="white" stroke-opacity="0.3"/>
<path d="M143.158 320.046L75.0564 359.373V280.72L143.158 241.394V320.046Z" fill="#121314" stroke="white" stroke-opacity="0.3"/>
<g filter="url(#filter11_b_1918_10717)">
<path d="M75.0556 280.72L6.97461 241.393L75.0556 202.087L143.157 241.393L75.0556 280.72Z" fill="#121314"/>
<path d="M75.0556 280.72L6.97461 241.393L75.0556 202.087L143.157 241.393L75.0556 280.72Z" stroke="white" stroke-opacity="0.3"/>
</g>
<path d="M320.09 324.905V389.254L287.108 410.128L254.126 431.001L109.514 338.513" stroke="white" stroke-opacity="0.3"/>
<path d="M387.597 271.164L320.09 312.336V389.254L254.126 431.001L109.514 338.513" stroke="white" stroke-opacity="0.3"/>
<g filter="url(#filter12_f_1918_10717)">
<path d="M254.125 431.001L181.818 384.757" stroke="white" stroke-opacity="0.3"/>
</g>
<g filter="url(#filter13_f_1918_10717)">
<path d="M181.818 384.757L217.972 407.879" stroke="white" stroke-opacity="0.3"/>
</g>
</g>
<g filter="url(#filter14_b_1918_10717)">
<path d="M198.988 241.187L267.09 280.514V201.861L198.988 162.555V241.187Z" fill="#121314"/>
<path d="M198.988 241.187L267.09 280.514V201.861L198.988 162.555V241.187Z" stroke="white" stroke-opacity="0.3"/>
</g>
<g filter="url(#filter15_b_1918_10717)">
<path d="M73.3004 183.368L5.19212 222.682L73.3074 262.009L141.398 222.684L73.3004 183.368Z" fill="#121314"/>
<path d="M73.3004 183.368L5.19212 222.682L73.3074 262.009L141.398 222.684L73.3004 183.368Z" stroke="white" stroke-opacity="0.3"/>
</g>
<path fill-rule="evenodd" clip-rule="evenodd" d="M50.1994 208.251C62.7625 202.132 83.1625 202.132 95.7257 208.251C108.289 214.37 108.289 224.305 95.7257 230.423C83.1625 236.542 62.7625 236.542 50.1994 230.423C37.6363 224.305 37.6363 214.37 50.1994 208.251Z" stroke="white" stroke-opacity="0.3"/>
<path fill-rule="evenodd" clip-rule="evenodd" d="M43.4802 225.64C45.0419 223.904 47.2817 222.277 50.1987 220.856C62.7618 214.738 83.1619 214.738 95.725 220.856C98.642 222.277 100.882 223.904 102.443 225.64C100.882 227.375 98.642 229.002 95.725 230.422C83.1619 236.541 62.7618 236.541 50.1987 230.422C47.2817 229.002 45.0419 227.375 43.4802 225.64Z" fill="#121314" stroke="white" stroke-opacity="0.3"/>
<path fill-rule="evenodd" clip-rule="evenodd" d="M43.8044 225.756C45.3661 224.02 47.6059 222.393 50.523 220.972C63.0861 214.854 83.4861 214.854 96.0492 220.972C98.9662 222.393 101.206 224.02 102.768 225.756C101.206 227.491 98.9662 229.118 96.0492 230.538C83.4861 236.658 63.0861 236.658 50.523 230.538C47.6059 229.118 45.3661 227.491 43.8044 225.756Z" stroke="white" stroke-opacity="0.3"/>
<path fill-rule="evenodd" clip-rule="evenodd" d="M43.4622 226.284C45.0427 224.621 4.62866 122.957 4.62866 122.957L140.783 122.957C140.783 122.957 101.553 224.621 103.133 226.284C101.553 227.946 99.2863 229.505 96.3342 230.866C83.6203 236.727 62.9753 236.727 50.2614 230.866C47.3093 229.505 45.0427 227.946 43.4622 226.284Z" fill="url(#paint0_linear_1918_10717)"/>
</g>
<defs>
<filter id="filter0_b_1918_10717" x="184.257" y="135.915" width="346.347" height="302.445" filterUnits="userSpaceOnUse" color-interpolation-filters="sRGB">
<feFlood flood-opacity="0" result="BackgroundImageFix"/>
<feGaussianBlur in="BackgroundImageFix" stdDeviation="13.0806"/>
<feComposite in2="SourceAlpha" operator="in" result="effect1_backgroundBlur_1918_10717"/>
<feBlend mode="normal" in="SourceGraphic" in2="effect1_backgroundBlur_1918_10717" result="shape"/>
</filter>
<filter id="filter1_b_1918_10717" x="223.579" y="97.5454" width="267.244" height="208.87" filterUnits="userSpaceOnUse" color-interpolation-filters="sRGB">
<feFlood flood-opacity="0" result="BackgroundImageFix"/>
<feGaussianBlur in="BackgroundImageFix" stdDeviation="32.2655"/>
<feComposite in2="SourceAlpha" operator="in" result="effect1_backgroundBlur_1918_10717"/>
<feBlend mode="normal" in="SourceGraphic" in2="effect1_backgroundBlur_1918_10717" result="shape"/>
</filter>
<filter id="filter2_b_1918_10717" x="301.75" y="143.731" width="267.224" height="208.849" filterUnits="userSpaceOnUse" color-interpolation-filters="sRGB">
<feFlood flood-opacity="0" result="BackgroundImageFix"/>
<feGaussianBlur in="BackgroundImageFix" stdDeviation="32.2655"/>
<feComposite in2="SourceAlpha" operator="in" result="effect1_backgroundBlur_1918_10717"/>
<feBlend mode="normal" in="SourceGraphic" in2="effect1_backgroundBlur_1918_10717" result="shape"/>
</filter>
<filter id="filter3_b_1918_10717" x="145.887" y="142.759" width="267.244" height="208.87" filterUnits="userSpaceOnUse" color-interpolation-filters="sRGB">
<feFlood flood-opacity="0" result="BackgroundImageFix"/>
<feGaussianBlur in="BackgroundImageFix" stdDeviation="32.2655"/>
<feComposite in2="SourceAlpha" operator="in" result="effect1_backgroundBlur_1918_10717"/>
<feBlend mode="normal" in="SourceGraphic" in2="effect1_backgroundBlur_1918_10717" result="shape"/>
</filter>
<filter id="filter4_b_1918_10717" x="276.86" y="280.299" width="93.5183" height="144.108" filterUnits="userSpaceOnUse" color-interpolation-filters="sRGB">
<feFlood flood-opacity="0" result="BackgroundImageFix"/>
<feGaussianBlur in="BackgroundImageFix" stdDeviation="6.10429"/>
<feComposite in2="SourceAlpha" operator="in" result="effect1_backgroundBlur_1918_10717"/>
<feBlend mode="normal" in="SourceGraphic" in2="effect1_backgroundBlur_1918_10717" result="shape"/>
</filter>
<filter id="filter5_b_1918_10717" x="344.963" y="280.299" width="93.4982" height="144.108" filterUnits="userSpaceOnUse" color-interpolation-filters="sRGB">
<feFlood flood-opacity="0" result="BackgroundImageFix"/>
<feGaussianBlur in="BackgroundImageFix" stdDeviation="6.10429"/>
<feComposite in2="SourceAlpha" operator="in" result="effect1_backgroundBlur_1918_10717"/>
<feBlend mode="normal" in="SourceGraphic" in2="effect1_backgroundBlur_1918_10717" result="shape"/>
</filter>
<filter id="filter6_b_1918_10717" x="224.037" y="188.939" width="267.244" height="208.849" filterUnits="userSpaceOnUse" color-interpolation-filters="sRGB">
<feFlood flood-opacity="0" result="BackgroundImageFix"/>
<feGaussianBlur in="BackgroundImageFix" stdDeviation="32.2655"/>
<feComposite in2="SourceAlpha" operator="in" result="effect1_backgroundBlur_1918_10717"/>
<feBlend mode="normal" in="SourceGraphic" in2="effect1_backgroundBlur_1918_10717" result="shape"/>
</filter>
<filter id="filter7_b_1918_10717" x="-20.1864" y="44.1881" width="550.777" height="413.566" filterUnits="userSpaceOnUse" color-interpolation-filters="sRGB">
<feFlood flood-opacity="0" result="BackgroundImageFix"/>
<feGaussianBlur in="BackgroundImageFix" stdDeviation="13.0806"/>
<feComposite in2="SourceAlpha" operator="in" result="effect1_backgroundBlur_1918_10717"/>
<feBlend mode="normal" in="SourceGraphic" in2="effect1_backgroundBlur_1918_10717" result="shape"/>
</filter>
<filter id="filter8_b_1918_10717" x="223.573" y="5.81835" width="267.244" height="208.849" filterUnits="userSpaceOnUse" color-interpolation-filters="sRGB">
<feFlood flood-opacity="0" result="BackgroundImageFix"/>
<feGaussianBlur in="BackgroundImageFix" stdDeviation="32.2655"/>
<feComposite in2="SourceAlpha" operator="in" result="effect1_backgroundBlur_1918_10717"/>
<feBlend mode="normal" in="SourceGraphic" in2="effect1_backgroundBlur_1918_10717" result="shape"/>
</filter>
<filter id="filter9_b_1918_10717" x="301.737" y="51.9741" width="267.224" height="208.849" filterUnits="userSpaceOnUse" color-interpolation-filters="sRGB">
<feFlood flood-opacity="0" result="BackgroundImageFix"/>
<feGaussianBlur in="BackgroundImageFix" stdDeviation="32.2655"/>
<feComposite in2="SourceAlpha" operator="in" result="effect1_backgroundBlur_1918_10717"/>
<feBlend mode="normal" in="SourceGraphic" in2="effect1_backgroundBlur_1918_10717" result="shape"/>
</filter>
<filter id="filter10_b_1918_10717" x="145.889" y="51.0322" width="267.244" height="208.849" filterUnits="userSpaceOnUse" color-interpolation-filters="sRGB">
<feFlood flood-opacity="0" result="BackgroundImageFix"/>
<feGaussianBlur in="BackgroundImageFix" stdDeviation="32.2655"/>
<feComposite in2="SourceAlpha" operator="in" result="effect1_backgroundBlur_1918_10717"/>
<feBlend mode="normal" in="SourceGraphic" in2="effect1_backgroundBlur_1918_10717" result="shape"/>
</filter>
<filter id="filter11_b_1918_10717" x="-58.5562" y="136.979" width="267.244" height="208.849" filterUnits="userSpaceOnUse" color-interpolation-filters="sRGB">
<feFlood flood-opacity="0" result="BackgroundImageFix"/>
<feGaussianBlur in="BackgroundImageFix" stdDeviation="32.2655"/>
<feComposite in2="SourceAlpha" operator="in" result="effect1_backgroundBlur_1918_10717"/>
<feBlend mode="normal" in="SourceGraphic" in2="effect1_backgroundBlur_1918_10717" result="shape"/>
</filter>
<filter id="filter12_f_1918_10717" x="171.957" y="374.743" width="92.03" height="66.2711" filterUnits="userSpaceOnUse" color-interpolation-filters="sRGB">
<feFlood flood-opacity="0" result="BackgroundImageFix"/>
<feBlend mode="normal" in="SourceGraphic" in2="BackgroundImageFix" result="shape"/>
<feGaussianBlur stdDeviation="4.79622" result="effect1_foregroundBlur_1918_10717"/>
</filter>
<filter id="filter13_f_1918_10717" x="177.189" y="379.975" width="45.4124" height="32.6848" filterUnits="userSpaceOnUse" color-interpolation-filters="sRGB">
<feFlood flood-opacity="0" result="BackgroundImageFix"/>
<feBlend mode="normal" in="SourceGraphic" in2="BackgroundImageFix" result="shape"/>
<feGaussianBlur stdDeviation="2.1801" result="effect1_foregroundBlur_1918_10717"/>
</filter>
<filter id="filter14_b_1918_10717" x="186.28" y="149.48" width="93.5183" height="144.108" filterUnits="userSpaceOnUse" color-interpolation-filters="sRGB">
<feFlood flood-opacity="0" result="BackgroundImageFix"/>
<feGaussianBlur in="BackgroundImageFix" stdDeviation="6.10429"/>
<feComposite in2="SourceAlpha" operator="in" result="effect1_backgroundBlur_1918_10717"/>
<feBlend mode="normal" in="SourceGraphic" in2="effect1_backgroundBlur_1918_10717" result="shape"/>
</filter>
<filter id="filter15_b_1918_10717" x="-8.01655" y="170.582" width="162.623" height="104.212" filterUnits="userSpaceOnUse" color-interpolation-filters="sRGB">
<feFlood flood-opacity="0" result="BackgroundImageFix"/>
<feGaussianBlur in="BackgroundImageFix" stdDeviation="6.10429"/>
<feComposite in2="SourceAlpha" operator="in" result="effect1_backgroundBlur_1918_10717"/>
<feBlend mode="normal" in="SourceGraphic" in2="effect1_backgroundBlur_1918_10717" result="shape"/>
</filter>
<linearGradient id="paint0_linear_1918_10717" x1="63.7274" y1="122.957" x2="66.3904" y2="235.273" gradientUnits="userSpaceOnUse">
<stop stop-color="#1A1C1E" stop-opacity="0"/>
<stop offset="1" stop-color="#4500DF"/>
</linearGradient>
<clipPath id="clip0_1918_10717">
<rect width="515" height="466" fill="white"/>
</clipPath>
</defs>
</svg>
