<svg width="149" height="48" viewBox="0 0 149 48" fill="none" xmlns="http://www.w3.org/2000/svg">
<g clip-path="url(#clip0_1898_7128)">
<path fill-rule="evenodd" clip-rule="evenodd" d="M0.735908 0C0.329476 0 0 0.329478 0 0.73591V33.4665C0 33.6902 0.101686 33.9016 0.276349 34.0413L17.533 47.8389C17.6635 47.9432 17.8256 48 17.9926 48H29.9697C30.1448 48 30.3142 47.9376 30.4474 47.8239L46.5989 34.0407C46.7628 33.9009 46.8571 33.6963 46.8571 33.4809V0.73591C46.8571 0.329478 46.5277 0 46.1212 0H0.735908ZM5.14258 6.0828C5.14258 5.87958 5.30732 5.71484 5.51054 5.71484H13.5972C13.6929 5.71484 13.7847 5.75208 13.8534 5.81867L32.0105 23.4291L41.035 32.4642C41.1039 32.5332 41.1426 32.6268 41.1426 32.7243V37.9183C41.1426 38.1215 40.9778 38.2863 40.7746 38.2863L28.6376 38.2863L15.1295 38.2863C15.0459 38.2863 14.9649 38.2579 14.8997 38.2057L5.28076 30.5154C5.19342 30.4455 5.14258 30.3398 5.14258 30.228L5.14258 6.0828Z" fill="#4500DF"/>
<path d="M26.9996 26.7031C27.0957 26.7031 27.188 26.7407 27.2567 26.8079L31.9253 31.3686C32.1613 31.5991 31.9981 31.9997 31.6682 31.9997L19.0964 31.9997C19.0125 31.9997 18.9312 31.971 18.8658 31.9185L12.1373 26.5053C12.0505 26.4355 12 26.33 12 26.2186L12 14.0493C12 13.7189 12.4016 13.5559 12.6319 13.7928L17.2101 18.5046C17.2769 18.5733 17.3142 18.6653 17.3142 18.761L17.3142 22.4978C17.3142 22.6403 17.3785 22.7755 17.4898 22.867L22.1015 26.5908C22.1898 26.6634 22.3012 26.7031 22.4164 26.7031L26.9996 26.7031Z" fill="white"/>
</g>
<path d="M67.56 29.312V17.888L70.248 15.2L77.784 15.2L80.376 17.792V19.688L78.072 19.688V18.608L76.68 17.216H71.352L69.864 18.704V28.496L71.352 29.984H76.68L78.072 28.592V27.512H80.376V29.408L77.784 32H70.248L67.56 29.312ZM86.9794 25.04L81.0994 15.2L83.5954 15.2L88.1074 22.928H88.1554L92.6674 15.2L95.1634 15.2L89.2834 25.04V32H86.9794V25.04ZM97.2141 15.2L107.006 15.2L109.286 17.48V22.136L108.206 23.24L110.03 25.088V29.576L107.606 32L97.2141 32V15.2ZM105.95 22.592L107.03 21.512V18.224L105.95 17.168H99.4701V22.592H105.95ZM106.502 30.032L107.774 28.784V25.76L106.502 24.488H99.4701V30.032H106.502ZM113.037 15.2H115.341V32H113.037V15.2ZM131.394 26.72V32H129.09V27.296L127.098 25.16L121.362 25.16V32L119.058 32V15.2L128.97 15.2L131.298 17.528V22.76L129.45 24.608L131.394 26.72ZM121.362 23.192L127.938 23.192L129.018 22.136V18.224L127.938 17.168L121.362 17.168V23.192ZM134.878 15.2L144.67 15.2L146.95 17.48V22.136L145.87 23.24L147.694 25.088V29.576L145.27 32H134.878V15.2ZM143.614 22.592L144.694 21.512V18.224L143.614 17.168L137.134 17.168V22.592L143.614 22.592ZM144.166 30.032L145.438 28.784V25.76L144.166 24.488L137.134 24.488V30.032L144.166 30.032Z" fill="white"/>
<defs>
<clipPath id="clip0_1898_7128">
<rect width="46" height="48" fill="white"/>
</clipPath>
</defs>
</svg>
