<svg width="83" height="99" viewBox="0 0 83 99" fill="none" xmlns="http://www.w3.org/2000/svg">
<path fill-rule="evenodd" clip-rule="evenodd" d="M20.7359 0C20.3295 0 20 0.329478 20 0.73591V33.4665C20 33.6902 20.1017 33.9016 20.2763 34.0413L37.533 47.8389C37.6635 47.9432 37.8256 48 37.9926 48H49.9697C50.1448 48 50.3142 47.9376 50.4474 47.8239L66.5989 34.0407C66.7628 33.9009 66.8571 33.6963 66.8571 33.4809V0.73591C66.8571 0.329478 66.5277 0 66.1212 0H20.7359ZM25.1426 6.0828C25.1426 5.87958 25.3073 5.71484 25.5105 5.71484H33.5972C33.6929 5.71484 33.7847 5.75208 33.8534 5.81867L52.0105 23.4291L61.035 32.4642C61.1039 32.5332 61.1426 32.6268 61.1426 32.7243V37.9183C61.1426 38.1215 60.9778 38.2863 60.7746 38.2863L48.6376 38.2863L35.1295 38.2863C35.0459 38.2863 34.9649 38.2579 34.8997 38.2057L25.2808 30.5154C25.1934 30.4455 25.1426 30.3398 25.1426 30.228L25.1426 6.0828Z" fill="#4500DF"/>
<path d="M46.9996 26.7031C47.0957 26.7031 47.188 26.7407 47.2567 26.8079L51.9253 31.3686C52.1613 31.5991 51.9981 31.9997 51.6682 31.9997L39.0964 31.9997C39.0125 31.9997 38.9312 31.971 38.8658 31.9185L32.1373 26.5053C32.0505 26.4355 32 26.33 32 26.2186L32 14.0493C32 13.7189 32.4016 13.5559 32.6319 13.7928L37.2101 18.5046C37.2769 18.5733 37.3142 18.6653 37.3142 18.761L37.3142 22.4978C37.3142 22.6403 37.3785 22.7755 37.4898 22.867L42.1015 26.5908C42.1898 26.6634 42.3012 26.7031 42.4164 26.7031L46.9996 26.7031Z" fill="white"/>
<path d="M1.56 94.312L1.56 82.888L4.248 80.2H11.784L14.376 82.792L14.376 84.688H12.072V83.608L10.68 82.216H5.352L3.864 83.704L3.864 93.496L5.352 94.984H10.68L12.072 93.592V92.512H14.376V94.408L11.784 97H4.248L1.56 94.312ZM20.9794 90.04L15.0994 80.2H17.5954L22.1074 87.928H22.1554L26.6674 80.2H29.1634L23.2834 90.04V97H20.9794V90.04ZM31.2141 80.2H41.0061L43.2861 82.48V87.136L42.2061 88.24L44.0301 90.088V94.576L41.6061 97H31.2141L31.2141 80.2ZM39.9501 87.592L41.0301 86.512V83.224L39.9501 82.168H33.4701V87.592H39.9501ZM40.5021 95.032L41.7741 93.784V90.76L40.5021 89.488H33.4701V95.032H40.5021ZM47.0372 80.2H49.3412V97H47.0372V80.2ZM65.3938 91.72V97H63.0898V92.296L61.0978 90.16H55.3618V97L53.0578 97V80.2H62.9698L65.2978 82.528V87.76L63.4498 89.608L65.3938 91.72ZM55.3618 88.192H61.9378L63.0178 87.136V83.224L61.9378 82.168H55.3618V88.192ZM68.8781 80.2H78.6701L80.9501 82.48V87.136L79.8701 88.24L81.6941 90.088V94.576L79.2701 97H68.8781V80.2ZM77.6141 87.592L78.6941 86.512V83.224L77.6141 82.168H71.1341V87.592H77.6141ZM78.1661 95.032L79.4381 93.784V90.76L78.1661 89.488H71.1341V95.032H78.1661Z" fill="white"/>
</svg>
