<svg width="81" height="71" viewBox="0 0 81 71" fill="none" xmlns="http://www.w3.org/2000/svg">
<rect x="1.33119" y="0.809708" width="53.9004" height="39.6238" rx="0.776491" stroke="#272629" stroke-width="0.826446"/>
<line x1="6.27148" y1="5.93248" x2="46.1269" y2="5.93248" stroke="#272629" stroke-width="0.826446"/>
<line x1="6.27148" y1="10.0956" x2="41.9629" y2="10.0956" stroke="#272629" stroke-width="0.826446"/>
<line x1="6.27148" y1="13.0712" x2="38.3938" y2="13.0712" stroke="#272629" stroke-width="0.826446"/>
<line x1="5.67773" y1="17.829" x2="37.8" y2="17.829" stroke="#272629" stroke-width="0.826446"/>
<rect x="13.0324" y="15.4113" width="53.9004" height="39.6238" rx="0.776491" fill="#090A0C" stroke="#272629" stroke-width="0.826446"/>
<line x1="17.9727" y1="20.5331" x2="57.8281" y2="20.5331" stroke="#272629" stroke-width="0.826446"/>
<line x1="17.9727" y1="24.6971" x2="53.6641" y2="24.6971" stroke="#272629" stroke-width="0.826446"/>
<line x1="17.9727" y1="27.6708" x2="50.0949" y2="27.6708" stroke="#272629" stroke-width="0.826446"/>
<line x1="17.377" y1="32.4305" x2="49.4992" y2="32.4305" stroke="#272629" stroke-width="0.826446"/>
<rect x="26.6847" y="30.6076" width="53.9004" height="39.6238" rx="0.776491" fill="#090A0C" stroke="white" stroke-width="0.826446"/>
<path d="M31.75 35.2793H73.9848" stroke="white" stroke-width="0.826446" stroke-linecap="round"/>
<path d="M31.75 38.8486H73.9848" stroke="white" stroke-width="0.826446" stroke-linecap="round"/>
<path d="M31.75 42.418H59.7083" stroke="white" stroke-width="0.826446" stroke-linecap="round"/>
<path d="M31.75 46.582H59.7083" stroke="white" stroke-width="0.826446" stroke-linecap="round"/>
</svg>
