<svg width="100" height="100" viewBox="0 0 100 100" fill="none" xmlns="http://www.w3.org/2000/svg">
<g clip-path="url(#clip0_2007_7462)">
<path d="M74.3803 22.3145H22.7275L22.0676 22.4344C17.6453 23.2385 18.2326 29.7525 22.7275 29.7525V29.7525H74.3803V29.7525C78.0318 29.7525 80.9919 32.7126 80.9919 36.364V45.0417V72.3144C80.9919 75.9659 78.0318 78.926 74.3803 78.926H26.0332C22.3818 78.926 19.4217 75.9659 19.4217 72.3144V27.6864" stroke="#272629" stroke-width="0.826446" stroke-linecap="round"/>
<rect x="65.7023" y="46.2804" width="20.6612" height="14.876" rx="1.23967" fill="#0D0C0F" stroke="#272629" stroke-width="0.826446"/>
<path d="M68.5957 53.7188H75.6205" stroke="#272629" stroke-width="0.826446" stroke-linecap="round"/>
<path d="M23.9668 26.0332H75.2065" stroke="#272629" stroke-width="0.826446" stroke-linecap="round"/>
<g clip-path="url(#clip1_2007_7462)">
<rect width="19.8347" height="19.8347" transform="translate(12.3965 61.9834)" fill="#0D0C0F"/>
<path d="M22.6836 77.1662L26.9169 79.8483C27.458 80.1912 28.1299 79.6813 27.9693 79.0496L26.7462 74.2382C26.7118 74.1042 26.7159 73.9632 26.758 73.8314C26.8001 73.6996 26.8786 73.5824 26.9844 73.4932L30.7806 70.3336C31.2794 69.9184 31.0219 69.0906 30.3811 69.049L25.4235 68.7272C25.29 68.7177 25.1619 68.6704 25.0542 68.5909C24.9465 68.5114 24.8636 68.4029 24.8151 68.2781L22.9662 63.6219C22.9159 63.4895 22.8265 63.3754 22.7099 63.295C22.5933 63.2145 22.455 63.1714 22.3133 63.1714C22.1716 63.1714 22.0333 63.2145 21.9167 63.295C21.8001 63.3754 21.7107 63.4895 21.6605 63.6219L19.8115 68.2781C19.7631 68.4029 19.6802 68.5114 19.5725 68.5909C19.4648 68.6704 19.3367 68.7177 19.2032 68.7272L14.2456 69.049C13.6047 69.0906 13.3473 69.9184 13.8461 70.3336L17.6423 73.4932C17.7481 73.5824 17.8265 73.6996 17.8687 73.8314C17.9108 73.9632 17.9149 74.1042 17.8804 74.2382L16.7461 78.7002C16.5535 79.4582 17.3597 80.0701 18.009 79.6587L21.9431 77.1662C22.0537 77.0958 22.1822 77.0584 22.3133 77.0584C22.4445 77.0584 22.5729 77.0958 22.6836 77.1662V77.1662Z" stroke="white" stroke-width="0.826446" stroke-linecap="round" stroke-linejoin="round"/>
</g>
</g>
<defs>
<clipPath id="clip0_2007_7462">
<rect width="100" height="100" fill="white"/>
</clipPath>
<clipPath id="clip1_2007_7462">
<rect width="19.8347" height="19.8347" fill="white" transform="translate(12.3965 61.9834)"/>
</clipPath>
</defs>
</svg>
