<svg width="70" height="18" viewBox="0 0 70 18" fill="none" xmlns="http://www.w3.org/2000/svg">
<g clip-path="url(#clip0_2171_6122)">
<rect width="70" height="18" fill="#0D0C0F"/>
<rect x="-21.5029" y="15.2168" width="3" height="74" transform="rotate(-45 -21.5029 15.2168)" fill="#595A5A"/>
<rect x="-16.5527" y="10.2671" width="3" height="74" transform="rotate(-45 -16.5527 10.2671)" fill="#595A5A"/>
<rect x="-11.6035" y="5.31738" width="3" height="74" transform="rotate(-45 -11.6035 5.31738)" fill="#595A5A"/>
<rect x="-6.65332" y="0.367676" width="3" height="74" transform="rotate(-45 -6.65332 0.367676)" fill="#595A5A"/>
<rect x="-1.70312" y="-4.58203" width="3" height="74" transform="rotate(-45 -1.70312 -4.58203)" fill="#595A5A"/>
<rect x="3.24609" y="-9.53174" width="3" height="74" transform="rotate(-45 3.24609 -9.53174)" fill="#595A5A"/>
<rect x="8.19629" y="-14.4814" width="3" height="74" transform="rotate(-45 8.19629 -14.4814)" fill="#595A5A"/>
<rect x="13.1455" y="-19.4312" width="3" height="74" transform="rotate(-45 13.1455 -19.4312)" fill="#595A5A"/>
<rect x="18.0957" y="-24.3809" width="3" height="74" transform="rotate(-45 18.0957 -24.3809)" fill="#595A5A"/>
<rect x="23.0449" y="-29.3311" width="3" height="74" transform="rotate(-45 23.0449 -29.3311)" fill="#595A5A"/>
<rect x="27.9951" y="-34.2808" width="3" height="74" transform="rotate(-45 27.9951 -34.2808)" fill="#595A5A"/>
<rect x="32.9443" y="-39.2305" width="3" height="74" transform="rotate(-45 32.9443 -39.2305)" fill="#595A5A"/>
<rect x="37.8945" y="-44.1802" width="3" height="74" transform="rotate(-45 37.8945 -44.1802)" fill="#595A5A"/>
<rect x="42.8438" y="-49.1299" width="3" height="74" transform="rotate(-45 42.8438 -49.1299)" fill="#595A5A"/>
</g>
<defs>
<clipPath id="clip0_2171_6122">
<rect width="70" height="18" fill="white"/>
</clipPath>
</defs>
</svg>
