<svg width="101" height="101" viewBox="0 0 101 101" fill="none" xmlns="http://www.w3.org/2000/svg">
<g clip-path="url(#clip0_1123_2710)">
<path fill-rule="evenodd" clip-rule="evenodd" d="M45.2682 98.8402L12.1355 79.6791C8.64262 77.6832 6.54688 73.9907 6.54688 70.0986V31.7765C6.54688 27.8844 8.64262 24.1919 12.0357 22.1959L30.7976 11.4179C34.1907 9.42191 38.482 9.42191 41.8751 11.4179L50.8568 16.6073L48.2621 18.1043L40.5777 13.6134C39.2803 12.9148 37.7834 12.5156 36.2864 12.5156C34.7895 12.5156 33.2925 12.815 31.9952 13.6134L13.3331 24.3915C12.4349 24.8905 11.6365 25.5891 11.0377 26.3874L9.74038 28.583C9.3412 29.5809 9.1416 30.6787 9.1416 31.7765H9.0418V70.0986C9.0418 73.0925 10.7384 75.9866 13.3331 77.4836L46.5655 96.6446C49.1603 98.1416 52.4536 98.1416 55.0483 96.6446L88.3805 77.5834C91.0751 76.0864 92.6718 73.1923 92.6718 70.1984V31.8763C92.6718 30.7785 92.4722 29.6807 92.073 28.6828L90.5761 26.3874C89.9773 25.5891 89.1789 24.8905 88.2807 24.3915L69.6187 13.6134C67.024 12.1164 63.7306 12.1164 61.1359 13.6134L53.3517 18.1043L50.8568 16.6073L59.8386 11.4179C63.2317 9.42191 67.5229 9.42191 70.916 11.4179L89.5781 22.1959C93.071 24.1919 95.1668 27.7846 95.1668 31.7765V70.0986C95.1668 73.9907 92.9712 77.6832 89.5781 79.6791L56.4455 98.8402C54.6491 99.8381 52.753 100.337 50.8568 100.337C48.8609 100.337 46.9647 99.8381 45.2682 98.8402Z" fill="#272629"/>
<path d="M77.802 33.1736C76.9039 32.0759 75.8061 31.0779 74.5087 30.2795L53.3517 18.1043L50.8568 16.6073L48.2621 18.1043L27.0053 30.3793C25.7079 31.0779 24.6102 32.0759 23.712 33.2734L26.1071 34.471C26.7059 33.7724 27.5043 33.0738 28.3027 32.5749L50.757 19.6012L73.3112 32.5749C74.2094 33.0738 74.9079 33.6726 75.5067 34.471L77.802 33.1736Z" fill="white"/>
<path d="M77.6024 39.9598V61.017C77.6024 64.011 76.0057 66.9051 73.3112 68.402L55.0483 78.8807C52.4536 80.3777 49.1603 80.3777 46.5655 78.8807L28.3027 68.402C25.7079 66.9051 24.0114 64.011 24.0114 61.017V39.9598C24.0114 38.7623 24.211 37.6645 24.71 36.6665L22.5144 35.3692C21.9156 36.7663 21.5164 38.2633 21.5164 39.86V60.9172C21.5164 64.9091 23.6122 68.5018 27.1051 70.4978L45.368 80.9765C48.7611 82.9724 53.0524 82.9724 56.4455 80.9765L74.7083 70.4978C78.1014 68.5018 80.297 64.8093 80.297 60.9172V39.9598C80.297 38.3631 79.8978 36.8661 79.299 35.469L76.8521 36.7641C77.3222 37.7359 77.6024 38.8012 77.6024 39.9598Z" fill="white"/>
<path d="M90.5761 26.3874L77.802 33.1736L75.5067 34.471L54.8487 45.5485C52.3538 46.9456 49.3599 46.9456 46.7651 45.5485L26.1071 34.471L23.712 33.2734L11.0377 26.3874L9.74038 28.583L22.5144 35.3692L24.71 36.6665L45.5676 47.8438C47.1643 48.742 48.9607 49.1412 50.757 49.1412C52.5534 49.1412 54.3497 48.742 55.9465 47.8438L76.8041 36.6665C76.8203 36.699 76.8363 36.7315 76.8521 36.7641L79.299 35.469L92.073 28.6828L90.5761 26.3874Z" fill="#272629"/>
</g>
<defs>
<clipPath id="clip0_1123_2710">
<rect width="99.7972" height="99.7972" fill="white" transform="translate(0.558594 0.938965)"/>
</clipPath>
</defs>
</svg>
