<svg width="95" height="65" viewBox="0 0 95 65" fill="none" xmlns="http://www.w3.org/2000/svg">
<g clip-path="url(#clip0_1123_2729)">
<path d="M32.4348 64.251C49.92 64.251 64.106 50.065 64.106 32.5799C64.106 23.3424 60.0646 14.5999 53.0541 8.57905L51.652 10.1461C58.2501 15.7545 61.9616 23.9198 61.9616 32.5799C61.9616 48.9103 48.6828 62.1066 32.4348 62.1066C16.1044 62.1066 2.90807 48.8278 2.90807 32.5799C2.90807 16.2494 16.1869 3.05309 32.4348 3.05309C35.404 3.05309 38.2907 3.46548 41.0949 4.37272L41.6723 2.39328C38.7031 1.40355 35.569 0.908691 32.4348 0.908691C14.9497 0.908691 0.763672 15.0947 0.763672 32.5799C0.763672 50.065 14.9497 64.251 32.4348 64.251Z" fill="#272629"/>
<path d="M63.0335 0.908691C45.5483 0.908691 31.3623 15.0947 31.3623 32.5799C31.3623 41.5699 35.1562 50.1475 41.8369 56.0858L43.239 54.5187C37.0532 48.9103 33.5067 40.91 33.5067 32.5799C33.5067 16.2494 46.7855 3.05309 63.0335 3.05309C79.3639 3.05309 92.5602 16.3319 92.5602 32.5799C92.5602 48.9103 79.2814 62.1066 63.0335 62.1066C59.5694 62.1066 56.2704 61.5293 53.0538 60.3746L52.3115 62.354C55.7755 63.5912 59.322 64.1685 63.0335 64.1685C80.5186 64.1685 94.7046 49.9825 94.7046 32.4974C94.7046 15.0947 80.5186 0.908691 63.0335 0.908691Z" fill="white"/>
</g>
<defs>
<clipPath id="clip0_1123_2729">
<rect width="93.9413" height="63.3423" fill="white" transform="translate(0.763672 0.908691)"/>
</clipPath>
</defs>
</svg>
