<svg width="89" height="83" viewBox="0 0 89 83" fill="none" xmlns="http://www.w3.org/2000/svg">
<g clip-path="url(#clip0_1123_2741)">
<circle cx="39.9716" cy="41.3833" r="37.1146" stroke="#272629" stroke-width="1.64954"/>
<mask id="path-2-inside-1_1123_2741" fill="white">
<path d="M50.6484 77.3973C41.4474 77.3973 32.5599 74.09 25.6406 68.091C18.7213 62.0921 14.2418 53.8104 13.0361 44.7878C11.8304 35.7653 13.9807 26.6168 19.0866 19.0456C24.1925 11.4745 31.906 5.99665 40.791 3.63204L41.2754 5.41281C32.827 7.66123 25.4925 12.8699 20.6375 20.069C15.7826 27.2681 13.738 35.967 14.8844 44.5462C16.0309 53.1253 20.2902 61.0001 26.8695 66.7042C33.4487 72.4084 41.8995 75.5532 50.6484 75.5532V77.3973Z"/>
</mask>
<path d="M50.6484 77.3973C41.4474 77.3973 32.5599 74.09 25.6406 68.091C18.7213 62.0921 14.2418 53.8104 13.0361 44.7878C11.8304 35.7653 13.9807 26.6168 19.0866 19.0456C24.1925 11.4745 31.906 5.99665 40.791 3.63204L41.2754 5.41281C32.827 7.66123 25.4925 12.8699 20.6375 20.069C15.7826 27.2681 13.738 35.967 14.8844 44.5462C16.0309 53.1253 20.2902 61.0001 26.8695 66.7042C33.4487 72.4084 41.8995 75.5532 50.6484 75.5532V77.3973Z" stroke="#272629" stroke-width="3.29908" mask="url(#path-2-inside-1_1123_2741)"/>
<mask id="path-3-inside-2_1123_2741" fill="white">
<path d="M19.865 8.94743C27.8518 6.80737 36.4152 7.88018 43.9981 11.9708C51.581 16.0613 57.6798 22.8981 61.1855 31.2377C64.6913 39.5774 65.371 48.8661 63.1013 57.415C60.8316 65.9638 55.7631 73.2049 48.8174 77.8217L47.876 76.2335C54.4803 71.8436 59.2998 64.9583 61.458 56.8296C63.6162 48.7009 62.9698 39.8686 59.6364 31.9387C56.3029 24.0089 50.5038 17.5081 43.2935 13.6185C36.0833 9.72897 27.9407 8.70889 20.3463 10.7438L19.865 8.94743Z"/>
</mask>
<path d="M19.865 8.94743C27.8518 6.80737 36.4152 7.88018 43.9981 11.9708C51.581 16.0613 57.6798 22.8981 61.1855 31.2377C64.6913 39.5774 65.371 48.8661 63.1013 57.415C60.8316 65.9638 55.7631 73.2049 48.8174 77.8217L47.876 76.2335C54.4803 71.8436 59.2998 64.9583 61.458 56.8296C63.6162 48.7009 62.9698 39.8686 59.6364 31.9387C56.3029 24.0089 50.5038 17.5081 43.2935 13.6185C36.0833 9.72897 27.9407 8.70889 20.3463 10.7438L19.865 8.94743Z" stroke="#272629" stroke-width="3.29908" mask="url(#path-3-inside-2_1123_2741)"/>
<path d="M57.0178 8.49367C58.8095 11.2493 59.8827 14.4455 60.1937 17.9033C59.8363 14.4978 58.7462 11.3199 56.9391 8.54979L57.0178 8.49367ZM5.44595 53.4675C6.04917 53.8204 6.68188 54.1511 7.34008 54.4585C6.6742 54.1589 6.03464 53.8358 5.42554 53.4905L5.44595 53.4675Z" stroke="#272629" stroke-width="1.64954"/>
<circle cx="58.8956" cy="28.4865" r="1.64954" fill="#D9D9D9"/>
<circle cx="17.6574" cy="56.5284" r="1.64954" fill="#D9D9D9"/>
<circle cx="30.8536" cy="9.51673" r="1.64954" fill="#D9D9D9"/>
</g>
<defs>
<clipPath id="clip0_1123_2741">
<rect width="88.2504" height="82.477" fill="white" transform="translate(0.537109 0.0117188)"/>
</clipPath>
</defs>
</svg>
