<svg width="139" height="121" viewBox="0 0 139 121" fill="none" xmlns="http://www.w3.org/2000/svg">
<path d="M53.6965 8.75092L53.9327 8.62855L53.9632 8.3642C54.1956 6.34836 55.8304 4.35135 58.7365 2.84571C61.6299 1.34662 65.4787 0.499874 69.5 0.5C73.5199 0.500232 77.3672 1.34676 80.2599 2.8452C83.1653 4.3502 84.8003 6.34634 85.0339 8.36154L85.0645 8.62568L85.3006 8.74797L85.6978 8.95367L85.063 8.94816C85.0268 11.0299 83.4954 13.1321 80.5643 14.7353C77.6453 16.3318 73.6694 17.2421 69.5 17.2423C67.4256 17.2424 65.3739 17.0167 63.4631 16.5798C61.5517 16.1426 59.8257 15.5041 58.3811 14.7064C56.9352 13.908 55.812 12.9728 55.0568 11.966C54.3042 10.9627 53.9343 9.91257 53.9342 8.87242C53.9342 8.87203 53.9342 8.87163 53.9342 8.87123V8.87117L53.4643 8.87113L53.6965 8.75092ZM52.9342 9.14569V17.311V17.3113C52.9357 19.8221 54.8259 22.1022 57.909 23.7219C61.0094 25.3506 65.179 26.251 69.5 26.2509C73.8205 26.2506 77.9894 25.35 81.0891 23.7213C84.1716 22.1017 86.0614 19.8218 86.0629 17.3113V17.311V9.14274L104.016 18.4404L104.124 18.4964L104.246 18.4964C108.264 18.497 112.11 19.3433 115.002 20.8411C116.475 21.6038 117.8 22.4268 118.783 23.3192C119.769 24.2147 120.362 25.135 120.473 26.0892L120.503 26.344L120.727 26.4685L136.759 35.3689L69.5 70.2054L2.27092 35.3843L18.9567 26.7444L19.1928 26.6221L19.2235 26.3579C19.457 24.3427 21.0921 22.3466 23.9974 20.8416C26.8901 19.3431 30.7374 18.4966 34.7574 18.4964L34.8792 18.4964L34.9873 18.4404L52.9342 9.14569ZM67.9162 120.178L0.5 85.2614V38.0437L67.9162 72.9602V120.178ZM71.0838 120.178V72.9602L138.5 38.0437V85.2614L71.0838 120.178Z" stroke="white"/>
<path d="M85.9068 44.5424C85.9068 46.6571 84.2466 48.6952 81.2834 50.2343C78.345 51.7606 74.251 52.7195 69.7014 52.7195C65.1519 52.7195 61.0578 51.7606 58.1195 50.2343C55.1563 48.6952 53.4961 46.6571 53.4961 44.5424C53.4961 42.4277 55.1563 40.3895 58.1195 38.8504C61.0578 37.3242 65.1519 36.3652 69.7014 36.3652C74.251 36.3652 78.345 37.3242 81.2834 38.8504C84.2466 40.3895 85.9068 42.4277 85.9068 44.5424Z" stroke="white"/>
<path d="M120.47 27.1888C120.47 29.3035 118.81 31.3417 115.846 32.8808C112.908 34.407 108.814 35.366 104.264 35.366C99.7149 35.366 95.6208 34.407 92.6824 32.8808C89.7193 31.3417 88.0591 29.3035 88.0591 27.1888C88.0591 25.0741 89.7193 23.036 92.6824 21.4969C95.6208 19.9706 99.7149 19.0117 104.264 19.0117C108.814 19.0117 112.908 19.9706 115.846 21.4969C118.81 23.036 120.47 25.0741 120.47 27.1888Z" stroke="white"/>
<path d="M51.3443 27.1888C51.3443 29.3035 49.6841 31.3417 46.7209 32.8808C43.7825 34.407 39.6885 35.366 35.1389 35.366C30.5894 35.366 26.4953 34.407 23.557 32.8808C20.5938 31.3417 18.9336 29.3035 18.9336 27.1888C18.9336 25.0741 20.5938 23.036 23.557 21.4969C26.4953 19.9706 30.5894 19.0117 35.1389 19.0117C39.6885 19.0117 43.7825 19.9706 46.7209 21.4969C49.6841 23.036 51.3443 25.0741 51.3443 27.1888Z" stroke="white"/>
</svg>
