<svg width="119" height="113" viewBox="0 0 119 113" fill="none" xmlns="http://www.w3.org/2000/svg">
<g clip-path="url(#clip0_1918_8807)">
<path d="M99.4554 77.4358L98.9365 55.1973H12.627L13.3188 67.3982L13.6647 74.3207L13.8377 77.4358" stroke="white"/>
<path d="M101.572 41.3122L101.565 41.3141L53.6354 55.1146L19.2804 42.8811L19.2797 42.8809L1.77676 36.6749L0.524022 15.5336L64.5039 0.516414L117.553 15.6084L117.804 36.6605L103.474 40.793L103.468 40.795L101.572 41.3122Z" stroke="white"/>
<path d="M52.7698 31.9281L1.84766 15.2229L64.5039 0.516414L116.157 15.2112L52.7698 31.9281Z" stroke="white"/>
<path d="M102 41L99.235 55M13 55L19.4806 42.4157" stroke="white"/>
<path d="M13.3377 77.4637L13.3639 77.936H13.8369H21.4474H96.6007H99.4546H99.872L99.9466 77.5254L100.066 76.8671L118.249 70.94L118.495 90.754L56.0587 112.465L5.15093 90.7695L4.00368 71.0092L13.1824 74.6672L13.3377 77.4637Z" stroke="white"/>
<path d="M55.1068 90.4028L24.036 77.9355H93.4462L55.1068 90.4028Z" stroke="white"/>
<path d="M99.6274 76.4837L99.4544 77.4355L98.9355 55.197L100.319 48.4957L101.011 45.1451L101.703 41.7944" stroke="white"/>
<path d="M3.5 70.5L13.5 63.5" stroke="white"/>
<path d="M99.0012 55.5001L118.637 70.7621" stroke="white"/>
</g>
<defs>
<clipPath id="clip0_1918_8807">
<rect width="119" height="113" fill="white"/>
</clipPath>
</defs>
</svg>
