<svg width="88" height="100" viewBox="0 0 88 100" fill="none" xmlns="http://www.w3.org/2000/svg">
<g clip-path="url(#clip0_2007_13999)">
<path d="M44.0003 100L0.837891 74.9973V25.0027L44.0003 0L87.1627 25.0027V74.9973L44.0003 100ZM4.04143 73.1441L44.0003 96.2828L83.9591 73.1441V26.8559L44.0003 3.70648L4.04143 26.8559V73.1441Z" fill="#272629"/>
<path d="M44.0006 83.2553L15.2969 66.6297V33.3678L44.0006 16.7422L72.7044 33.3678V66.619L44.0006 83.2446V83.2553ZM18.5004 64.7765L44.0006 79.5488L69.5008 64.7765V35.2317L44.0006 20.4594L18.5004 35.2317V64.7765Z" fill="white"/>
<path d="M45.6879 81.3913H42.4844V47.4867L70.3659 32.875L71.8502 35.7245L45.6879 49.4363V81.3913Z" fill="white"/>
<path d="M17.6447 32.8688L16.168 35.7207L43.3552 49.8882L44.832 47.0363L17.6447 32.8688Z" fill="white"/>
</g>
<defs>
<clipPath id="clip0_2007_13999">
<rect width="86.3248" height="100" fill="white" transform="translate(0.837891)"/>
</clipPath>
</defs>
</svg>
