<svg width="83" height="91" viewBox="0 0 83 91" fill="none" xmlns="http://www.w3.org/2000/svg">
<g clip-path="url(#clip0_2007_14020)">
<path d="M41.5762 66.4917L0.464844 44.0058L2.24658 41.0517L41.5642 62.5603L80.7265 41.0176L82.5321 43.9604L41.5762 66.4917Z" fill="white"/>
<path d="M41.5408 40.3238L11.5742 23.9282V17.4176H15.1616V21.9625L41.5408 36.3925L67.8722 21.9057V17.4062H71.4595V23.86L41.5408 40.3238Z" fill="white"/>
<path d="M41.5538 91L0.0597897 68.2983L0 22.7926L41.4462 0L82.9402 22.7017L83 68.2074L41.5538 91ZM3.64717 66.3213L41.5538 87.0573L79.4126 66.2304L79.3528 24.6674L41.4462 3.93133L3.58738 24.7583L3.63521 66.3213H3.64717Z" fill="#272629"/>
</g>
<defs>
<clipPath id="clip0_2007_14020">
<rect width="83" height="91" fill="white"/>
</clipPath>
</defs>
</svg>
