<svg width="83" height="83" viewBox="0 0 83 83" fill="none" xmlns="http://www.w3.org/2000/svg">
<path d="M43.5269 65.8538L62.9652 78.2656C65.4499 79.8521 68.5348 77.4925 67.7975 74.5694L62.1814 52.3036C62.0232 51.6835 62.0419 51.0309 62.2354 50.421C62.4289 49.8111 62.7892 49.2687 63.275 48.856L80.706 34.2341C82.9964 32.3129 81.8142 28.482 78.8716 28.2895L56.1078 26.8006C55.4947 26.7564 54.9066 26.5376 54.412 26.1697C53.9175 25.8017 53.5368 25.2998 53.3144 24.7222L44.8244 3.17485C44.5937 2.56185 44.1833 2.0341 43.6479 1.6617C43.1125 1.28929 42.4773 1.08984 41.8268 1.08984C41.1762 1.08984 40.5411 1.28929 40.0057 1.6617C39.4703 2.0341 39.0599 2.56185 38.8291 3.17485L30.3392 24.7222C30.1168 25.2998 29.7361 25.8017 29.2415 26.1697C28.747 26.5376 28.1589 26.7564 27.5458 26.8006L4.78195 28.2895C1.83932 28.482 0.657169 32.3129 2.94754 34.2341L20.3786 48.856C20.8644 49.2687 21.2247 49.8111 21.4182 50.421C21.6116 51.0309 21.6304 51.6835 21.4722 52.3036L16.2639 72.9526C15.3791 76.4604 19.081 79.292 22.0627 77.3881L40.1267 65.8538C40.6348 65.5278 41.2245 65.3547 41.8268 65.3547C42.429 65.3547 43.0188 65.5278 43.5269 65.8538V65.8538Z" stroke="#272629" stroke-width="1.65289" stroke-linecap="round" stroke-linejoin="round"/>
</svg>
