<svg width="24" height="18" viewBox="0 0 24 18" fill="none" xmlns="http://www.w3.org/2000/svg">
<path d="M19.8265 1.728C19.8202 1.71563 19.8099 1.70593 19.7973 1.70065C18.3385 1.01739 16.799 0.530177 15.2174 0.251195C15.2031 0.248468 15.1882 0.250435 15.175 0.256817C15.1618 0.263199 15.1509 0.27367 15.1438 0.286742C14.9342 0.675137 14.7439 1.07408 14.5737 1.48206C12.8688 1.21787 11.1347 1.21787 9.42982 1.48206C9.25846 1.07305 9.06511 0.674002 8.85067 0.286742C8.84332 0.273954 8.83236 0.263724 8.81923 0.257384C8.8061 0.251044 8.7914 0.248887 8.77705 0.251195C7.1953 0.529592 5.65575 1.01684 4.19714 1.70069C4.18465 1.7061 4.17411 1.71532 4.16698 1.7271C1.25005 6.17391 0.450989 10.5114 0.84298 14.7951C0.844082 14.8056 0.847242 14.8158 0.852271 14.825C0.8573 14.8343 0.864095 14.8424 0.872253 14.8489C2.57076 16.1327 4.47056 17.1126 6.49058 17.7469C6.5048 17.7512 6.51999 17.751 6.53411 17.7463C6.54822 17.7416 6.56058 17.7326 6.56952 17.7205C7.00337 17.1178 7.3878 16.4797 7.7189 15.8126C7.72345 15.8034 7.72604 15.7934 7.72652 15.7831C7.72699 15.7729 7.72533 15.7626 7.72165 15.7531C7.71796 15.7435 7.71234 15.7349 7.70514 15.7277C7.69795 15.7205 7.68935 15.715 7.6799 15.7115C7.07369 15.4747 6.4868 15.1893 5.92475 14.8578C5.91454 14.8517 5.90596 14.8431 5.89978 14.8328C5.8936 14.8225 5.89 14.8108 5.8893 14.7987C5.8886 14.7866 5.89082 14.7746 5.89577 14.7636C5.90071 14.7526 5.90824 14.743 5.91767 14.7357C6.0356 14.6455 6.15361 14.5517 6.26623 14.4569C6.27623 14.4485 6.28834 14.4431 6.30118 14.4414C6.31403 14.4396 6.3271 14.4415 6.33893 14.4469C10.0212 16.1625 14.0077 16.1625 17.6464 14.4469C17.6582 14.4412 17.6714 14.439 17.6845 14.4406C17.6975 14.4422 17.7098 14.4476 17.72 14.456C17.8326 14.5508 17.9506 14.6455 18.0694 14.7357C18.0789 14.743 18.0865 14.7525 18.0915 14.7634C18.0966 14.7744 18.0989 14.7864 18.0982 14.7985C18.0976 14.8105 18.0941 14.8223 18.088 14.8326C18.0819 14.843 18.0734 14.8516 18.0632 14.8578C17.5025 15.192 16.915 15.4773 16.3072 15.7106C16.2978 15.7142 16.2892 15.7199 16.2821 15.7272C16.2749 15.7345 16.2694 15.7432 16.2657 15.7528C16.2621 15.7625 16.2606 15.7728 16.2611 15.7831C16.2617 15.7933 16.2643 15.8034 16.269 15.8126C16.6056 16.476 16.9895 17.1133 17.4175 17.7194C17.4262 17.7318 17.4384 17.7412 17.4526 17.7461C17.4668 17.751 17.4821 17.7512 17.4964 17.7468C19.52 17.1146 21.4232 16.1346 23.1238 14.8489C23.1321 14.8427 23.139 14.8348 23.144 14.8257C23.1491 14.8166 23.1522 14.8065 23.1531 14.796C23.6224 9.84357 22.3674 5.54164 19.8265 1.728ZM8.26881 12.1868C7.16018 12.1868 6.24671 11.1482 6.24671 9.87275C6.24671 8.59727 7.14247 7.55864 8.26881 7.55864C9.40395 7.55864 10.3086 8.6063 10.2909 9.87267C10.2909 11.1482 9.39508 12.1868 8.26881 12.1868ZM15.7451 12.1868C14.6365 12.1868 13.7231 11.1482 13.7231 9.87275C13.7231 8.59727 14.6188 7.55864 15.7451 7.55864C16.8803 7.55864 17.7849 8.6063 17.7672 9.87267C17.7672 11.1482 16.8803 12.1868 15.7451 12.1868Z" fill="#FCEEEE"/>
</svg>
