<svg width="26" height="26" viewBox="0 0 26 26" fill="none" xmlns="http://www.w3.org/2000/svg">
<path d="M25.2461 25.2461H15.1478V16.7004C15.1478 16.3596 15.4255 16.0693 15.7663 16.0693L17.9879 16.0314C18.1647 16.0188 18.3161 15.8926 18.354 15.7158L18.7958 13.3049C18.8337 13.0776 18.657 12.863 18.4171 12.863L15.7284 12.9009C15.375 12.9009 15.0973 12.6232 15.0847 12.2824L15.0342 9.18976C15.0342 8.98779 15.1983 8.81109 15.4128 8.81109L18.4424 8.76058C18.6569 8.76058 18.8211 8.5965 18.8211 8.38191L18.7706 5.35237C18.7706 5.13778 18.6065 4.9737 18.3919 4.9737L14.9837 5.0242C12.8883 5.06207 11.2221 6.77877 11.2599 8.87418L11.323 12.3455C11.3356 12.6989 11.058 12.9767 10.7045 12.9893L9.18974 13.0145C8.97515 13.0145 8.81107 13.1786 8.81107 13.3932L8.84894 15.7916C8.84894 16.0062 9.01302 16.1702 9.22761 16.1702L10.7424 16.145C11.0958 16.145 11.3735 16.4227 11.3861 16.7635L11.3607 25.2459L0 25.2461V0H25.2461V25.2461Z" fill="white"/>
</svg>
