<svg width="25" height="26" viewBox="0 0 25 26" fill="none" xmlns="http://www.w3.org/2000/svg">
<path d="M24.6652 11.449C24.6021 10.8053 24.0593 10.3256 23.4156 10.3256H13.8852C13.191 10.3256 12.623 10.8936 12.623 11.5879V13.7464C12.623 14.4407 13.191 15.0087 13.8852 15.0087H19.5782C19.4393 16.17 18.682 17.9246 17.0031 19.0985C15.9302 19.8433 14.5038 20.3608 12.623 20.3608C12.5346 20.3608 12.4589 20.3608 12.3705 20.3482C9.15164 20.2472 6.42509 18.0887 5.4405 15.1223C5.17542 14.3271 5.02394 13.4939 5.02394 12.623C5.02394 11.752 5.17541 10.9062 5.42787 10.1236C5.50361 9.89638 5.59197 9.66919 5.69295 9.44198C6.85427 6.82903 9.39148 4.98607 12.3705 4.89771C12.4462 4.88509 12.5346 4.88508 12.623 4.88508C14.428 4.88508 15.7787 5.47834 16.7254 6.13474C17.2177 6.47556 17.8741 6.39982 18.3033 5.98327L20.0579 4.26656C20.6133 3.72378 20.5628 2.80228 19.9316 2.34785C17.9246 0.870965 15.4757 0 12.623 0C12.5346 0 12.4589 1.23279e-05 12.3705 0.0126353C7.53591 0.100996 3.38295 2.90329 1.35066 6.95526C0.492295 8.67198 0 10.5907 0 12.623C0 14.6552 0.492295 16.5739 1.35066 18.2906H1.36328C3.39558 22.3426 7.54853 25.1449 12.3705 25.2333C12.4589 25.2459 12.5346 25.2459 12.623 25.2459C16.0311 25.2459 18.8966 24.1224 20.9793 22.1911C23.3651 19.9821 24.741 16.7507 24.741 12.9007C24.741 12.3579 24.7157 11.8908 24.6652 11.449Z" fill="white"/>
</svg>
