<svg width="24" height="24" viewBox="0 0 24 24" fill="none" xmlns="http://www.w3.org/2000/svg">
<path d="M1.03532 8.06826H5.85734V23.25H1.03532V8.06826ZM3.47861 0.75C1.82823 0.75 0.75 1.88356 0.75 3.37141C0.75 4.82865 1.79668 5.99517 3.4155 5.99517H3.44625C5.12818 5.99517 6.17561 4.82859 6.17561 3.37141C6.14405 1.88356 5.12823 0.75 3.47861 0.75ZM17.6967 7.71163C15.1371 7.71163 13.9904 9.18456 13.3507 10.2175V8.06826H8.52729C8.59114 9.49248 8.52729 23.25 8.52729 23.25H13.3507V14.7714C13.3507 14.3173 13.3823 13.8649 13.5092 13.5396C13.8584 12.6331 14.6521 11.6944 15.9833 11.6944C17.7298 11.6944 18.4273 13.0872 18.4273 15.1272V23.2499H23.25V14.5445C23.25 9.88134 20.8713 7.71163 17.6967 7.71163Z" fill="#FCEEEE"/>
</svg>
