<svg width="24" height="20" viewBox="0 0 24 20" fill="none" xmlns="http://www.w3.org/2000/svg">
<path d="M22.9549 0.21363C22.638 -0.0544121 22.1262 -0.0787794 21.2488 0.189263C20.6394 0.384202 15.2286 2.43107 10.4516 4.40483C6.16193 6.18366 2.6766 7.74317 2.26226 7.93811C1.79918 8.08432 0.79989 8.52293 0.751144 9.20522C0.726771 9.64383 1.09236 10.0337 1.79918 10.3505C2.55474 10.7404 5.89383 11.8613 6.60064 12.0806C6.84437 12.9091 8.28237 17.7582 8.35549 18.0506C8.45298 18.4892 8.74546 18.7329 8.89169 18.8304C8.91607 18.8547 8.96481 18.9035 9.01356 18.9278C9.08668 18.9766 9.18417 19.0009 9.30603 19.0009C9.47664 19.0009 9.67163 18.9278 9.84224 18.806C10.744 18.075 12.3039 16.4424 12.7426 15.9794C14.6681 17.4902 16.7641 19.1715 16.9591 19.3664L16.9835 19.3908C17.4466 19.7807 17.934 20 18.3728 20C18.519 20 18.6652 19.9756 18.8115 19.9269C19.3233 19.7563 19.6889 19.269 19.8108 18.6111C19.8108 18.5867 19.8351 18.4892 19.8839 18.3186C20.7126 14.7123 21.3706 11.5445 21.9068 8.88844C22.4187 6.28113 22.833 3.72254 23.0767 2.35797C23.1255 2.01682 23.1742 1.74878 23.1986 1.57821C23.2717 1.09086 23.3205 0.530407 22.9549 0.21363ZM7.11247 12.0075L18.7383 4.30736C18.7627 4.28299 18.8115 4.25863 18.8358 4.23426C18.8602 4.23426 18.8602 4.20989 18.8846 4.20989C18.909 4.20989 18.909 4.20989 18.9333 4.18552C18.909 4.20989 18.8846 4.28299 18.8358 4.33173L15.8867 7.08525C13.8394 8.96154 11.1584 11.4227 9.37915 13.0309C9.37915 13.0309 9.37915 13.0309 9.37915 13.0553L9.35478 13.0796C9.35478 13.0796 9.35478 13.104 9.33041 13.104C9.33041 13.1284 9.33041 13.1284 9.30603 13.1527V13.1771C9.30603 13.1771 9.30603 13.1771 9.30603 13.2015C9.18417 14.5661 8.96481 16.9053 8.86732 17.9531C8.86732 17.9531 8.86732 17.9531 8.86732 17.9288C8.76983 17.6364 7.40495 12.9822 7.11247 12.0075Z" fill="#FCEEEE"/>
</svg>
